<svg xmlns="http://www.w3.org/2000/svg" xmlns:xlink="http://www.w3.org/1999/xlink" width="16" height="29" viewBox="0 0 16 29"><defs><path id="a" d="M298.07 229.49l-12.83-12.2a.73.73 0 0 1 0-1.08c.31-.3.82-.3 1.13 0l13.41 12.74c.32.3.32.78 0 1.08l-13.4 12.74a.83.83 0 0 1-.57.23.8.8 0 0 1-.57-.23.74.74 0 0 1 0-1.08z"/><mask id="c" width="2" height="2" x="-1" y="-1"><path fill="#fff" d="M285 216h15.03v27H285z"/><use xlink:href="#a"/></mask><filter id="b" width="36.13" height="48.7" x="275" y="206" filterUnits="userSpaceOnUse"><feOffset dx="1.1" dy="1.7" in="SourceGraphic" result="FeOffset1022Out"/><feGaussianBlur in="FeOffset1022Out" result="FeGaussianBlur1023Out" stdDeviation="0 0"/></filter></defs><desc>Generated with Avocode.</desc><g transform="translate(-285 -216)"><g filter="url(#b)"><use fill="none" stroke-width="0" mask="url(&quot;#c&quot;)" xlink:href="#a"/><use fill="#bc9f6b" xlink:href="#a"/></g><use fill="#fff" xlink:href="#a"/></g></svg>