<svg xmlns="http://www.w3.org/2000/svg" xmlns:xlink="http://www.w3.org/1999/xlink" width="16" height="29" viewBox="0 0 16 29"><defs><path id="a" d="M21.93 229.49l12.83-12.2a.74.74 0 0 0 0-1.08.83.83 0 0 0-1.13 0l-13.41 12.74a.74.74 0 0 0 0 1.08l13.4 12.74c.16.15.37.23.57.23.2 0 .41-.08.57-.23a.74.74 0 0 0 0-1.08z"/><mask id="c" width="2" height="2" x="-1" y="-1"><path fill="#fff" d="M20 216h15.03v27H20z"/><use xlink:href="#a"/></mask><filter id="b" width="36.13" height="48.7" x="10" y="206" filterUnits="userSpaceOnUse"><feOffset dx="1.1" dy="1.7" in="SourceGraphic" result="FeOffset1041Out"/><feGaussianBlur in="FeOffset1041Out" result="FeGaussianBlur1042Out" stdDeviation="0 0"/></filter></defs><desc>Generated with Avocode.</desc><g transform="translate(-20 -216)"><g filter="url(#b)"><use fill="none" stroke-width="0" mask="url(&quot;#c&quot;)" xlink:href="#a"/><use fill="#bc9f6b" xlink:href="#a"/></g><use fill="#fff" xlink:href="#a"/></g></svg>