<svg xmlns="http://www.w3.org/2000/svg" width="287" height="75" viewBox="0 0 287 75"><defs><clipPath id="a"><path fill="#fff" d="M708.78 4331H922.1a30.5 30.5 0 0 1 0 61H708.8a30.5 30.5 0 0 1 0-61z"/></clipPath></defs><path fill="#cfcfcf" d="M37.63 4H251.5a35.5 35.5 0 1 1 0 71H37.62a35.5 35.5 0 1 1 0-71z"/><path fill="#cab3e6" d="M35.5 0h213.88a35.5 35.5 0 1 1 0 71H35.5a35.5 35.5 0 1 1 0-71z"/><path fill="none" stroke="#fff" stroke-dasharray="4 2" stroke-miterlimit="50" stroke-width="2" d="M708.78 4331H922.1a30.5 30.5 0 0 1 0 61H708.8a30.5 30.5 0 0 1 0-61z" clip-path="url(&quot;#a&quot;)" transform="translate(-673 -4326)"/></svg>