<svg xmlns="http://www.w3.org/2000/svg" xmlns:xlink="http://www.w3.org/1999/xlink" width="15.97" height="150" viewBox="0 0 15.97 150">
  <defs>
    <style>
      .cls-1 {
        fill: #f7eaff;
        fill-rule: evenodd;
        filter: url(#filter);
      }
    </style>
    <filter id="filter" x="1407" y="4911" width="15.97" height="150" filterUnits="userSpaceOnUse">
      <feOffset result="offset" dx="0.696" dy="4.951" in="SourceAlpha"/>
      <feGaussianBlur result="blur" stdDeviation="2.449"/>
      <feFlood result="flood" flood-opacity="0"/>
      <feComposite result="composite" operator="in" in2="blur"/>
      <feBlend result="blend" in="SourceGraphic"/>
    </filter>
  </defs>
  <path id="Первый_блок_2.svg" class="cls-1" d="M1407.6,5054.91c5.69,0.89,8.52,2.85,9.8,4.09V4911h0.88v147.6a12.809,12.809,0,0,1,3.89-2.44,0.867,0.867,0,0,1,.71.02c0.26,0.15-.06.33-0.06,0.33a10.273,10.273,0,0,0-4.54,3.25v1.08a0.545,0.545,0,0,1-.44.16,0.522,0.522,0,0,1-.44-0.16v-0.67c-0.29-.44-2.59-3.65-10.08-4.83,0,0-.43-0.1-0.31-0.3A0.629,0.629,0,0,1,1407.6,5054.91Z" transform="translate(-1407 -4911)"/>
</svg>
