<svg xmlns="http://www.w3.org/2000/svg" xmlns:xlink="http://www.w3.org/1999/xlink" width="22" height="617" viewBox="0 0 22 617"><defs><path id="a" d="M1259.82 4646.94c7.83 3.68 11.72 11.73 13.48 16.84v-608.79h1.21v607.15a34.36 34.36 0 0 1 5.35-10.04s.55-.7.97.06c.36.65-.07 1.36-.07 1.36a34.61 34.61 0 0 0-6.25 13.38v4.44s-.16.66-.61.66c-.44 0-.6-.66-.6-.66v-2.73c-.4-1.83-3.56-15.05-13.87-19.9 0 0-.58-.4-.42-1.21.18-.94.81-.56.81-.56z"/><mask id="c" width="2" height="2" x="-1" y="-1"><path fill="#fff" d="M1258.97 4055h22v617h-22z"/><use xlink:href="#a"/></mask><filter id="b" width="54.7" height="654" x="1248.97" y="4045" filterUnits="userSpaceOnUse"><feOffset dx=".7" dy="5" in="SourceGraphic" result="FeOffset1093Out"/><feGaussianBlur in="FeOffset1093Out" result="FeGaussianBlur1094Out" stdDeviation="2.4 2.4"/></filter></defs><desc>Generated with Avocode.</desc><g transform="translate(-1259 -4055)"><g filter="url(#b)"><use fill="none" stroke-width="0" mask="url(&quot;#c&quot;)" xlink:href="#a"/><use xlink:href="#a"/></g><use fill="#ddd" xlink:href="#a"/></g></svg>