<svg xmlns="http://www.w3.org/2000/svg" width="47" height="42" viewBox="0 0 47 42"><path fill="#282828" d="M35.01.81c.84.75.52 2.13.75 3.52 1.41.1 3.44-.59 5.15-.36.27.22.33.66.66.83-.14.79-.5 1.37-1.22 1.58a9.72 9.72 0 0 0-4.49.46c.12 1.65-.08 3.33.47 4.19-.15.47-.36.89-.66 1.2-.71.28-1.31-.11-1.69-.18-.73-1.23-.13-3.65-.65-4.65-.75-.28-2.27.68-3.46.65-.74-.01-1.61-.48-1.69-1.02-.08-.58.44-.73.56-1.3 1.24.2 2.64-.56 4.5-.65.28-1.4-.07-2.45-.28-3.72.32-.54 1.12-.61 2.05-.55zM22.94 2.76c.13.23.18.56.56.55.08.27-.13.24-.09.47.79.79.9 2.26 1.49 3.25.04 1.06.42 2.1.66 3.16.13.57.16 1.18.28 1.77.09.46.36.91.47 1.39.08.36.02.74.09 1.11.08.44.36.86.47 1.31.19.75.26 1.53.47 2.32.31 1.15.54 2.29.75 3.43.35-.26.46-.77.46-1.39.43-.92.69-1.93 1.13-2.6-.14-.35-.16-.28-.1-.74.22-.32.54-.52.75-.84 1.73.03 4.27.09 5.71-.46 1.88.15 3.17-.5 5.25-.1.61 1.39.69 2.98 1.4 4.09-.04 1.31.55 2.35.84 3.53.24.95.32 1.92.56 2.88.14.52.45 1.03.57 1.58.12.59-.12 1.29.46 1.77-.16.9.31 1.69.47 2.5.3 1.51.46 2.95 1.31 4.37-.13.23-.37.88.1.93-.33.49-.03 1.07-.47 1.49-.13-.01-.27-.02-.28.09-.61-.21-1.77-.07-2.81.09-.43.07-.95-.06-1.22 0-.23.06-.41.31-.65.37-.27.07-.55-.06-.85 0-.49.11-.91.53-1.31.56-.25.02-.66-.21-.93-.09-1.36-1.66-2.2-3.83-2.9-6.13-.48 0-.78-.16-1.31-.1a9 9 0 0 0 .09 4.65c-.33.41-.67.82-1.31.93-.72-.57-1.51.13-2.44-.28-.16.94.42 2.33-.37 2.97-.32-.14-.78-.15-1.12-.28-.95.46-2.55-.11-3.47.19-1.89-.56-4.34-.32-6.08-.46-.31-.23-.4-.67-.75-.84-.45-2.29-.93-4.53-1.22-7.44-.1-.99-.22-3.45-1.12-3.71-.23-.06-.6.02-.94 0-1.53-.09-2.59-.52-3.27 0-.12.57-.14 1.15-.19 1.76-.05.55-.23 1.12-.28 1.68-.09.87-.02 2.04-.1 2.69-.12 1.12-.03 2.89-.56 4-2.37.99-5.32.71-7.96 1.2-.65-.3-.97-.91-1.96-.65-.39-.23-.68-.56-1.12-.74-.11-1.18 0-2.38.18-3.53.28-1.73.33-4.63.66-6.78.02-.11.17-.26.19-.37.02-.15-.12-.39-.1-.56.02-.17.18-.25.19-.37.04-.56-.09-1.05 0-1.58.2-1.25.2-2.48.37-4.09.07-.63.28-1.25.28-1.86.01-.18-.11-.46-.09-.65.05-.33.32-.65.37-1.02.03-.15-.08-.36-.09-.56-.03-.84.37-2.34.38-3.44 0-.75.07-1.6 0-2.41.62-1.41.45-3.11.74-4.74.19-1.03.73-2.43.66-3.53.3-.02.4.16.75.09.29-.05.52-.16.75-.28 2.05-.18 3.83-.36 5.8-.37.49 0 .95-.23 1.41-.18.2.02.43.17.65.18.61.05 1.36-.04 2.06 0 .39.03.76.19 1.12.19.33 0 .59-.17.94-.19.83-.03 1.66.27 2.34.19.3-.04.57-.25.84-.28.83-.1 1.61.16 2.44-.09zm4.21 30.19c-.06-.53-.09-1.6-.19-2.32-.06-.52-.31-.99-.37-1.49-.05-.41.05-.8 0-1.21-.05-.43-.23-.87-.28-1.3a62.82 62.82 0 0 0-1.59-9.01c-.14-.48-.36-.91-.47-1.39-.03-.13.11-.34.09-.46-.05-.34-.3-.68-.37-1.03l-.28-1.21c-.21-.87-.33-1.76-.38-2.6-.43-.77-.59-2.11-.84-2.97-.08-.29-.02-.6-.09-.84-.2-.63-.7-1.14-.75-1.76-.54-.38-1.48-.31-2.06 0-1.07-.38-2.28-.07-3.56-.09-1.35-.03-2.75-.29-4.03-.28-1.96.14-4.37.1-6.08.55-.2 1.1-.46 2.2-.56 3.44-.06.76-.2 1.35-.28 1.95-.08.51.07 1.09 0 1.58-.04.22-.17.35-.19.56-.16 1.61-.22 3.25-.37 4.92-.53 5.56-1.37 11.31-1.69 17.56-.04.86-.35 1.79.09 2.6 1.57.11 2.03-.23 3.37 0 .87-.45 1.87-.19 2.72-.65.56-1.87.42-3.78.56-5.76.02-.18.17-.36.19-.55.02-.25-.13-.43-.1-.65.13-.85.53-1.66.1-2.51.49-.65 1.2-.82 2.06-1.12.93-.32 1.23-.13 2.15 0 1.39.21 4.27-.18 5.06.47.6.5.33 1.29.46 2.23.1.62.46 1.21.57 1.76.02.13-.12.39-.1.56.04.22.19.33.19.46.01.3-.12.55-.09.84.09 1.17.39 2.5.56 3.53.16 1 .26 1.66.56 2.23 1.07.11 2.74.17 3.93.28.19.02.44-.03.56 0 .23.05.43.27.66.28.32.02.67-.13.93-.19.35-.05.75.37.85 0-.09-2.11-.69-4.27-.94-6.41zm10.86-15.33c-2.2.19-4.32.17-6.46.84a52.65 52.65 0 0 0-1.68 6.04c-.19.1-.25.31-.38.46.16.41-.05.99-.09 1.49-.2.11-.27.35-.56.37.33.64.08 1.38.18 2.14.04.26.23.57.28.83.09.45.03.91.1 1.4.16 1.18.54 2.42.65 3.53.1.98.09 1.56.47 2.13.22-.24.84-.09 1.12-.28-.13-.41.16-.69.19-1.11.03-.44-.21-.88-.19-1.3.01-.21.2-.44.19-.65-.02-.38-.29-.74-.28-1.12.03-1.05 1.34-1.03 2.62-1.11.93-.06 1.9.15 2.72 0 .13.24.49.26.74.37 0 .28.2.36.29.56-.12.3-.17.67-.1 1.02.06.31.32.55.47.93.15.37.13.8.28 1.11.14.29.41.46.56.75.22.41.19.9.57 1.11 1.29-.1 2.47-.4 4.21-.46.26-1.12-.32-2.09-.56-3.07-.05-.17.02-.38 0-.56-.4-2.37-1.27-4.44-1.5-6.68-.16-.19-.34-.35-.38-.65.11-1.55-.66-2.85-1.03-4.19-.06-.23-.01-.45-.09-.74-.35-1.28-.71-2.2-1.03-3.25-.46-.22-.85.05-1.31.09zm-18.35 3.25c-.35.06-.71.1-.94.28-.78-.44-1.64-.18-2.43-.28-.18-.02-.29-.18-.47-.18-.2 0-.25.16-.47.18-.58.08-1.28-.07-1.87 0-1.1.15-2.05.69-3.27.28-.18-.25-.36-.51-.57-.74-.11-.32.21-.49.19-.84-.01-.24-.21-.31-.19-.55.03-.25.25-.51.28-.75.05-.32-.11-.68-.09-1.02.02-.26.17-.49.19-.74.03-.43-.1-.85-.1-1.3.01-.68.26-1.39.29-2.05.02-.72-.32-1.5.28-1.95-.01-.29.28-.28.56-.28-.22-.25-.19-.56-.09-.93 2.13-1.02 6.03-1.21 8.14-.55 0 .15.07.24.19.27.4 1.13.03 2.11.28 3.35-.28 1.01-.16 2.24-.1 3.53.04.71.07 1.6.19 2.04.08.32.35.53.38.84.03.46-.15.95-.38 1.39zm-5.99-9.75c-.43.05-.9.36-1.22.09.22 2.27-.28 5.28-.18 7.53 1.51.04 3.76-.09 5.05-.1-.32-2.61-.02-5.02-.28-7.52-1.07 0-2.33-.12-3.37 0zm24.81 10.31c-.03.88.54 1.44-.1 2.05.14.78-.19 1.46-.18 2.32 0 .72.39 1.4.28 1.95-.06.27-.43.76-.75.83-.26.06-.51-.16-1.03-.27-.47-.11-.99-.04-1.41-.1-.7-.1-1.84-.3-2.71.1-.86-.49-1.34-.97-.94-2.14.09-.27.29-.47.38-.74.25-.76.35-1.62.56-2.33.14-.46.46-.82.47-1.2.26-.11.53-.22.75-.38.45.28.73-.08 1.12-.18.52-.13 1.47-.01 2.15-.19.4-.1.98.32 1.41.28zm-3.37 1.95c-.33.86-.66 1.7-.94 2.6.7-.07 1.05.2 1.69.19.27-.93.12-1.7.18-2.79h-.93z"/></svg>