<svg xmlns="http://www.w3.org/2000/svg" width="39" height="57" viewBox="0 0 39 57"><path fill="#282828" d="M25.38 9.73c.16.08.34.13.45.26-.32.23-.1.62-.13.92-.02.19-.13.61-.2.98-.02.15-.02.32-.05.45-.04.13-.12.1-.14.2-.04.22.01.43-.06.65-.04.14-.16.26-.2.4-.07.31.04.67-.18.91.18.4-.2.71.06.98-.4.33-.14.94-.45 1.37-.01.19.01.33.13.39a8.2 8.2 0 0 0-.58 2.95c-.4.48-.14 1.48-.58 2.02.06.68-.38 1.15-.13 1.64-.23-.11-.04.22-.2.19.06.56-.22 1.03-.25 1.57-.01.2.09.46.06.65-.02.22-.19.5-.25.72a5.58 5.58 0 0 0-.26 1.57c-.33.25-.25.54-.39 1.05-.15.6-.45 1.25-.57 1.83-.06.26 0 .52-.07.78-.08.31-.39.51-.2.85-.21.13-.23.46-.32.72-.25.8-.5 1.9-.57 2.81-.2.55-.52 1.28-.45 1.9-.11-.01-.17.04-.2.13 0 .66-.33 1.22-.26 1.89-.44.01-.31.6-.9.46-.1.09-.02.37-.12.46-.22.06-.41.15-.46.39-.7.41-1.57.67-2.25 1.11-.91.17-1.58.4-2.7.46-.5.45-.23 1.22-.58 1.7.13.9.08 2.12.51 3 .33-.06.48-.55.84-.78.08-.05.24.04.32 0 .12-.05.27-.23.45-.33.37-.21 1.3-.47 2.06-.46.07.01.16.13.26.14.06 0 .14-.1.26-.07.33.09.52.43.9.39.2.47.4.95.77 1.24.1.33.06.77.07 1.18-.06.05-.15.07-.26.06-.01.3-.3.6-.52.86-.36.42-.9.91-1.48 1.17-.79.36-1.9.13-2.9-.19-.22.27.25.75 0 1.04.1.08.39.31.2.46.24.4.56.74.84 1.11.69.21.85.65 1.8.65a7.1 7.1 0 0 0 2.83-.65c.21-.11.42-.29.64-.39.07-.04.2.03.26 0 .38-.2.65-.53 1.03-.59.1-.08.04-.31.13-.39.22 0 .22-.21.45-.2.11-.12.15-.33.26-.46.1-.09.25-.13.38-.19.82-1.12 1.71-2.14 2.32-3.47-1.33-.35-2.62-.73-3.41-1.63.06-.36-.18-.88-.39-1.18.22-.57.13-1.82.77-2.15-.07-.21 0-.15 0-.4.31-.1.55-.28.71-.52 1.51-.76 3.11.09 4.12.79.44.69.78 1.51.84 2.41.7-.45.98-1.31 1.67-1.76.73-1.46 2.05-2.32 2.51-4.05.55-.45.56-1.45.84-2.16-.2-.06-.62.13-.77.33-.77.01-1.66.2-2.51 0-.58-.14-1-.64-1.48-.72a4.79 4.79 0 0 1-.97-1.9c.6-1.43 1.4-2.68 2.64-3.46.78-.15 1.23-.24 1.87 0 .99.38 2.04.93 2.38 1.89.39.02.32-.49.45-.78.25-.57.83-1.45.64-2.42.15-.13.13-.43.13-.72-.33-.32-.87-.42-1.16-.78-.24-.05-.3.08-.51.06-.33-.38-1.22-.25-1.23-.85-.01-1.46.11-3.14.07-4.7 0-.23-.13-.31-.2-.46.24-.54.63-.93 1.23-1.11-.06-1.41.01-3.24.26-4.77.15-.98.62-1.83.45-3.07.2-.08.16-.4.32-.52.92-.59 1.96.09 2.25.91.06.5.24 1.06.26 1.7.03 1.03.02 2.2-.13 3.01.33.65-.03 1.2.13 1.89.25.22.77.18 1.16.26-.04.17.2.28.26.46.07.29-.18.56-.26.98-.28 1.44.22 4.09-.13 5.23-.4.41-1 .24-1.29.72.25 3.3-1.08 5.44-2.32 7.45.1.95-.23 2-.25 2.87-.12.08-.14.26-.26.33-.07 1.04-.72 1.49-.97 2.35-.08.07-.23.07-.32.14-.8 1.6-2.08 2.72-3.02 4.18-.2.08-.28.28-.52.32-.01.25-.24.28-.25.53-.47.15-.84.41-1.1.78-.24-.03-.41.02-.51.13-1.9 3.16-3.8 6.3-7.4 7.71-.55.14-1.06.18-1.74.33-.4.09-.96.19-1.68.13-.9-.08-1.7-.58-2.44-.91-.03-.24-.27-.26-.39-.4-.38-.42-.56-.98-.96-1.37-.25-1.26-.51-2.13-.26-3.53-.23-.28-.37-.63-.52-.98-.16-.38-.18-.74-.32-1.11-.02-.07-.17-.11-.2-.19a7.37 7.37 0 0 1 .33-4.06c-.25-.21-.52-.23-.9-.19-.98-.34-2.05-.58-3.02-.92-.25-.66-1.03-.79-1.55-1.17.02-1.98-.44-3.18-.7-5.04-.09-.55 0-1.13-.26-1.63.15-.37-.13-.88-.2-1.31-.22-1.45-.24-3.04-.51-4.44-.03-.17-.16-.25-.2-.39-.05-.22.09-.47.07-.72-.06-.88-.37-1.84-.45-2.75-.02-.18.02-.35 0-.52-.08-.54-.27-1.06-.39-1.63-.26-1.24-.37-2.61-.51-3.92-.1-.97-.2-2.04-.58-2.75.4-.77-.18-1.17-.45-1.9-.12-.32-.12-.71-.26-1.17-.06-.21-.25-.72-.26-1.11 0-.09.08-.26.07-.33-.02-.13-.13-.25-.13-.39-.08-1.88.5-3.23 1.28-4.9.6-.77 1.28-1.45 1.8-2.29.51-.25.82-.7 1.17-1.11.36-.11.63-.32.77-.66.4-.12.73-.3.9-.65A2.3 2.3 0 0 0 8.07.84c.1.04.33-.08.32.07C9.44.34 10.8.31 12 .19c.13.07.23.16.39.19.46-.19 1.1-.27 1.74-.32a7.2 7.2 0 0 1 2.5.13c.34.09.61.34.97.46.27.08.59.03.84.13.13.05.46.37.64.45.3.13.63.14.9.26.3.13.5.42.84.33-.05.26.32.17.45.33.21.23.76.41 1.03.65.43.38.6.97 1.1 1.24-.02.37.33.5.5.72.06.06.04.22.08.26.12.18.45.63.57.92.1.22.1.53.2.78.1.24.31.43.38.66.15.45.06.96.39 1.3-.24.38-.1.68-.13 1.05zM14.5 2.21c-.26 1.26-.08 2.01-.19 3.07.35.18.78.07 1.16.14.18.03.34.17.52.19.15.02.34-.07.51-.06.15 0 .36.11.58.13.18.01.37-.09.51-.07.14.02.2.13.32.13.26 0 .55-.03.78-.19a5.8 5.8 0 0 0-.65-2.03c.09-.22.11-.5.2-.72-.5-.21-.8-.63-1.55-.59a3.8 3.8 0 0 0-2.25-.58c-.05.26.1.33.06.58zM12 1.95c-.8-.3-1.89.1-2.7.33-.1 1.01-.46 2.04-.33 3.07 1.13.01 2.13-.13 3.54-.07.27-1.07.1-2.22.38-3.33-.29-.16-.52-.19-.9 0zM6.27 4.43c-.13.03-.17.15-.33.14-.18.4-.57.59-.77.98.55-.27 1.43-.12 2-.2.03-.48.42-1.42.32-2.03-.44.34-.9.67-1.22 1.11zm14.28 1.38c.41.24 1.33.19 1.68.13-.02-.4-.23-.6-.52-.72v-.33c-.28-.12-.45-.37-.58-.65-.56-.08-.67-.62-1.22-.72.13.85.58 1.37.64 2.29zM8.65 7.05c-.04 1.11-.22 2.14-.2 3.07.89-.02 2.6-.01 3.93.07.07-.9.16-2.08.13-3.27-1.54.05-2.65-.09-3.86.13zm-4.7 0a7.03 7.03 0 0 0-1.03 2.68 34 34 0 0 1 3.86.33c0-.9.27-2.3.2-3.07-1.25-.11-1.95.42-3.03.06zm10.1 3.2c1.59-.02 3.33.47 4.83.2.03-1.14.18-2.03.2-3.01-1.52.05-3.42-.22-4.83-.45-.02 1.32-.13 2.07-.2 3.26zm6.82-2.61c-.06 0-.07.05-.12.06.04.95-.17 1.9-.2 2.75.5.45 1.4.3 2.13.26.3.16.48.43.7.65a5.9 5.9 0 0 0-.06-3.4c-.88-.13-1.7-.36-2.44-.32zM3.43 13.78c.4-.16.85-.23 1.3-.19.32.03.69.27 1.02.26.1-.01.21-.14.32-.13.2.01.44.27.65.06-.02-.83-.03-1.56 0-2.16-1.27-.37-2.6-.06-3.8-.45-.07.67.24 1.87.51 2.61zm4.96-2.16c-.09.58-.06 1.46-.06 2.42 1.3.2 2.6.27 3.73.33.12-1.03.25-1.84.2-2.68-1.45.01-2.32-.11-3.87-.07zm5.66.14c-.12.98-.27 1.9-.19 2.68 1.6-.01 2.95-.13 4.5-.2.24-.65.22-1.39.26-2.09-1.59-.17-3-.16-4.57-.39zm7.4.65c-.3-.25-.7-.03-1.15-.07.02.58-.24 1.19-.13 1.64.5.05.7-.22 1.22-.13.2.27.28.67.58.85a5.75 5.75 0 0 0 1.1-2.62c-.42.07-1.12.26-1.61.33zM6.6 15.48c-.76.18-1.73-.24-2.19-.19-.05.01-.08.05-.07.12.14.24.34.41.58.53-.18.42.56.43.58.85h.33c.11.37.76.73 1.22.72a6.38 6.38 0 0 1-.2-1.83c-.08-.07-.19-.11-.25-.2zm1.93.33c-.07.94.2 1.54.32 2.29.7.26 1.37.43 2.19.32.32.15.7.23 1.03.07-.13-1 .15-1.68-.06-2.49-1.06-.07-2.34-.26-3.48-.19zm11.45.13c-.2.24-.1.53-.19.78.39-.19.77-.39.97-.78-.17 0-.14-.21-.32-.2-.04.19-.31.12-.46.2zm-6.24 2.61c1.34.18 2.12-.3 3.54-.39.13-.34.78-.17.9-.52 0-.23-.24-.24-.38-.33.2-.44.2-.69.38-1.18-.76-.28-1.7-.01-2.12-.06-.69-.09-1.3.08-1.93.06-.2.05-.13-.18-.32-.13a29.5 29.5 0 0 0-.07 2.55zm20.98 3.01c.26.03.2.03.45 0-.28-1.74-.05-3.81-.06-5.36 0-.08-.02-.16-.13-.13-.32 1.9-.63 3.58-.26 5.49zm-11.9-5.03c.1 0 .16-.05.19-.14-.11 0-.17.06-.2.14zm-5.22 4.31c.17.12.56.04.65-.13-.15-.21-.62-.15-.65.13zm-9.14.13c.17.01.32.01.33-.13-.16-.01-.32-.01-.33.13zM21.58 23c.35-.5.34-1.36.52-2.03-.02-.05-.06-.08-.13-.06-.26.3-.7.43-.97.71-.31-.1-.7.3-.96.46-.78-.03-1.65.69-2.58.53-.34.24-.85.18-1.15.26-.15.03-.29.18-.39.19 0 0-.27-.13-.39-.13-.4.01-.84.2-1.22.2-.3 0-.6-.13-.9-.13-.78-.01-2.1.37-2.83-.07-.15 0-.2.11-.39.07-.14-.08-.32-.11-.45-.2-.01.09-.14.07-.2.13-.76-.5-1.9-.3-2.76-.59-.22-.07-.41-.3-.64-.39-.2-.08-.44-.04-.65-.13-.27-.12-.48-.51-.83-.39.34 2.37.65 3.8.9 5.95.55.18 1.25.4 1.8.39.1.1.29.14.38.26 1.01-.03 1.9.46 2.7.06-.1-.5.13-1.06-.18-1.37.72-1.24 2.6-.86 4.12-.91.4.18.61.55.96.78-.21.04-.1.25-.06.39-.26.1-.28.88-.07 1.05.24-.21.75.02 1.16-.07.2-.04.25-.25.45-.19 1.21 0 2.87-.36 3.8-1.05H21c.09-1.36.6-2.39.58-3.72zm-6.37-1.77c.28.18.56-.11.78-.19-.42.01-.63-.13-.78.19zm-2.76.26c.17-.08.49-.02.57-.19-.15-.23-.56-.1-.57.19zm23.49 2.16c-.6.3-1.25.56-1.8.92-.12.07-.42-.04-.4.32.52.08.7-.39 1.3-.39.23-.42 1.1-.19 1.15-.79-.08-.01-.12-.09-.25-.06zm-.65 2.22c.52-.09.46.41.77.53.2-.22.15-.8-.06-.98-.23.15-.63.14-.7.45zm-1.6.59c.25.02.46 0 .5-.2-.22.01-.44.03-.5.2zm-21.57 3.86c.35.06.7.06 1.23.06.15-1.09.08-1.93.06-3.14-.55.04-.89-.14-1.35-.19 0 1.01-.03 2.15.06 3.27zm4-.79c-.2-.25-.86 0-1.04-.26-.03.97.01 1.23.07 2.22-.3.62-.87.38-1.48.4-.3 0-.65.15-.97.13-.26-.03-.45-.24-.7-.13-.22-.01-.23.21-.46.19-.25-.22-.77-.18-.96-.46a3.67 3.67 0 0 1-.13-1.83c-.66.11-1.05-.27-1.6-.06-.21-.27-.51-.13-.78-.13-.74 0-1.52-.6-2.25-.46 0 .55.1 1.08.19 1.63.07.42.02.69.06 1.12.07.64.35 1.28.45 1.96.1.67-.02 1.3.26 1.89.2.05.12-.18.32-.13.26.62 1.13.33 1.55.85.58.06 1.1.2 1.54.39.15 0 .2-.11.39-.06.91.32 2.74.18 3.67.06.87-.11 1.76-.25 2.64-.46.23-.3.56-.11.77-.39.27.1.62.11.83.26.65-2.46 1.2-4.97 2-7.58-1.2.3-3.01.4-4.38.85zm12.48 6.08c.12.45 1.15.89 1.6.92.18 0 .42-.1.71-.14.54-.06.6-.06.97-.32.14-.1.33-.14.39-.2.28-.31.19-1.13 0-1.5-.26-.49-1.02-.76-1.36-1.11-.44.12-1.03-.1-1.41.32-.33.79-1.14 1.13-.9 2.03zM8.26 38.23c.28.03.23-.36-.06-.27-.02.13.07.15.06.27zm7.66.06c.12.27.18.6.26.92.35-.04.2-.91 0-.98-.07.1-.18.14-.26.06zm-5.73.2c.23.35.27.9.58 1.17.2-.45-.06-.67-.13-1.17-.23.05-.34-.12-.45 0zm4.12 2.15c.33.06.17.65.39.66.1-.4-.23-.56 0-.98-.37-.41-.27-1.21-.26-1.77h-.32c.01.8.3 1.33.19 2.09zm-1.74-1.24c.09-.18-.25-.22-.06-.13 0 .09.01.25.06.13zm3.67.39c.29 0 .23-.51 0-.52-.15.15.01.32 0 .52zm-7.14 0c-.26-.23-.15.21 0 0zm2 .72c-.1-.26-.03-.68-.33-.72.12.27.05.52.32.72zm-1.8.13c.1-.18-.13-.45-.26-.59.05.24.09.48.25.59zm15.95 3.47c-.33-.25-.81-.18-1.16-.53-.7-.08-1.15.39-1.28.92-.38 1.45 1.2 2.46 2.9 2.02.08-1.08.18-1.93-.46-2.41zm-8.62 4.05c-1.17-.25-2.36.48-2.64 1.37.34.52 1.15.58 2.06.52.12-.17.3-.3.51-.39.04-.33.35-.38.45-.65.07-.37-.2-.81-.38-.85z"/></svg>