<svg xmlns="http://www.w3.org/2000/svg" width="43" height="53" viewBox="0 0 43 53"><path fill="#282828" d="M36.87 6.73c.47 1.45 1.26 2.77.74 4.26-.31.91-1.3 1.41-1.65 2.34-.92.12-1.45.78-2.74.67a4.3 4.3 0 0 1-1.49-.5c-1.18-.67-1.84-2.46-1.74-3.93.12-1.76 1.12-2.87 2.82-3.42.34-.12 1.2-.51 1.41-.42.35.15.98.04 1.16.08.58.15.94.66 1.49.92zm1.08 16.13c.35.06.72.1 1.07.17.46 1.24 1.21 2.18 1.58 3.51-.04.28.25.25.33.41-.24.86.32 2 .17 2.76 0 .25.21.29.24.5-.08.72-.04 1.51-.08 2.18-.01.23-.07.39-.08.58-.03.58.22 1.13.16 1.67-.01.18-.15.33-.16.5-.02.16.11.27.08.42-.05.25-.25.46-.33.75-.04.15.05.36 0 .51-.05.15-.27.19-.33.33s.05.43 0 .59c-.06.18-.31.23-.33.33-.06.21.06.4 0 .58-.08.23-.31.5-.42.76-.39.9-.74 2.27-1.41 2.92-.4 1.27-1.22 2.11-1.99 3.01v.42c-1.36 1.22-2.37 2.79-3.98 3.76-.12.1-.12.32-.24.42-.82.29-1.4.82-2.16 1.17-.91.21-1.76.63-2.74.83-.96.2-1.94.26-2.9.5-.2.06-.38.22-.58.25-.3.06-.65-.02-.99 0-.52.04-1.48.21-2.32.26-.93.05-2.23-.17-3.24-.26-1.16-.09-2.51-.11-3.48-.33-.38-.09-1.13-.1-1.74-.25-.21-.05-.44-.25-.66-.33-.27-.1-.52-.08-.75-.17-.14-.06-.2-.27-.33-.34-.27-.13-.63-.11-.91-.25-.71-.35-1.43-1.03-2.24-1.25.09-.31-.31-.13-.25-.42-1.03-.33-1.44-1.27-2.4-1.67-.21-.59-.74-.99-1.08-1.5-.17-.26-.24-.56-.41-.84-.15-.23-.45-.42-.58-.67-.13-.22-.12-.49-.25-.75-.11-.22-.38-.44-.5-.67-.21-.4-.2-.64-.33-1.17-.06-.25-.25-.39-.33-.67-.12-.38-.08-.85-.17-1.25-.05-.21-.22-.39-.25-.59-.06-.41.09-.85 0-1.25-.11-.5-.41-.88-.41-1.42-.01-.21.14-.35.16-.59.09-.94-.27-2.06.09-3-.54-2.69.96-5.38 1.41-8.28.64-.85 1.12-1.95 1.65-3.09l.25-.5c.2-.35.28-.44.5-.92.34-.74.91-1.26 1.49-1.84.38-1.18 1.34-1.77 1.74-2.92.2-.28.66-.28.67-.76.45-.03.55-.44.99-.5.3-.53.94-.73 1.24-1.25 1.08-.35 1.6-1.55 2.66-2.01.77-.33 1.66-.27 2.32-.92.55 0 .98-.12 1.16-.5.98.3 1.94-.27 2.98-.33.19-.01.4.1.58.08.77-.06 1.32-.15 2.32-.08.55.04 1.05.26 1.75.33.1-.95.65-1.45.74-2.42.58-.5.96-1.21 1.24-2.01.84-.88 1.64-1.8 2.41-2.75.59-.18.93-.76 1.41-1.09.49-.34 1.13-.38 1.57-.84.9-.12 1.18-.52 2.07-.33a6.85 6.85 0 0 1 4.81.84c.48.47 1.19.7 1.66 1.16.08.09.05.3.17.42.22.24.68.53.91.84a9.85 9.85 0 0 1 1.57 4.43c.21 3.59-.99 7.96-2.48 10.78a2.18 2.18 0 0 1-.83 1.5c-.05.29-.22.45-.25.76-.55.45-.84 1.15-1.24 1.75zm-4.4 1.25c.69-.65 1.49-1.3 2.07-1.92 1.05-1.11 1.63-2.6 2.58-3.76-.07-.52.32-.56.24-1.09.38-.5.7-1.07.75-1.92.03-.16.32-.06.25-.33.24-.93.17-1.37.58-2.18-.05-.97.73-2.46.33-3.51.34-.42.07-.97 0-1.42-.04-.23.04-.48 0-.67a7.38 7.38 0 0 0-4.31-4.84c-.71-.24-1.75.09-2.65-.09-.52.34-1.18.45-1.75.76-.47.26-.78.67-1.32.83a5.81 5.81 0 0 1-1.66 1.76 73.3 73.3 0 0 0-1.91 2.92c-.41 1.67-.88 3.58-.74 5.69.01.11.14.26.16.41.04.18-.1.43-.08.59.06.37.39.75.25 1.17.28.5.33.88.5 1.59.62.93 1.06 2.05 1.57 3.09.26.16.44.4.67.58.52 1.65 2.04 2.29 3.15 3.35.57-.37.86-.56 1.32-1.01zm-11.52-12.7c-1.75 0-3.08.04-4.64.59 1.15 1.19 2.65 2.85 2.07 5.01-.4.5-.87 1.03-.83 1.75.01.28.23.36.33.67.07.21-.03.5.09.76.15.32.32.33.49.58-.13.27.02.32 0 .67.22.61.67.96.91 1.42.05.09-.03.24 0 .33.06.16.27.33.34.51.42 1.03.79 2.43 1.07 3.34.37 1.19.65 2.61.58 4.09-.24.26-.41.58-.83.67.01.59-.37.79-.66 1.09-.03.86-1.11 2.22-1.74 2.34-2.07.37-1.43-2.92-2.15-4.35-.93.19-2.28.52-2.82-.25-.16-.41-.03-.65.16-.92-.18-.23-.4-.42-.74-.5v-.33c-.94-.5-1.18-.88-2.24-.84-.12.01-.83.12-1 .17-.24.08-.45.33-.66.42-1.23.53-2.04.15-2.32-.92.85-1.37 1.51-2.93 2.4-4.26-1.77-.03-2.52-1.08-3.98-1.43a14.92 14.92 0 0 1-1.65 3.18c-.08.9-.61 1.33-.58 2.34a13.36 13.36 0 0 0-1.08 4.1c-.18 2.68-.22 5.38.41 7.52-.18.01-.03.35-.08.5.69 2.42 1.67 4.56 3.23 6.1 1.02-1.34 2.4-3.75 1.33-5.68.15-.25.14-.64.25-.92 1.25-.9 2.61-.06 4.14.08.59.05 1.17-.11 1.5-.17.24-.04.56.05.74 0 .99-.29 1.02-1.64 2.07-1.67 1.28-.03 3.07.46 3.24 1.34.04.22-.11 1.02-.25 1.42-.1.26-.48.59-.58.75-.23.38-.08.6-.5.67-.32.77-.68 1.53-.5 2.26a12.1 12.1 0 0 0 1.66 3.51c.19.84.61 1.44 1.16 1.92.14.56.22.91.25 1.42 1.68.05 3.13-.26 4.48-.42-.28-1.44-1.5-1.94-1.58-3.59-.21-.3-.48-.7-.41-1.09.14-.81 1.63-.86 2.23-1 .3-.07.58-.32.92-.42.62-.18 1.31-.32 1.74-.42.14-.03.36.03.5 0 .45-.1 1.04-.46 1.65-.33.17.03.31.32.42.17.6 1.09 1.13 2.25 1.74 3.34.31-.41.72-.65 1.08-1 .37-.38.63-.94.91-1.26.65-.74 1.22-1.56 1.66-2.42a6.57 6.57 0 0 1-1.41-.84c-.08-.06-.16-.18-.25-.25-.58-.41-1.92-.87-2.32-1.34-.04-.03-.21.03-.25 0-.3-.17-.43-.46-.66-.66-.68-.58-1.2-.73-1.08-1.59.9-.87 1.03-2.88.74-4.26.31-.19.46-.49.75-.67.07-.04.24.04.33 0 .5-.24.98-.84 1.49-1.09.26-.12.66-.27.92-.33.3-.08.72.02 1.07-.09.21-.06.31-.26.58-.42.22-.11.54-.13.75-.25a4.5 4.5 0 0 0 1.66-1.83l.41-.76c-.1-.56-.16-.64-.25-1.17-.69-.72-.73-2.1-1.49-2.75-.79.64-1.46 1.42-2.32 2-.2.1.17.32-.08.42-.67-.07-1.09.78-1.74.92-.6.13-1.39-.07-1.58-.84-.31.06-.35-.14-.66-.08-.28-.4-.79-.4-1.16-.67-.24-.17-.48-.56-.75-.83-.52-.54-1.13-1.12-1.49-1.68-.12-.19-.12-.46-.25-.67-.16-.24-.44-.43-.58-.66-.45-.78-.8-1.68-1.16-2.51-.2-.46-.41-.88-.58-1.34-.17-.46-.21-1.03-.58-1.42.06-1.33-.46-2.91-.17-4.51-.42-.41-1.29-.37-1.82-.67zm-8.54 2.01c-1.07.92-2.21 1.77-3.31 2.67-.03.36-.39.42-.59.67-.58.76-.98 1.73-1.74 2.34-.02.39-.19.64-.16 1.09-.27-.08-.26.12-.33.25.35.12.53.4.91.5.47-.47-.05-1 .16-1.76.84-.69 1.38-1.67 2.41-2.17.1-.21-.04-.26.08-.33 1.41-.62 2.1-1.96 3.73-2.34.26-.42.93-.41 1.33-.67-.58-1.17-1.61-.52-2.49-.25zm3.4 1.5a9.08 9.08 0 0 0-3.15 2.26c-.47.11-.75.41-1 .75.4-.07.37-.04.75-.08a2.66 2.66 0 0 1 1.91-1.17c.45-.5 1.17-.72 1.99-.84-.01-.55-.25-.86-.5-1.17v.25zm-.75 3.34c-.67.36-1.35.77-1.99 1.09-.46.23-.62.43-.99.67-.66.42-1.24.78-1.99 1-.07.28-.61.4-.42.67 1.16 0 1.82-.51 2.41-1.09 1.22-.33 2.03-1.07 3.15-1.5-.05-.35.43-.95-.08-1-.01.09-.02.13-.09.16zm-.08 3.18c-1.52.44-2.42 1.51-3.89 2.01-.13.45-.7.9-.59 1.33 1.37-.47 2.2-1.05 3.82-1.33.4-.6 1.31-.69 1.99-1.01-.01-.69-.14-1.25-.5-1.59-.27.2-.6.35-.83.59zm1.99 2.51c-.59.6-1.74.63-2.32 1.25-.83.31-1.75.52-2.4 1-.13-.13-.57-.15-.5.17.45.31.72-.27 1.08-.33 1.45-.32 2.5-1.05 3.89-1.42.31-.06.76.03.83-.26.14-.14-.18-.54-.58-.41zm-7.3 2.34c.27.02.36-.15.67-.09-.1-.29-.31-.46-.42-.75 0 .34-.42.58-.25.84zm6.39.5c-.31.38-1.09.3-1.33.75.8.12 1.7.47 2.32 1 .48-.19.8-.26 1.41-.16.1.18.22.34.17.66-.16.29-.51.38-.75.59.19.39.32.85.42 1.34.36-.2.53-.58.91-.76-.29-1.14-.36-2.89-1-4.09-1-.06-1.18.7-2.15.67zm22.05 4.76c-.22.03.08-.47-.25-.33-.62.22-1.2.78-1.82 1.17-.41.25-.75.37-.92.75-.47-.25-1.08.33-1.57.08-.48.44-1.08.75-1.49 1.26-.01.61-.23 1.33-.08 1.83-.29.44-.52 1.03-.34 1.51.52.29 1.03.58 1.58.83v-.58a8.01 8.01 0 0 1 2.15-.75c.13-.16.27-.3.42-.42.58 0 .64-.52 1.24-.5-.08-.5.35-.48.66-.59-.06-.48.32-.52.25-1-.43-.02-.48.35-.74.5-1.15.35-1.88 1.11-2.99 1.51-.35 1.22-2.16.72-2.23-.17-.04-.37.31-.77.57-1 .39-.34 1.03-.48 1.25-.92 1.03-.28 1.58-1.02 2.82-1.09.28-.39.75-.57 1.32-.67a1.5 1.5 0 0 0-.16-.92c.14-.14.33-.22.33-.5zm-3.48 7.94c.29.46.86.64 1.32.92.07-.54.75-.92.5-1.5-.54.11-1.05.57-1.82.58zM9.84 41.16c.08.56-.03.86 0 1.17.77-.2 1.21-.73 1.83-1.08-.69.02-1.24-.5-1.83-.09zm3.9 1.42c-.96.34-1.49.76-2.16 1.26 1.31-.52 2.45-1.22 3.82-1.68.16-.25.13-.69.41-.83-.01-.1-.02-.2-.16-.17-.57.54-1.47.75-1.91 1.42zm1.57 1.67c-.85.22-1.75.84-2.32 1.17-.4.24-1.1.54-1.65.76-.84.32-1.6.59-2.41.58-.25-.11-.41-.31-.74-.33-.91.77-.05 1.28.58 1.59.28-.58.86-.86 1.74-.84.55-.33 1.17-.46 1.82-.67.53-.17.94-.39 1.49-.42.42-.44 1.17-.55 1.83-.75-.06-.42-.32-.63-.34-1.09zm-6.21.59c.19.11.7-.04.83-.25-.38.08-.4-.21-.75-.17.03.2-.15.18-.08.42zm20.06 1.59c-.69.56-1.74.75-2.24 1.5-.12.13-.47.03-.41.33 1.4-.19 2.32-.88 3.39-1.41-.11-.28-.56-.21-.74-.42zm-13.27.83c-.31.01-.23.1-.49 0-1.44.91-3.04 1.16-4.65 1.92.99.71 2.79-.59 3.57-.83.93-.29 1.54-.44 2.4-.59-.04-.37-.25-.57-.41-.83-.07.18-.29.21-.42.33zm14.34 1.17h.17c.09-.12.09-.2-.08-.25-.01.11-.11.12-.09.25zm-15 1.84c.9.1 2.19.51 2.74-.25-.15-.33-.23-.72-.58-.84-.5.59-1.71.46-2.16 1.09z"/></svg>