<svg xmlns="http://www.w3.org/2000/svg" width="13" height="13" viewBox="0 0 13 13"><path fill="#b49fcd" d="M12.51.5c-.33-.3-.72-.5-1.18-.5H1.67C1.21 0 .82.2.49.5.16.8 0 1.2 0 1.7v9.6c0 .5.16.9.49 1.2.33.3.72.5 1.18.5h9.66c.46 0 .85-.2 1.18-.5.33-.3.49-.7.49-1.2V1.7c0-.5-.16-.9-.49-1.2zM4.67 4.7c.51-.5 1.12-.8 1.84-.8s1.34.3 1.85.8.76 1.1.76 1.8-.25 1.3-.76 1.8-1.13.7-1.85.7c-.72 0-1.33-.2-1.84-.7-.51-.5-.77-1.1-.77-1.8s.26-1.3.77-1.8zm6.71 6.7c-.11.1-.23.1-.37.1H1.96c-.14 0-.27 0-.37-.1a.72.72 0 0 1-.14-.4V5.5h1.19a3.82 3.82 0 0 0 1.02 3.9 4.2 4.2 0 0 0 2.85 1.1c.73 0 1.41-.1 2.03-.5.62-.3 1.11-.8 1.47-1.4a3.9 3.9 0 0 0 .38-3.1h1.14V11c0 .1-.05.3-.15.4zm.15-8c0 .2-.06.3-.17.4-.11.2-.25.2-.42.2H9.47c-.16 0-.3 0-.41-.2-.12-.1-.17-.2-.17-.4V2c0-.1.05-.3.17-.4.11-.1.25-.2.41-.2h1.47c.17 0 .31.1.42.2.11.1.17.3.17.4z"/></svg>