<svg xmlns="http://www.w3.org/2000/svg" width="16" height="16" viewBox="0 0 16 16"><path d="M15.28.77c-.4-.4-.87-.59-1.41-.59H2.24c-.55 0-1.02.2-1.42.6-.39.38-.59.85-.59 1.4v11.63c0 .55.2 1.02.6 1.41.39.4.86.6 1.4.6h11.64c.54 0 1.02-.2 1.41-.6.4-.39.59-.86.59-1.41V2.19c0-.56-.2-1.03-.59-1.42zM5.85 5.81c.61-.59 1.35-.89 2.21-.89.87 0 1.61.3 2.23.9.61.59.92 1.3.92 2.15 0 .84-.3 1.56-.92 2.15-.62.6-1.36.9-2.23.9-.86 0-1.6-.3-2.21-.9a2.89 2.89 0 0 1-.92-2.15c0-.84.3-1.56.92-2.16zm8.07 8.03a.6.6 0 0 1-.44.17H2.6a.6.6 0 0 1-.45-.17.6.6 0 0 1-.18-.45V6.8h1.44c-.14.43-.2.88-.2 1.34 0 1.3.47 2.42 1.42 3.34.95.91 2.1 1.37 3.43 1.37a4.9 4.9 0 0 0 4.22-2.34 4.5 4.5 0 0 0 .44-3.7h1.38v6.6a.6.6 0 0 1-.18.44zm.18-9.54c0 .2-.07.37-.2.5-.14.14-.3.2-.5.2h-1.78a.68.68 0 0 1-.5-.2.68.68 0 0 1-.2-.5V2.62c0-.19.07-.35.2-.49.14-.14.3-.2.5-.2h1.78c.2 0 .36.06.5.2.13.14.2.3.2.5z"/></svg>