<svg xmlns="http://www.w3.org/2000/svg" width="38" height="38" viewBox="0 0 38 38"><defs><clipPath id="a"><path fill="#fff" d="M756 4350.1a7.11 7.11 0 0 0-13.66-2.72 17.97 17.97 0 0 0-10.68 0 7.09 7.09 0 0 0-13.66 2.72 7.1 7.1 0 0 0 3.3 6 16.95 16.95 0 0 0 3.3 19.86A17.58 17.58 0 0 0 737 4381c4.68 0 9.08-1.79 12.4-5.04a16.95 16.95 0 0 0 3.3-19.86 7.1 7.1 0 0 0 3.3-6zm-7.1-5.98a5.99 5.99 0 0 1 3.25 11c-.31-.53-.65-1.04-1.03-1.54a4.13 4.13 0 1 0-6.03-5.08c-.55-.28-1.12-.53-1.7-.75a5.96 5.96 0 0 1 5.5-3.63zm1.51 8.58a17.7 17.7 0 0 0-4.34-3.65 3.01 3.01 0 1 1 4.34 3.65zm-31.3-2.6a5.99 5.99 0 0 1 11.5-2.35c-.59.22-1.15.47-1.7.75a4.13 4.13 0 1 0-6.03 5.08c-.38.5-.72 1.01-1.04 1.54a5.98 5.98 0 0 1-2.73-5.02zm4.48 2.6a3.02 3.02 0 1 1 4.33-3.65 17.69 17.69 0 0 0-4.33 3.65zm25.02 22.46a16.44 16.44 0 0 1-11.61 4.72c-4.39 0-8.51-1.67-11.61-4.72a15.85 15.85 0 0 1 0-22.76 16.48 16.48 0 0 1 11.61-4.72c4.39 0 8.51 1.68 11.61 4.72a15.85 15.85 0 0 1 0 22.76zm-10.98-8.3a.56.56 0 0 0 1.1-.1c0-.67-.72-1.15-1.73-1.15-.3 0-.56.25-.56.55 0 .31.25.56.56.56.33 0 .55.09.63.14zm4.72 3.51c-.3 0-.55.25-.55.55a2.12 2.12 0 0 1-4.24 0v-.66c2.01-.24 3.57-1.72 3.57-3.5 0-1.95-1.85-3.53-4.13-3.53s-4.13 1.58-4.13 3.53c0 1.78 1.56 3.26 3.57 3.5v.66a2.12 2.12 0 0 1-4.24 0c0-.3-.25-.55-.55-.55-.31 0-.56.25-.56.55a3.24 3.24 0 0 0 5.91 1.82 3.24 3.24 0 0 0 5.91-1.82c0-.3-.25-.55-.56-.55zm-8.36-3.61c0-1.33 1.35-2.42 3.01-2.42 1.66 0 3.01 1.09 3.01 2.42 0 1.33-1.35 2.42-3.01 2.42-1.66 0-3.01-1.09-3.01-2.42zm13.09-7.14a3.53 3.53 0 1 0-6.9 1.09 11.11 11.11 0 0 0-6.37 0 3.53 3.53 0 1 0-4.16 2.35 8.33 8.33 0 0 0-2.73 6.08c0 4.9 4.52 8.88 10.08 8.88 5.56 0 10.08-3.98 10.08-8.88a8.33 8.33 0 0 0-2.74-6.08 3.54 3.54 0 0 0 2.74-3.44zm-16.62 2.42a2.42 2.42 0 0 1 0-4.84 2.42 2.42 0 0 1 2.41 2.42c0 .67-.27 1.29-.76 1.75l-.3.15-.7.41c-.24.07-.45.11-.65.11zm15.5 7.1c0 4.28-4.02 7.77-8.96 7.77-4.94 0-8.96-3.49-8.96-7.77 0-2.53 1.4-4.77 3.55-6.19l.07-.04a10.07 10.07 0 0 1 5.34-1.54c1.61 0 3.12.37 4.43 1.01.28.15.58.32.9.53l.08.04a7.46 7.46 0 0 1 3.55 6.19zm-2.42-7.1c-.2 0-.41-.04-.65-.11a14.07 14.07 0 0 0-1-.56 2.36 2.36 0 0 1-.76-1.75 2.42 2.42 0 0 1 2.41-2.42 2.42 2.42 0 0 1 0 4.84zm-13.04-3.54c-.6 0-1.08.47-1.08 1.05 0 .57.48 1.04 1.08 1.04.6 0 1.08-.47 1.08-1.04 0-.58-.49-1.05-1.08-1.05zm13.04 0c-.6 0-1.07.47-1.07 1.05 0 .57.48 1.04 1.07 1.04.6 0 1.08-.47 1.08-1.04 0-.58-.48-1.05-1.08-1.05z"/></clipPath></defs><path fill="none" stroke="#fff" stroke-miterlimit="50" stroke-width="4" d="M756 4350.1a7.11 7.11 0 0 0-13.66-2.72 17.97 17.97 0 0 0-10.68 0 7.09 7.09 0 0 0-13.66 2.72 7.1 7.1 0 0 0 3.3 6 16.95 16.95 0 0 0 3.3 19.86A17.58 17.58 0 0 0 737 4381c4.68 0 9.08-1.79 12.4-5.04a16.95 16.95 0 0 0 3.3-19.86 7.1 7.1 0 0 0 3.3-6zm-7.1-5.98a5.99 5.99 0 0 1 3.25 11c-.31-.53-.65-1.04-1.03-1.54a4.13 4.13 0 1 0-6.03-5.08c-.55-.28-1.12-.53-1.7-.75a5.96 5.96 0 0 1 5.5-3.63zm1.51 8.58a17.7 17.7 0 0 0-4.34-3.65 3.01 3.01 0 1 1 4.34 3.65zm-31.3-2.6a5.99 5.99 0 0 1 11.5-2.35c-.59.22-1.15.47-1.7.75a4.13 4.13 0 1 0-6.03 5.08c-.38.5-.72 1.01-1.04 1.54a5.98 5.98 0 0 1-2.73-5.02zm4.48 2.6a3.02 3.02 0 1 1 4.33-3.65 17.69 17.69 0 0 0-4.33 3.65zm25.02 22.46a16.44 16.44 0 0 1-11.61 4.72c-4.39 0-8.51-1.67-11.61-4.72a15.85 15.85 0 0 1 0-22.76 16.48 16.48 0 0 1 11.61-4.72c4.39 0 8.51 1.68 11.61 4.72a15.85 15.85 0 0 1 0 22.76zm-10.98-8.3a.56.56 0 0 0 1.1-.1c0-.67-.72-1.15-1.73-1.15-.3 0-.56.25-.56.55 0 .31.25.56.56.56.33 0 .55.09.63.14zm4.72 3.51c-.3 0-.55.25-.55.55a2.12 2.12 0 0 1-4.24 0v-.66c2.01-.24 3.57-1.72 3.57-3.5 0-1.95-1.85-3.53-4.13-3.53s-4.13 1.58-4.13 3.53c0 1.78 1.56 3.26 3.57 3.5v.66a2.12 2.12 0 0 1-4.24 0c0-.3-.25-.55-.55-.55-.31 0-.56.25-.56.55a3.24 3.24 0 0 0 5.91 1.82 3.24 3.24 0 0 0 5.91-1.82c0-.3-.25-.55-.56-.55zm-8.36-3.61c0-1.33 1.35-2.42 3.01-2.42 1.66 0 3.01 1.09 3.01 2.42 0 1.33-1.35 2.42-3.01 2.42-1.66 0-3.01-1.09-3.01-2.42zm13.09-7.14a3.53 3.53 0 1 0-6.9 1.09 11.11 11.11 0 0 0-6.37 0 3.53 3.53 0 1 0-4.16 2.35 8.33 8.33 0 0 0-2.73 6.08c0 4.9 4.52 8.88 10.08 8.88 5.56 0 10.08-3.98 10.08-8.88a8.33 8.33 0 0 0-2.74-6.08 3.54 3.54 0 0 0 2.74-3.44zm-16.62 2.42a2.42 2.42 0 0 1 0-4.84 2.42 2.42 0 0 1 2.41 2.42c0 .67-.27 1.29-.76 1.75l-.3.15-.7.41c-.24.07-.45.11-.65.11zm15.5 7.1c0 4.28-4.02 7.77-8.96 7.77-4.94 0-8.96-3.49-8.96-7.77 0-2.53 1.4-4.77 3.55-6.19l.07-.04a10.07 10.07 0 0 1 5.34-1.54c1.61 0 3.12.37 4.43 1.01.28.15.58.32.9.53l.08.04a7.46 7.46 0 0 1 3.55 6.19zm-2.42-7.1c-.2 0-.41-.04-.65-.11a14.07 14.07 0 0 0-1-.56 2.36 2.36 0 0 1-.76-1.75 2.42 2.42 0 0 1 2.41-2.42 2.42 2.42 0 0 1 0 4.84zm-13.04-3.54c-.6 0-1.08.47-1.08 1.05 0 .57.48 1.04 1.08 1.04.6 0 1.08-.47 1.08-1.04 0-.58-.49-1.05-1.08-1.05zm13.04 0c-.6 0-1.07.47-1.07 1.05 0 .57.48 1.04 1.07 1.04.6 0 1.08-.47 1.08-1.04 0-.58-.48-1.05-1.08-1.05z" clip-path="url(&quot;#a&quot;)" transform="translate(-718 -4343)"/></svg>