<svg xmlns="http://www.w3.org/2000/svg" width="28" height="45" viewBox="0 0 28 45"><path fill="#fff" d="M8.69.21c.4.6.41 1.46.44 2.21a16.4 16.4 0 0 1-.25 3.42c.18.47-.08.61 0 1.05 1.57-.39 3.09-.02 4.62-.17.15-.01.33-.1.49-.11.58-.03 1.13.13 1.73.17.87.05 1.78-.04 2.58 0 .29.01.66.06 1.11.11.21.02.59.2.87.11l.06-.11c.21-.01.42.27.55 0 .21.07.33.22.49.33.57-.08.67.25 1.24.16.16.16.45.34.74.23.02.25.37.21.61.27.18.19.37.37.68.44.47.53.92.87 1.17 1.6.08.25.1.52.18.89.09.37.26.73.31 1.1.04.24-.03.52 0 .78.06.52.19 1 .19 1.54 0 .13-.07.26-.06.39.01.35.14.69.18 1.05.04.39-.04.82 0 1.21.02.17.1.33.12.5.1.76-.14 1.61-.06 2.37.01.13.12.22.12.33.08 2.56.23 5.26.19 7.73-.01.12.05.18.18.17-.24.35-.03.76 0 1.1.09.88-.09 1.75-.06 2.49.02.38.07.93.06 1.38 0 .12-.1.14-.12.27-.07.38.1.86.06 1.22-.02.21-.14.44-.18.66-.03.16.05.34-.13.44.35.45-.17.65.13 1.1-.33.13.01.53-.31.67.26.89.16 1.54.06 2.48-.01.13-.1.18-.12.28-.02.11.08.16.06.22-.01.04-.22.35-.25.5-.01.1.09.22.07.33-.11.44-.5.71-.5 1.1-.27.11-.34.39-.8.33-.25.11-.31.39-.68.39.03.25-.1.31 0 .49-.3.21-.67.12-1.04.17-.19.03-.37.15-.56.17-.27.02-.52-.07-.8-.06-.16 0-.27.09-.43.11-.37.04-.71-.12-1.05-.11-.33.01-.66.14-.98.17-1.16.08-2.29 0-3.57.11-.35.03-.69.13-1.05.16-.36.03-.75-.01-1.11.06-.82.15-1.99.05-2.9.22-.96-.14-1.6-.05-2.52-.17-.1-.01-.25.06-.25.06-.05-.01-.1-.11-.12-.11-.31-.03-.65.02-.99 0-.56-.03-1.15-.19-1.78-.17-.19-.12-.65-.3-.93-.16-.68-.44-1.61-.66-2.34-1.05a1.44 1.44 0 0 0-.61-.61c-.11-.29-.2-.6-.43-.77.04-.24-.04-.38-.19-.44.1-.38-.18-.7-.25-1.05-.01-.09.07-.19.07-.28-.02-.34-.24-.73-.25-1.05-.01-.22.12-.42.12-.66 0-.51-.2-1.06-.18-1.6.02-.98-.08-2.24-.06-3.31 0-.39.04-.81 0-1.16-.06-.48-.23-1.19.06-1.77-.23-.56.01-1.18 0-1.77-.01-.25-.12-.52-.13-.77-.03-1.27.15-2.47.25-3.53.03-.31.17-.6.19-.89.02-.34-.12-.71-.13-1.04 0-.17.23-.35 0-.5.45-1.28-.01-2.87.13-4.31.01-.1.11-.22.12-.33.01-.18-.09-.42-.06-.61.07-.52.34-1.52 0-1.93.23-.44.06-.92.12-1.38.09-.67.46-1.29.31-1.88.36-.49.29-1.2.55-1.76.12-.25.38-.4.37-.67.23.01.23-.2.37-.27.05-.26.02-.49.06-.77.03-.14.16-.25.19-.39.04-.2-.05-.42 0-.66.01-.04.12-.04.12-.11 0-.33.14-.99.25-1.44.01-.03-.09-.09-.06-.16.01-.05.11-.04.12-.11.08-.52.04-1.02.12-1.55.08-.5.4-.99.31-1.55.17-.24.2-.52.31-.77.21-.48.32-.73 1.05-.83.3-.04.94-.06 1.23-.05.36 0 .75.11 1.11.11.56-.01.94-.19 1.47 0zM5.31 1.42c-.23.33-.28.58-.37.94a4.25 4.25 0 0 0 1.72-.88 3.56 3.56 0 0 0-1.35-.06zm1.6 1.49c-.34.2-.76.31-.93.56.56-.26 1.17-.47 1.61-.83-.27-.17-.47.15-.68.27zm-2.22.83c.05.2-.15.31 0 .44.34-.14.65-.3.92-.49-.28.05-.63.17-.92.05zm2.71.39c-.3.16-.52.43-.86.61-.16.08-.39.08-.56.16-.25.13-.42.45-.86.39-.15-.08-.27-.2-.49-.22-.03.19-.16.29-.12.55 1.04-.23 2.01-.52 2.95-.83-.04-.28.22-.5-.06-.66zm-.49 2.1c.19.03.46.24.43-.11-.19-.01-.37-.01-.43.11zM4.14 7c.37.02.55-.13.92-.11-.05-.27-.22-.07-.49-.11-.03-.16-.13-.25-.31-.28-.02.19-.18.25-.12.5zm1.04-.28c.02.26.37.01.43-.05-.16 0-.35-.02-.43.05zM25.2 37.75c-.23-.38-.03-.69 0-1 .1-.84.19-1.97.25-2.53a48.35 48.35 0 0 0 .12-5.41c0-.11-.1-.12-.12-.23-.02-.1.07-.18.06-.27-.03-.43-.12-.83-.12-1.22v-2.98c-.01-.68-.11-1.34-.19-1.87v-.39c-.07-1.09-.05-2.27-.06-3.37 0-.18.04-.47 0-.66-.02-.13-.17-.25-.18-.39-.03-.29.08-.6.06-.88-.06-.68-.21-1.36-.25-1.88-.04-.55.13-1.07-.12-1.38.21-.29-.03-.65-.06-.99-.02-.17.02-.32 0-.5-.08-.5-.35-1.01-.37-1.54-.4-.37-.73-.79-1.17-1.11-.34-.06-.6-.37-.99-.22-.21-.26-1.03-.48-1.29-.33-.3-.37-.76-.29-1.36-.33-.14-.01-.29-.11-.43-.11-.11-.01-.2.1-.31.11-.11.01-.26-.06-.37-.06-1.14.01-2.09-.03-2.89-.22-.6.15-1.41.03-2.03-.05-.56.25-1.07.16-1.54.11-.51-.06-1.44.04-1.73.05-.4.02-.48.08-.74.11-.15.02-.27-.02-.37 0-.22.06-.43.26-.68.28-.27.02-.53-.12-.8-.11-.54.01-1 .36-1.54.22-.89.48-2.29.51-2.83 1.32.05.28-.18.57-.31.94-.13.39-.16.82-.24 1.27-.09.46-.31.89-.31 1.27 0 .16.16.23.18.33.03.1-.22.26 0 .33-.19.57-.09 1.46-.12 1.83-.04.52-.25 1.11 0 1.6-.25.42-.05.85-.06 1.32-.01.18-.12.33-.12.5-.02.33.14.7.12 1.05-.01.18-.12.32-.12.5-.05 1.47-.1 3.06-.19 4.58-.02.31-.12.63-.12.94-.01 1.14.14 2.44-.06 3.42.01.16.11.23.12.39-.21.74-.08 1.57-.06 2.37.03 1.71.04 3.74.18 5.24.01.09-.02.19 0 .28.02.08.12.15.13.17.04.48-.03.87.06 1.21.1.39.12.6.12.94.24.19.21.36.25.66a4.55 4.55 0 0 0 1.97 1.27 18.42 18.42 0 0 0 4.12.66c.43.02 1.23.06 1.48 0 .04 0 .06-.11.13-.11 0 0 .2.1.3.11 1.14.11 2.2-.08 3.21-.05 1.68-.38 3.96-.29 5.91-.39.52-.02 1.05-.08 1.54-.11.59-.04 1.29-.05 1.66-.16.54-.17.97-.62 1.54-.67.67-1.14.53-2.72.74-3.86zm-2.46-15.46c-.03.46.28.91.31 1.33.01.24-.14.49-.13.77.01.1.11.23.13.33.19 1.23-.32 2.36-.31 3.53 0 .14.12.35.12.44.01.07-.11.1-.12.17-.05.46.1.97 0 1.66-.11.68-.24 1.37-.31 2.04.19.34.02.77 0 1.27-.02.71.13 1.4-.06 1.99.16.32 0 .61 0 .93 0 .26.14.53.12.72-.01.11-.15.23-.18.33-.08.26.04.56 0 .83-.05.29-.26.54-.31.83-.26.11-.52.23-.74.39-.23.06-.17-.14-.37-.11-.12.02-.05.21-.25.16-.98.1-2.7-.6-3.38.22-.44 0-1.02-.08-1.11-.55-.83.08-1.49-.22-2.16-.11-.12.02-.1.11-.18.11-.32.02-.66-.06-.99-.06-.77.01-1.46.14-2.28.12-.27-.01-.53.15-.8.16-.43.03-1.02.02-1.48 0-.13 0-.24-.09-.37-.11-1.08-.17-2.08.17-2.95-.33a2.2 2.2 0 0 0-.56-1.21c.18-.14.01-.27 0-.45-.01-.65.19-1.57 0-2.26.23-.44.1-1 .13-1.49.04-.88-.11-1.88-.13-2.87-.01-.7.15-1.46.13-2.15-.01-.24-.17-.49-.19-.72-.06-.87.4-1.85.12-2.71.2-.81-.03-1.74.07-2.48.02-.2.19-.41.24-.66.05-.22-.05-.43 0-.61.2-.61.74-.52 1.48-.44.37.04.71-.13.93-.11.17.01.29.1.43.11.51.01 1.06-.12 1.66-.06 1.38.14 2.95.02 4.19.17.08-.09.35-.02.43-.11a3.2 3.2 0 0 0 1.6 0c.12.08.27.13.43.16 1.36-.07 2.68-.04 4.13.11.11.01.21.11.31.11.6.05 1.28-.02 1.84.23.17.14.31.31.56.38zm-16.51.33c-.31 1.46.15 3.07-.25 4.53 1.19.12 2.17.08 3.33.05.06-.77.18-1.44.19-2.09 0-.8.11-1.58-.07-2.43-.93-.18-2.23-.05-3.2-.06zm4.87.11c-.19 1.66-.16 2.77-.19 4.47 1.64.09 3.39.19 5.12.11.06-1 .04-2.3.06-3.58 0-.32.16-.65-.06-.94-1.6-.05-3.42-.07-4.93-.06zm6.4 1.33c.23 1.02-.19 2.26.13 3.47.25-.06.6.13.92-.05.81.33 1.79.27 2.59.28-.06-.39.12-.74.18-1.05.03-.16-.05-.4 0-.55.02-.06.11-.06.13-.17.05-.34-.01-.45-.07-.66l-.06-.45c-.02-.21 0-.38.13-.55-.33-.3.02-.89-.31-1.21-.35.03-.49-.1-.68.05-.44-.41-1.32-.06-1.85-.38-.16.17-.55.1-.74 0-.3.38-.11.9-.37 1.27zM6.11 28.58c0 .52-.26 1.46.06 1.99-.16.18-.15.52 0 .77-.1.01-.12.02-.12.12-.04.5.12 1.03.12 1.49.95-.27 1.95.05 3.08-.06.21-1.58.03-2.96.25-4.31-1.05-.01-2.31-.07-3.39 0zm4.86.06c.06 1.75-.11 2.62-.18 4.25 1.68.2 3.76.23 5.3.11.03-1.85.02-2.56 0-4.19-1.96-.23-3.53-.1-5.12-.17zm6.72 2.1c-.08.77-.16 1.46 0 2.26 1.08-.18 1.88.14 3.14 0 .03-.37.14-1.01 0-1.49.43-.56.11-1.51.37-2.15-1.32-.27-2.34-.21-3.57-.44-.03.57-.13 1.24.06 1.82zM6.11 35.1c.03.34.08.26 0 .5-.16.45.04.87-.13 1.26.35.35.09.84.31 1.28.83.26 2.19.26 3.08.22.06-.72-.26-1.31-.06-1.83-.22-.31-.1-.76-.06-1.1.01-.08-.09-.1-.06-.22.01-.07.12-.1.12-.17 0-.04-.11-.17-.12-.27-.03-.19.02-.33 0-.5-.96-.24-2.05.03-3.02-.22-.02.34-.09.7-.06 1.05zm4.62-.77c.18 1.28-.04 2.59.31 3.86.8.02 1.26.04 1.97-.17.29.24.61.02.92 0 .7-.02 1.35.18 2.28.17-.21-1.37.13-2.53-.12-3.81-1.8.08-3.85-.1-5.36-.05zm7.02.05c-.04 1.11-.1 2.5 0 3.92.87.02 1.6.19 2.59.11 0-.24.31-.35.37-.55.1-.38-.21-.86.06-1.27a.55.55 0 0 1-.19-.33c.28-.53.21-1.15.19-1.71-.81-.16-1.9-.29-3.02-.17zm-13-22.85a.95.95 0 0 1 .62-.23c.01-.28.08-.37.24-.6.22-.07.48-.1.56-.28.47-.11.9.14 1.42.17.23.01.47-.09.73-.11.66-.05 1.32.11 1.73-.06 1.14.15 2.1.17 2.96.06.63.04 1.36.19 2.21.16.23 0 .35-.13.56-.11.11.01.2.11.31.11.14.01.28-.1.43-.11.04 0 .16.11.24.11.13.01.21-.07.31-.05.54.06 1.24.08 1.97 0 .64.3 1.36.23 2.1.38.33.07.65.32 1.04.22.45.22.57.71.87 1.05-.08 1.6.43 3.77-.19 5.47-.01.2.19.2.19.38-.19.15-.3.36-.43.56-.14.04-.34.03-.37.16-.37-.06-.9-.12-1.42-.05a14 14 0 0 1-2.59 0c-.19-.05-.19.08-.31.11-.21.03-.15-.2-.37-.17-.22-.03-.23.12-.43.11-2.81-.43-6.22-.01-8.62.06-.06-.08-.16-.11-.25-.17-.85.03-2.17-.23-3.14-.44-.04-.22-.31-.23-.43-.39-.34-1.9-.15-4.01.06-6.34zm1.6.38c.01.17-.22.4 0 .44.19-.22.65-.19.74-.49-.15-.08-.52.02-.74.05zm6.96-.05c-.03.17.12.19.07.38-.22.24-.43.47-.62.72-.17.04-.49.22-.37.33.73-.37 1.25-.94 1.91-1.38-.46 0-.69-.14-.99-.05zm3.15.05c-.06.08-.11.17-.19.22-.74.12-.95.73-1.66.89-.07.18-.32.48-.43.55-.06.03-.24 0-.31.05-.18.13-.3.35-.49.5-.21.15-.45.24-.62.44-.59.16-.77.68-1.36.83-.09.06-.09.21-.18.28-.13.03-.18.13-.37.11-.01.1-.04.18-.12.22-.75.42-1.38.94-2.04 1.43.32.11.83.04 1.24.06.01-.16.05-.38.06-.66.31-.21.67-.36.92-.61.7-.33 1.19-.85 1.79-1.27.12-.03.15-.12.31-.11.64-.57 1.43-.99 2.15-1.49s1.52-.92 2.16-1.49c-.33-.12-.45.1-.86.05zm-6.23 1.11c0 .06.02.15-.06.16-.61.35-1.18.75-1.72 1.16-.65.23-1.16.59-1.66.94-.28-.03-.47.03-.68.06.08.26-.06.39.06.6.38-.01.53-.22.74-.38 1.12-.42 1.83-1.2 2.89-1.66.07-.2.24-.31.37-.44l.37-.17c.37-.52 1.08-.72 1.42-1.27.07 0 .05-.07-.06-.05-.63.28-.96.83-1.67 1.05zm8.13-.5c.4-.05.5-.37.87-.44-.27-.2-.48-.02-.8-.11.01.21 0 .4-.07.55zm.75.99c.78-.23 1.05-.93 2.15-.88.05-.23-.17-.22-.25-.33-.49.03-.74-.13-1.04-.11.38.61-.52 1-.86 1.32zm-12.32.06c-.17-.04-.13.11-.25.11-.16 0-.35-.02-.43.05.07.1.01.32.12.39.56-.25.98-.63 1.6-.83.1-.13.22-.24.37-.33.14-.08.7-.31.43-.39-.54.4-1.44.48-1.84 1zm14.41-.11c-.66.62-1.45 1.13-2.16 1.71.64-.1.87-.55 1.54-.61.19-.22.47-.36.87-.38.14-.31-.1-.38-.07-.72h-.18zm-6.41 2.81c-.09.12-.42.03-.37.28.92-.32 1.55-.9 2.41-1.27.6-.65 1.61-.95 2.15-1.66.06 0 .08-.09 0-.11-1.44.88-2.9 1.74-4.19 2.76zm5.24-.22c.45-.17.85-.38 1.42-.44-.02-.17.14-.26 0-.39-.47.29-.96.55-1.42.83zm-.68.44c.1-.15.62-.21.5-.38-.07.18-.63.21-.5.38zm-6.47.67c-.26-.08-.32-.34-.61-.39-.2.25-.48.42-.74.61.64.04 1.65-.13 2.4 0 .04-.28-.14-.42.06-.55-.38.16-.63.37-1.11.33zm2.9.16c.3-.01.47.1.8.06-.02-.19-.03-.38-.12-.5-.25.13-.55.21-.68.44zm1.97.06c.22.08.55.06.8.11-.16-.2.01-.35-.12-.55-.25.13-.48.26-.68.44zm-11.33-.11c.18-.08.31.03.61 0v-.22c-.28.07-.5-.06-.61.22z"/></svg>