<svg xmlns="http://www.w3.org/2000/svg" width="17" height="9" viewBox="0 0 17 9"><path d="M15.91 8.1c-.02 0-.03 0-.05-.1a7.8 7.8 0 0 0-1.59-1.8h-.04c-.36-.4-.58-.6-.68-.7-.17-.2-.21-.4-.11-.7.06-.1.31-.5.75-1 .22-.3.4-.6.54-.7.96-1.3 1.37-2.1 1.25-2.5h-.05c-.04-.1-.12-.1-.26-.2H12.57c-.07 0-.11.1-.11.1h-.07c-.03 0-.06 0-.09.1-.04 0-.07.1-.09.1a13.88 13.88 0 0 1-1.46 2.8c-.17.2-.31.4-.43.5l-.32.3c-.09.1-.16.1-.21.1h-.14c-.08-.1-.14-.2-.19-.2-.05-.1-.08-.2-.1-.4l-.03-.3.01-.4.01-.3.01-.7.02-.6.01-.5a1.53 1.53 0 0 0-.12-.6C9.23.3 9.18.3 9.1.2c-.07 0-.17-.1-.28-.1C8.53 0 8.15 0 7.7 0 6.66 0 6 .1 5.71.2c-.12.1-.23.1-.32.2-.1.2-.11.2-.04.2.33.1.57.2.71.4l.05.1c.04.1.07.2.11.4a5.54 5.54 0 0 1 .08 1.6l-.08.7c-.03.1-.06.2-.11.3l-.1.2c-.02 0-.03.1-.05.1h-.22c-.08 0-.17 0-.28-.1L5.11 4c-.12-.2-.25-.3-.4-.6-.15-.2-.31-.5-.47-.8l-.13-.3c-.09-.1-.2-.4-.34-.6-.15-.3-.28-.6-.39-.9-.04-.1-.11-.2-.2-.3h-.04c-.03 0-.07 0-.13-.1H.53a.6.6 0 0 0-.47.2H.03C.01.6 0 .7 0 .7c0 .1.02.2.05.3.33.7.7 1.5 1.09 2.2.39.7.73 1.3 1.02 1.7.29.5.58.9.88 1.3.3.4.5.6.6.7.09.1.17.2.23.3l.2.2c.14.1.33.3.59.4.26.2.55.4.86.6.31.2.68.3 1.09.4.42.1.83.2 1.22.2h.96c.19-.1.34-.1.44-.2l.03-.1c.03 0 .05-.1.07-.1l.02-.2c0-.3.02-.5.06-.7.04-.2.09-.3.14-.4l.18-.3c.07 0 .11-.1.14-.1h.07c.13 0 .29 0 .47.1.18.2.35.3.51.5.16.2.35.4.57.6.22.3.41.5.58.6l.17.1c.11 0 .25.1.43.1.18.1.33.1.47.1h2.13c.21 0 .37-.1.49-.1.12-.1.19-.2.21-.3.02-.1.02-.1 0-.3l-.06-.2z"/></svg>