<svg xmlns="http://www.w3.org/2000/svg" width="50" height="39" viewBox="0 0 50 39"><path fill="#6d6152" d="M41.38 30.92l1.37 3.27c.22.54.48 1.2.68 1.83.09.25.08.57.16.76.16.44.46.67.45 1.14 0 .35-.23.67-.3 1-1.13.33-1.33-.63-2.21-.77-.14-.14 0-.19 0-.38a52.82 52.82 0 0 1-5.25-4.34c-.51 0-.78.38-1.21.61-.92.5-2.04.6-2.97 1.14-1.36.07-2.66.5-3.95.46-.92-.02-2.18-.12-3.12-.38-.08-.02-.13-.14-.23-.15-.08-.01-.27.06-.23.07-.21-.06-.4-.23-.61-.3-.63-.22-1.09-.36-1.67-.69-.8-.44-1.2-.79-1.83-1.37-.82 0-1.09.1-1.82-.23-.14.08-.38.03-.46.16-.55-.3-1.17-.2-1.83-.3-.21-.04-.35-.22-.6-.31-.38-.13-.73 0-.92-.38-.34.47-1.21.4-1.37 1.06-.17.03-.31.1-.45.16-.4.46-.96.67-1.45 1.06-.16.14-.29.33-.45.46-.74.6-1.77 1.38-2.67 1.9-.27.16-.56.38-.83.54-.13.06-.28.01-.38.07-.32.2-.56.43-.92.69-.21.15-.32.26-.68.3-.24-.46-.97-.46-1.14-.99-.16-.5.17-.97.45-1.44.29-2.15 1.29-3.47 1.6-5.41-.19-.24-.5-.36-.91-.38-.27.06-.09-.22-.31-.3-.1-.05-.28.05-.38 0-.5-.3-.91-.82-1.52-1-.22-.7-.86-1-1.29-1.52-.02-.27-.12-.44-.23-.68-.03-.08-.03-.3-.07-.38-.03-.05-.21-.1-.23-.16-.04-.09-.03-.25-.08-.38l-.3-.99c-.23-.74-.34-1.4-.61-2.28-.14-.45-.33-.75-.38-1.22-.06-.58-.09-1.5-.23-2.13.3-.87.2-1.8.3-2.67.17-1.38.86-2.5 1.15-3.65A18.6 18.6 0 0 0 3.27 9.9c.91-.46 1.18-1.56 2.05-2.05-.03-.24.11-.3.16-.46.35-.33.82-.54 1.06-.99 1.27-.76 2.29-1.78 3.73-2.36.17-.1.29-.26.46-.38 1.19-.46 2.38-.98 3.72-1.37.3-.09.6-.3.92-.38.9-.23 1.92-.16 2.74-.69.91.25 1.82-.5 2.43-.07.24-.05.49-.06.68-.16 2.47.26 5.44.44 7.76 1.38h.69c.37.47.94.28 1.52.22.26-.02.57.08.83.08.2 0 .34-.12.54-.15.76-.13 1.56.1 2.05-.15 1.05.42 2.21.2 3.27.45.32.08.49.22.99.3.52.1.78.3 1.44.39.17.02.11.12.23.15.13.02.17-.12.31-.08.05.02.1.21.15.23.29.12.59.08.84.08.38.33.9.52 1.44.68.28.35.7.53 1.07.77.33.21.68.54 1.14.6.48.64 1.16 1.07 1.52 1.83 1.34 1.46 2.61 3.3 2.89 5.48.13.98.07 2.16.08 3.2 0 .49.02.75-.08 1.3-.07.4-.21.64-.3 1.14-.08.4-.01.73-.16 1.22-.3.97-.67 1.86-1.06 2.82-.05.12-.04.23-.08.3-.04.09-.11.13-.15.23-.06.16-.01.4-.08.53-.01.03-.2.1-.22.15-.12.2-.18.64-.31.84-.11.2-.31.27-.46.46-.05.08-.09.23-.15.3-.25.38-.72.88-.83 1.45-.29-.08-.22.19-.46.15-.95 1.67-3.02 2.2-4.26 3.58zm-16.81 4.26zm-9.28-4.41c.31.1.24-.17.46-.16 1.06.13 2.16.54 3.34.46.58-.04 1.05.07 1.6.08.2 0 .33-.14.53-.15.38-.03.9 0 1.3 0 1.4 0 2.67.04 3.8 0 .95-.04 1.77-.31 2.59-.46.65-.12 1.25-.17 1.82-.3 1.55-.37 2.67-1.5 3.8-2.14.33-.61.91-.97 1.07-1.75.33.06.37-.33.53-.53.35-.43.56-.75.84-1.22.13-.22.25-.46.46-.61-.1-.36.27-.58.38-.84.11-.28.18-.65.3-.99.56-1.53.99-3.47.84-5.48-.01-.15-.15-.28-.16-.46 0-.13.1-.26.08-.38-.02-.16-.2-.3-.23-.45-.02-.11.09-.3.08-.39-.09-.75-.6-1.72-.84-2.36-.11-.3-.13-.66-.23-.9-.04-.12-.23-.24-.3-.39a12.74 12.74 0 0 0-2.59-3.66c-.23-.23-.44-.56-.68-.76-.25-.2-.67-.29-.91-.53-.13-.13-.1-.2-.23-.3a10.1 10.1 0 0 0-2.28-1.3 20.81 20.81 0 0 0-3.88-1.22c-1.52-.32-3-.5-4.57-.6-.88-.07-2.01-.05-2.51 0-2.21.2-3.83 1.06-5.7 1.37-.83.47-1.76.73-2.59 1.14-.42.2-1.12.75-1.45.99-.38.27-.73.41-1.06.68-.12.1-.17.28-.3.38-.15.12-.4.12-.54.23-.19.16-.3.42-.53.6-.2.18-.48.28-.68.47-.19.17-.36.42-.54.6-.39.41-.5.65-.76 1-.9 1.22-2.05 2.34-2.74 3.8.07.52-.4.9-.53 1.45-.17.77.08 1.66-.3 2.36.31.65-.26 1.61.23 2.21-.11.05-.14.16-.16.3.18 1.08.69 2.2.76 3.13.43.4.26 1.05.77 1.44.25 1.38 1.3 1.95 2.13 2.74.83.21 1.88.6 2.81.46.25.3.67.44.84.84-.19.23-.1.34-.08.68-.31.13-.5.37-.84.46-.24 1.7-1.18 3.13-1.29 4.72 1.19-.66 2.09-1.6 3.35-2.2a.52.52 0 0 1 .3-.46c.78-.52 1.6-.99 2.21-1.68.42-.27.94-.43 1.44-.6.25.26.42.6.84.68zM33.85 4.42c.28.38.94 1.04 1.6 1.3.21-.43.59-.68.76-1.15-.87-.25-1.61-.13-2.36-.15zm4.03.46c-.4.77-1.12 1.2-1.22 2.28.23.29.48.54.77.76.32-.32.5-.36.53-.91.37-.22.56-.6.76-.99.45-.05.52-.5.76-.76-.56-.1-1.1-.22-1.6-.38zm4.19 1.14c-.58.1-.72-.25-1.22-.23a19 19 0 0 1-2.21 2.97c.18.32-.13.5-.15.84.51.45.49 1.44 1.07 1.83.08-.22.09-.52.38-.54.02-.48.08-.92.53-.99v-.38c.7-.64 1.11-1.57 1.67-2.36h.23c-.05-.38.21-.45.3-.68-.3-.06-.37-.34-.6-.46zm1.75 1.3c-1.05 1.72-2.07 3.46-3.12 5.17v.46c-.2.08-.37.18-.54.3.13.7.28 1.35.54 1.9.07-.38.39-.52.38-.98.2.05.15-.15.3-.16.1-.6.6-.82.69-1.44.62-.57 1.03-1.35 1.44-2.13.43-.1.38-.69.84-.77-.07-.31.14-.36.15-.6.33-.18.57-.45.53-1-.39-.26-.56-.75-1.21-.76zm1.97 2.5c-.08.78-.71 1.01-.91 1.68-.21.05-.19.32-.46.3.01.42-.25.57-.45.77-.73 1.56-1.65 2.92-2.44 4.41-.31 0-.37.24-.68.23-.01 1.51.02 2.57-.38 4.04.57-.34.89-.94 1.14-1.6.11-.04.19-.11.3-.15.58-1.33 1.55-2.26 2.13-3.58.11 0 .17-.04.23-.08.28-1 1.12-1.47 1.37-2.51.5-.5.86-1.12 1.14-1.83.13-.12.34-.16.46-.3a6.9 6.9 0 0 0-1.14-1.6c-.03.15-.21.15-.31.23zm.99 5.03v.38c-.43.37-.66.91-.99 1.37-.32.45-.72.9-.91 1.45-.43.33-.75.77-.91 1.37a4 4 0 0 0-.99 1.53c-.26.1-.29.42-.61.45-.18.7-.49 1.29-.99 1.68-.08.73-.64.98-.76 1.67-.34.2-.42.46-.61.76-.24.4-.46.72-.68 1.07-.47.72-1.16 1.4-1.3 2.13-.26-.04-.18.27-.45.23-.2.74-.91.97-1.14 1.67h-.23c-.1.51-.38.85-.61 1.22.42-.09.84-.17 1.22-.3-.08-.33.16-.34.3-.46.18-1.02 1.02-1.36 1.29-2.28.24.03.2-.2.38-.23.61-1.23 1.62-2 2.13-3.12.34-.05.37-.4.69-.46.75-1.4 1.97-2.35 2.66-3.8.7-.35.9-1.2 1.6-1.53.33-.7.87-1.2 1.44-1.68.23-.14.38-.07.54-.15.24-1.61.23-2.9.07-4.34-.01-.06-.06-.09-.15-.07-.35.45-.54 1.08-.99 1.44zm0 5.56c-.66 1.1-1.86 1.9-2.28 3.12-.95.9-1.53 2.18-2.43 3.13-.06.17-.07.38-.16.53-.35-.05-.2.4-.53.38-.17.54-.77 1.05-.84 1.45 1.14-.57 1.94-1.46 3.05-2.06.21-.68.91-.86 1.06-1.6 1.17-1.17 1.82-3.03 2.43-4.65.16-.4.43-.7.39-1.21-.55.08-.47.55-.69.91zm-7.53 10.44c0-.16.21-.1.15-.31-.17-.06-.31.28-.15.3zm-1.14 1.82c.36.38.57.9 1.22 1 .13-.56.4-.97.76-1.3-.63-.18-.29-1.34-.99-1.45-.3.61-.85.98-.99 1.75zm-4.87-1.37c-.19.74-.93.94-1.06 1.75.42.02.46-.22.38-.53.63-.26.69-1.08 1.21-1.45-.27-.02-.27.23-.53.23zm-4.26 1.14c-.22.44-.54.78-.68 1.3.68.02 1.35-.2 2.13-.15.17-.22-.24-.33-.23-.61.09-.32.32-.5.38-.84-.64 0-.98.29-1.6.3zm-4.94.54c.72.16 2.31.87 2.74-.16-.83.12-1.82-.05-2.74.16zm16.5 1.82c.2.26.41.5.76.61-.26-.32-.23-.93-.53-1.22-.09.19-.19.37-.23.61zm-26.9-18.46a1.83 1.83 0 1 1 0 3.66 1.83 1.83 0 0 1 0-3.66zm7.28 0a1.83 1.83 0 1 1 0 3.66 1.83 1.83 0 0 1 0-3.66zm7.28 0a1.83 1.83 0 1 1 0 3.66 1.83 1.83 0 0 1 0-3.66z"/></svg>