<svg xmlns="http://www.w3.org/2000/svg" width="43" height="47" viewBox="0 0 43 47"><path fill="#6d6152" d="M35.08 2.66c.97.18 1.82.48 2.78.65.02.3.31.33.59.37.36.6 1.04.78 1.54 1.23.85.74 1.46 1.75 2.35 2.46.07.57.49.81.66 1.3-.18.38-.08.44 0 .87-.14.21-.22.49-.44.8-.2.25-.09.29-.22.64-.1.26-.42.68-.59 1.01-.24.49-.66 1.13-.95 1.67a4.28 4.28 0 0 0-.81 1.73c-.17.02-.14.25-.37.22.04.23-.13.25-.07.5-.83.68-1.06 1.94-1.69 2.83.48.93-.03 2.34 0 3.54.01.17.15.29.15.43 0 .13-.13.23-.15.36-.06.55.06 1.23 0 1.74-.01.13-.14.23-.14.36-.01.44.13.86.14 1.3.03.92-.05 1.82-.07 2.75-.01.7.12 1.4.15 2.1.05 1.36-.1 2.7-.08 4.05.02 1.06.22 2.11.22 3.18.02.22.16.33.22.5.01.23-.26.18-.22.44.41 1.4-.13 2.38.44 3.9-.21.56-.02 1.5-.51 1.96-.11.1-.35-.05-.37.22-.24-.03-.36-.17-.51-.3-.6.43-1.14-.2-1.76.3a12.26 12.26 0 0 0-3.44.07c-.19.01-.31-.04-.37-.15-.13.12-.45.04-.51.22-2.72.03-5.59.14-8.21.43-.15 0-.1-.2-.3-.14-.64.14-1.17.2-1.98.14-.32-.1-.19.25-.44.22-.61-.2-1.54.2-2.49.15-.13-.01-.31-.15-.44-.15-.12 0-.28.13-.44.15-.42.05-1.45.04-2.13 0-.16-.01-.09-.13-.21-.15-.4-.07-.85.1-1.25.07-.35-.01-.68-.13-1.03-.14-.42-.01-.87.12-1.32.14-.44.03-.89-.1-1.32-.07-.38.02-.79.2-1.17.22-.31.02-.64-.1-.95-.07-.21.02-.39.13-.59.14-.34.01-.68-.14-1.03-.14-.09 0-.26.13-.36.14-.66.05-1.39-.2-1.98.14-.38-.03-.6-.22-1.1-.14-.27-.28-.58-.62-.66-1.01-.04-.21.12-.61.07-.87-.05-.29-.21-.66-.15-1.08.01-.05.15-.15.15-.15 0-.18-.15-.34-.15-.5.01-.1.15-.21.15-.3 0-.3-.24-.62 0-.86-.22-.64.02-1.26-.22-1.96.25-.86.02-2.24 0-3.25 0-.19.06-.39.07-.58.02-.36-.14-.7-.14-1.08 0-.3.15-.6.14-.87 0-.24-.15-.48-.14-.72 0-.17.13-.36.14-.5.06-.69.01-1.46-.14-2.03.25-.9.01-2.22 0-3.26-.01-.31.21-.64-.07-.87a.88.88 0 0 0 .14-.5c.01-.19-.12-.24-.14-.44-.04-.34.14-.75.14-1.08 0-.11-.13-.24-.14-.36-.06-.52.02-1.14 0-1.74-.07-1.9-.27-4.46-.3-6.72 0-.48-.12-.98-.07-1.38.03-.26.2-.48.22-.72.02-.19-.08-.38-.08-.58.01-.23.14-.47.15-.72.05-.75-.3-1.44.15-2.1.41-.05.55-.47.8-.72.84-.81 1.74-1.73 2.57-2.68.43-.49.78-1.05 1.25-1.59.14-.16.37-.27.51-.43.39-.46.59-1.16 1.17-1.45.13-.5.52-.75.59-1.3a.4.4 0 0 0 .29-.3c1.53-.34 2.64.32 3.82-.14 1.25.1 2.61.06 3.88-.14.09-.01.28-.14.37-.15.87-.04 1.88 0 2.86-.14.25-.04.54-.18.8-.22.3-.03.62.03.96 0 .81-.06 1.65-.45 2.27-.14.12-.16.32-.03.51-.07.1-.02.12-.14.22-.15.41-.03.91.12 1.39.15.45.02.91-.1 1.32-.08.84.05 2.18.32 3.23.3.15-.01.22-.13.37-.15.34-.06.78.13 1.17.14.65.03 1.23-.13 1.91 0 .39-.28.66-.13 1.17-.07.14.18.24.38.37.58-.03.3-.13.5-.15.8zm-5.94.44c-1.17-.02-2.25-.42-3.37-.15-.47-.4-1.05-.03-1.61 0-.36.03-.74-.08-1.1-.07-1.83.09-3.81.6-5.43.5-.38.4-.82-.02-1.25.3-.3-.3-.67-.04-1.02 0-.1 0-.14-.09-.29-.07-.11 0-.18.12-.3.14-.17.02-.35-.1-.51-.07-1.27.16-2.51.3-3.96.14-.03.76.52 1.56.88 2.17-.01.57.21.89.37 1.3.09.27.12.58.21.8.11.23.36.39.45.65.1.31.04.68.14 1.01.11.34.47.7.59 1.09.03.1-.04.25 0 .36.1.25.29.28.29.58.01.42-.31.85-.58 1.15-.6.03-1.18-.18-1.62-.21a5.96 5.96 0 0 0-1.9.14c-.25.06-.73.22-.74.22-.3-.07-.49-.65-.58-.87-1.87.04-3.16-.77-4.77-.58-.27.52-.11 1.1-.15 1.74 0 .13-.12.17-.14.29-.08.45.03 1.32 0 1.73-.02.23-.15.5-.15.73 0 .06.14.24.15.29.11 1.17.12 2.65.22 3.9.02.28.14.54.14.8.01.3-.12.58-.07.86.02.14.14.29.15.44.06.85-.2 1.67.07 2.46-.33 1.15.13 2.77 0 4.12-.01.15-.15.28-.15.43.01.56.23 1.13.22 1.67 0 .16-.13.34-.14.5-.02.24.13.41.14.65 0 0-.14.1-.14.15-.03.19.1.76.07 1-.04.37.09.69.07.95-.01.18-.14.35-.14.5-.01.97.3 1.94 0 2.76.24.45.06.97.29 1.44-.21.28-.18.75-.15 1.09.03.22.18.46.22.72.05.28-.14.63-.14.94-.01.38.23.9-.08 1.3.13.1.29.15.3.36-.49.38-.17 1.1 0 1.6 1.01.45 1.89-.33 2.71.14.23-.04.32-.22.51-.3a.7.7 0 0 0 .52.23c.36-.06.84-.2 1.17-.08.73-.38 1.88 0 2.57-.29.09.15.32.17.51.22.29-.2.59 0 .88 0 .76.01 1.55-.16 2.27-.14.25 0 .5.13.73.14.59.03 1.19-.14 1.76-.14.56-.01.99.09 1.47.07.09 0 .18-.14.29-.15.53-.02.88 0 1.4 0 .62 0 1.19-.23 1.83-.29.46-.03 1.02.13 1.54.08.26-.03.54-.2.81-.22.12 0 .32.07.43.07.56.01 1.17-.18 1.54-.14.22.02.32.15.52.14.35 0 .69-.2 1.1-.21.17-.01.39.07.58.07 1.86-.02 3.8-.41 5.5-.36.38 0 .63-.07.88-.08.61 0 1.01.15 1.32-.14-.02-2.4-.14-5.1-.36-7.67-.02-.18.03-.3.14-.36-.24-.89-.02-2.51 0-3.54.04-.23-.2-.2-.22-.36.04-1.55.16-2.68-.07-4.13.03-.13.16-.18.15-.36-.21-.22 0-.5 0-.8-.02-1.5-.07-3.1.07-4.33-.4.19-.52.64-.59 1.16-.84.7-.92 2.17-1.68 2.96.02.29-.17.36-.15.65-.14.03-.32.03-.3.22-.48.56-.39 1.68-1.17 1.95-.28.98-.99 1.53-1.24 2.53-.2.08-.25.29-.44.36a29.63 29.63 0 0 1-2.2 4.12c-.58.06-.86.4-1.54.37-.22.24-.65.28-.88.5-1.28.29-2.24.88-3.3 1.38h-.51c-.01.37-.52.26-.66.5-.71-.11-1.38.44-2.2.58-.33.06-.74.02-1.1.08-.38.06-.77.2-1.1.21-.11 0-.23-.13-.37-.14-.16-.02-.32.1-.44.07-.32-.06-.6-.4-.95-.22a2.62 2.62 0 0 1-.66-1.15c.27-.5.01-.81 0-1.16-.02-.49.16-1.02.14-1.52 0-.18-.13-.33-.14-.5-.02-.19.12-.43.14-.73.08-.9 0-1.74 0-2.46.01-.15.14-.15.15-.22.03-.14-.16-.27-.15-.36.02-.14.19-.28.23-.43.06-.32-.05-.7 0-1.01.01-.13.2-.22.21-.37.05-.38-.06-.62.15-.86-.1-.3-.02-.36.07-.73-.29-.21-.13-.64-.22-.94.49-.46.97-1.23 1.1-1.8.36.04.17-.46.59-.51.15-.6.63-1.37 1.1-1.88.32-1.21 1.05-1.6 1.47-2.75.2.05.14-.14.29-.14.01-.64.58-.73.59-1.38.29-.09.28-.4.44-.65.21-.33.64-.63.58-1.16.54-.25.55-1.12.96-1.3-.03-.46.39-.48.36-.94.8-.7 1.12-1.88 1.84-2.67-.05-.36.19-.44.14-.8.66-.7 1.16-1.56 1.69-2.38v-.44c.2-.2.43-.4.44-.8.18-.05.29-.2.51-.21.18-.57.6-.9 1.03-1.23.1-.1.04-.34.14-.43.42-.2.7-.62 1.1-.95.16-.12.38-.14.59-.28.16-.11.28-.34.44-.44.26-.15.57-.16.81-.29.21-.11.29-.3.51-.36.15-.04.31.21.37-.07-1.12-.24-2.21.01-3.23 0zm3.59-.08c-.11.02-.27-.02-.29.08.11-.01.27.02.29-.08zm8.29 5.8c-.74-1.18-1.75-2.1-2.72-3.05-.63-.4-1.34-.71-2.05-1-.14-.07-.18-.2-.29-.23-.61-.15-1.56-.08-1.98-.07-.48.02-1.13.34-1.69.5-.31.1-.62.07-.8.15-.5.24-.63.85-1.18.87-.22.57-.96.64-1.17 1.23.43.08.55.24 1.03.14.58.23 1.28.7 1.9.65.11.38.52.36.81.51.4.21.81.35 1.24.58.3.15.46.46.81.43.51.71 1.56.88 1.91 1.74.14.15.42.16.51.36.34.92 1.17 1.35 1.39 2.39.37-.27.68-.9.66-1.3.45-.33.71-.85.88-1.45.49-.58.84-1.3 1.1-2.1-.07-.16-.27-.2-.36-.36zM8.03 5.7c.27.16.55-.2.88-.21.01-.33-.08-.56-.3-.66-.1.38-.53.44-.58.87zm-.66 3.84c-.04.42-.44.48-.66.72-.15.14-.15.32 0 .07.46-.03.58-.39 1.02-.43.14-.3.46-.42.74-.58.54-.3 1.07-.64 1.68-.8.06-.42-.22-.5-.29-.8-1.04.4-1.44 1.44-2.49 1.82zm20.74-.8c-.5.74-.92 1.55-1.32 2.38.61.1.82.6 1.54.58.34-.84 1.06-1.63 1.03-2.6-.48-.06-.8-.27-1.25-.36zm-23.75 1.3c.14.1.56.38.66.07-.28-.16-.19-.45-.37-.57-.11.15-.21.32-.29.5zm6.09-.5c-.12.22-.34.34-.66.36-.09.54-.8.46-.96.94.78.3 1.47.16 2.13-.22-.19-.35-.15-.91-.51-1.08zm19.2 2.89c.31.13.61.26.96.36.21-.8.71-1.32.8-2.24.16-.19.48-.2.52-.5-.35-.1-.6-.3-.96-.37-.41.95-1.07 1.64-1.32 2.75zm2.35.94c.82.5 1.65.97 2.42 1.52a8.7 8.7 0 0 0 .81-2.1c.1-.16.39-.14.43-.36-.97-.52-1.49-1.46-2.71-1.74-.02 1.04-.61 1.7-.95 2.68zm-6.09-.73c-.64.74-.96 1.8-1.68 2.46.03.37-.2.48-.22.8-.24-.1-.06.23-.3.14-.3.76-.64 1.48-1.17 2.03.05.22-.07.26-.07.43-.78.8-1 2.15-1.91 2.82-.14.83-.77 1.17-.95 1.95-.59.13-.33 1-.95 1.23-.11 1.05-.89 1.44-1.1 2.4.79.03 1.2.44 2.05.42.74-1.26 1.58-2.44 2.13-3.9.21-.05.14-.39.44-.36.24-.5.44-1.06.88-1.38.08-.52.39-.8.73-1.08.2-.5.38-1.02.81-1.3.05-.23.05-.14 0-.36.48-.14.53-.65.73-1.02.04-.08.23-.17.29-.29.24-.42.44-.74.59-1.15.24-.24.69-.5.88-.73.39-.46.44-1.12.88-1.37.76-.44 1.53.16 1.39.87-.11.59-.74.9-1.17 1.37-.26.29-.52.7-.74 1.01-.38.56-.71.96-.88 1.52-.82.95-1.31 2.22-2.2 3.11.05.3-.19.3-.14.58-.31.06-.45.43-.59.65-.15.24-.42.48-.36.87-.56.4-.77 1.12-1.03 1.8A4.1 4.1 0 0 0 21 28.06a23.1 23.1 0 0 1 3.45 2.24c.26-.45.68-.73.66-1.45.35-.28.7-.56.73-1.15.2-.1.24-.34.44-.44.13-.79.76-1.08.88-1.88.24-.03.15-.38.44-.36-.06-.3.14-.34.15-.58.15-.08.29-.16.36-.29.21-.34.4-1.12.59-1.44.07-.12.24-.11.29-.22.07-.14 0-.3.08-.43.23-.38.59-.62.58-1.16.71-.75 1.11-1.8 1.76-2.6.01-.94.97-1.24.81-2.1.2-.07.35-.18.37-.44-.36-.41-1.05-.5-1.47-.86-.31.34-.95.04-1.25 0-.01-.27-.1-.28 0-.51-1.4-.5-2.46-1.33-3.96-1.74zm9.68 3.33c.5.38.66 1.1 1.25 1.38.3-.55.7-1 .95-1.6-.63-.4-.68-1.4-1.24-1.88-.37.66-.74 1.3-.96 2.1zm-2.42 1.88c-.14 1.31-1.19 1.72-1.39 2.97-.32.2-.57.45-.59.94-.1 0-.16.03-.22.07-.32 1-1.03 1.63-1.24 2.75-.79.52-.89 1.72-1.62 2.31-.16.9-.94 1.19-1.02 2.17-.77.54-.78 1.84-1.47 2.46.76.7 1.38 1.53 1.91 2.46.65-.32.64-1.3 1.24-1.66.05-.7.49-1.02.88-1.38-.01-.61.71-1.14.81-1.88.46-.1.29-.82.73-.94v-.36c.52-.48.75-1.24 1.18-1.8.08-.58.26-1.05.66-1.31-.09-.35.22-.3.14-.65.2.05.15-.15.29-.15.23-1.03.92-1.6 1.11-2.67.56-.46.76-1.28 1.17-1.88-.6-.84-.93-1.93-1.91-2.39-.22.32-.25.81-.66.94zm-9.23 14.46c-.27-.24-.72-.3-.81-.72-.68-.15-.78-.87-1.54-.94-.08-.36-.56-.32-.66-.65-.51-.02-.73-.34-1.1-.5.01-.16-.26-.04-.37-.08-.15-.47-.94-.32-1.24-.65-.38-.06-.79-.1-1.25-.07-.37.95-.38 2.54-.44 3.76.39.27.87.44 1.17.8.44-.03.66.17.81.43h.51c.24.44.75.61 1.18.87.38.53.86.98 1.39 1.37.04.36.3.52.59.65.97-.6 2.4-1 3.66-1.52a9.45 9.45 0 0 0-1.9-2.75zm-5.65 5.29c.06.01.09.06.07.14.17-.03.32-.07.37-.22-.16-.03-.4-.16-.44.08zM38.52 6.43c.34.54.78 2.15.52 3.32-.2.87-.72 1.57-1.69.87a5.9 5.9 0 0 0-.29-3.33c.18-.64.45-1.34 1.46-.86zM24.45 9.17c.07.62-.28 1.08-.81 1.3-.86-.23-1.87.08-2.86 0-.41-.03-.83-.23-1.24-.28-.66-.09-1.3.07-1.76-.22-.56.22-1.15.02-1.69 0-.38-.04-.48-.35-.88-.36-.13-.34.03-.6-.07-.87.47-.14.88-.77 1.46-.36.7-.03 1.37-.02 1.91.07.39.07 1.07.15 1.61.14.41 0 .87.22 1.25.22.21 0 .37-.11.59-.14.76-.1 1.83 0 2.49.5zm-16.94 6c.43.28.98.33 1.18-.21.39-.03 1.37 0 1.83-.36 1.23 0 2.26-.24 3.66-.36.48-.05.79-.19 1.32-.15.56.04 1.27.02 1.84-.07.1-.02.26-.14.36-.15.62-.04 1.55-.01 2.57 0 .06 0 .17-.18.22-.14.23.15.75.12.81.14.2.1.16.41.44.44.08.8-.24 1.21-.74 1.44-.66-.26-1.49.15-1.98-.21-.4.1-.89.33-1.24.07-.18.12-.53.05-.59.29a2.01 2.01 0 0 0-1.54.07c-1.31-.36-2.73.17-4.1.07-.38.21-1.16.34-1.54.22-.8.65-1.84.17-2.13-.65-.13-.14-.43-.1-.37-.43zm8.8 5.58c.17.4.17.87.22 1.22-.36.29-.62.6-1.1.65-.19.03-.31-.12-.51-.14a5.74 5.74 0 0 0-2.05.14 5.42 5.42 0 0 0-2.42-.07c-.9-.3-2.21.1-3.01-.58-.32-2.03 2.32-.86 3.45-1.22 1.76.25 3.37-.1 5.42 0zm-2.56 7.44c-.15.2-.33.36-.3.73-.54.58-1.31.15-1.9.14-.21 0-.32.12-.52.14-.49.06-1.08-.2-1.61-.21-.72-.03-1.35-.02-1.98-.3-.19-.17-.11-.6-.22-.86.17-.17.41-.27.51-.5 1.53-.22 3.38.3 4.77.14.13-.02.37-.17.51-.14.46.08.54.6.74.86zm-5.94 5.36c.09-.45.16-.55.44-.87 1.63-.2 2.67-.24 4.18-.3.07 0 .05-.08.07-.14 1.07.05 1.05 1.61.29 1.96-.79.07-1.69-.1-2.56-.08-.59.02-1.07.25-1.54.15-.4-.09-.63-.47-.88-.72zm5.06 3.97c.01.41.29.7.22 1.38-.45.08-.74.33-1.18.36-.17.01-.28-.13-.44-.15-.62-.07-1.3.1-1.9.22-.4-.16-1-.22-1.47-.07.02-.26-.32-.17-.44-.3-.29-.48.05-.93.37-1.22.4 0 .8-.07 1.17-.14 1.14-.25 2.33-.06 3.67-.08zm19.72 0c.32.23.25.86.36 1.3-.68.76-1.78.15-3.15.3-.24.02-.43.16-.66.21-.11.02-.25-.09-.37-.07-.17.02-.17.14-.29.14-.46 0-.78-.13-1.1-.36v-.72c1.1-1.22 3.06-.68 5.21-.8z"/></svg>