<svg xmlns="http://www.w3.org/2000/svg" width="45" height="48" viewBox="0 0 45 48"><path fill="#6d6152" d="M41.58 2.17c-.16.14-.5.56-.76.77-.1.08-.26.06-.35.14-.45.38-.7.96-1.04 1.05-.63.16-1.27-.26-1.32-.7-.06-.51.42-.59.55-1.05.43-.1 1.07-.8 1.74-1.11.26-.12.79-.36 1.18-.28.6.12.83 1.14 0 1.18zm2.36 3.77c0 .28-.27.28-.27.56h-.28a1 1 0 0 1-.77.49c-.44.57-1.3.74-1.6 1.46-.5.38-1.68.17-1.73-.49-.02-.27.6-.97 1.11-1.32.21-.15.58-.26.83-.42.59-.35 2.15-1.22 2.71-.28zm.63 6.07c-.53 0-.87.2-1.11.48-.3.05-.8.14-1.32.28-.31.1-.58.33-.84.35-.94.09-1.65-.63-1.1-1.46.43-.28 1.37-.2 2.28-.42 1.1-.27 1.87-.94 2.37-.28.3.4.01.72-.28 1.05zm-.28 3.97c-.85 0-1.16.55-2.01.56-.58.43-1.45.14-2.09.28-.32-.28-.7-.5-.62-1.19.06 0 .05-.08.07-.14.36-.41 1.22-.15 2.08-.28.92-.13 1.61-.54 2.15-.41.16.03.73.32.77.48.05.22-.44.47-.35.7zm-32.23 2.58c.35.37.3 1.33.2 2.16-.11 1.02-.28 2.2-.69 2.72-.53-.02-1.13.07-1.25-.49-.02-.09.1-.47.14-.76.03-.16.15-.43.14-.56-.01-.17-.15-.28-.14-.42.02-.3.18-.58.2-.83.05-.41-.18-.91-.06-1.26.19-.56.76-.6 1.46-.56zm1.32 5.51c-.47-.94-.1-2.53-.28-3.7.16-.46.85-.61 1.39-.48.54.81.22 3.24.28 3.9-.38.32-.84.69-1.4.28zm30.29-1.19c-.62.16-1.2-.2-1.81-.34-.25-.06-.53 0-.77-.07-.16-.05-.36-.22-.55-.28-.48-.16-1.26-.36-1.25-.98 0-.37.5-.75.97-.77.57-.02 1.25.38 1.95.63.74.27 1.41.53 1.66.9-.05.38-.03.58-.2.91zm-27.93 2.3c-.2-1.43-.07-2.29.07-3.9.56-.59 1.6-.55 1.74.28.02.14-.1.3-.14.56-.02.12.07.24.07.42-.01.26-.18.6-.21.9-.08.8.08 1.65-.35 1.95-.44.32-.7-.05-1.18-.2zm5-2.92c.28 1.68.66 3.16-.28 4.11-.38.02-.74-.23-.97-.56a10.6 10.6 0 0 0-.55-3.27c.24-.05.26-.38.55-.5.44-.16.92-.03 1.25.22zm4.93 4.18c-.38.3-1.02.6-1.53.2.03-1.01-.33-1.65-.48-2.5 1-1.1 2-.2 2.08 1.18.03.37-.13.75-.07 1.12zm17.65 1.32c-.21.19-.69.1-.97.21a8.2 8.2 0 0 0-1.74-.7c-.21-.06-.47-.06-.63-.13-.04-.02-.07-.2-.2-.28-.3-.17-.67-.22-.7-.63-.04-.6.68-.91 1.39-.77.87.18 2.86.93 2.99 1.54.07.34-.06.55-.14.76zm-.56 4.19c-.14.35-.47.5-.62.84-.67.11-1.2-.58-1.88-.42-.32-.56-1.3-.46-1.73-.9l.07-.84c.37-.25.78-.41 1.25-.35.42.05 1.07.57 1.66.76.27.09.61.06.9.35.18.18.2.48.35.56zm-.97 3.84c.09.87-.7.91-1.11.83-.36-.07-.77-.44-1.11-.7-.5-.37-.74-.76-1.32-.97-.18-.43-.34-1.02.07-1.33.28-.07.44 0 .7-.2.38.07.52.39.9.48.47.78 1.37 1.13 1.87 1.89zm-5.7-31.8c.41.46.28 1.1.35 1.67.05.43.18.9.14 1.47-.01.14-.13.29-.14.41-.12 2.57.3 5.7-.2 8.58.1.27.16.44 0 .7.2 1.21.03 2.65.13 3.9.13 1.6-.12 3.5-.2 5.16l-.15 2.1c-.07 1.18-.2 2.54-.41 3.9-.04.22.21.16.14.42-.15.06-.25.17-.21.42-.27-.07-.29.27-.49.07.18.52.19 1.1-.2 1.53-2 .1-4.83-.19-6.75-.42-.35-.48-.46-.99-.27-1.74-.09-.1-.5-.24-.63-.07-.25-.38-.84-.07-.97-.63-1.12-.39-2.04-.98-3.34-1.18-.07-.19-.36-.15-.41-.35a8.3 8.3 0 0 1-2.09-.63c.11 1.46-.77 2.5-1.6 3.56.02.34.48.4.28.76.84.38 1.3 1.12 2.02 1.6.41.77.32 1.68.14 2.66-.67.56-1.07 1.39-1.95 1.74-.08.31-.4.39-.55.63.14.37.38.65.7.9.61.52 1.51.84 1.66 1.89.05.36-.14.95-.28 1.32a4.73 4.73 0 0 1-1.94 2.1c-.78.1-1.3.4-2.23.48-.1.01-.25-.08-.34-.07-.07.01-.12.14-.21.14-.11 0-.22-.15-.35-.14-.14.01-.17.15-.28.14-.14-.01-.21-.14-.35-.14-.21 0-.42.07-.62.07-.7.01-1.26-.3-2.02-.42-.18-.26-.49-.39-.9-.41a4.06 4.06 0 0 1-.76-2.93c-.14-.21-.4-.3-.56-.5-.27-4.41-.12-7.95.07-11.5.1-.07.14-.18.21-.28-.3-1.1.13-2.3.07-3.48-.02-.46-.25-.82-.2-1.26-.42-.26-1-.35-1.47-.56-.22.26-.11.65-.28.98-.28.57-1 .75-1.39 1.18-1.23-.07-2.35-.7-3.6-.83-.75-.07-1.48.2-2.02-.2a1.6 1.6 0 0 0-.35-.7c.2-.74.02-1.62 0-2.52-.01-.63.13-1.28.07-1.95-.48-.56-.34-1.07-.35-2.16 0-1.3.08-2.83.14-4.4.02-.49.27-1.19.35-1.74.05-.35 0-.68.07-.9.1-.33.47-.58.41-.91 1.14-.37 2.07.12 3.34.14.25 0 .49-.15.7-.14.1 0 .18.13.27.14.13.01.28-.02.42 0 .6.07 1.18-.13 1.8.07.1.15.14.37.28.49 1.15-.43 2.46-.7 3.4-1.33.33.03.59-.02.84-.07.78-.43 2.23-.53 3.13-1.04.98-.18 1.85-.54 2.84-.84 1.01-.3 1.9-.6 3.06-.84.13-.05.28-.09.35-.2.95-.23 2.1-.27 2.78-.77.97-.03 1.8-.49 2.64-.7.6-.15 1.26-.15 1.73-.56 0-.52.24-1.07-.14-1.32.15-.1.42-.1.35-.42.3-.05.48-.22.63-.42.26.14.4-.2.62-.21.22-.01.33.15.56.2.31.09.71-.04.9.22 1.22.02 2.43.24 3.61.14zm-4.65 1.18c-.02.1-.12.12-.14.21-.3 4.29-.44 7.73-.9 12-.05.21.19.13.14.34-.22.63-.24 1.33-.28 2.03-.1 1.63-.1 3.57-.28 5.3-.04.4.08.9.07 1.4 0 .11-.11.3-.14.48-.06.41.03 1.03 0 1.6-.03.63-.2 1.37-.2 1.75-.03.8-.02 1.35 0 1.95 1.43.48 2.53.33 4.3.42-.2-.2-.07-.72-.2-.98.27-.48.22-.94.27-1.46l.14-1.4c.02-.25-.02-.47 0-.7.07-.8.43-1.71.14-2.44.23-.38.12-.86.14-1.32.03-.97.11-2.29.13-3 .03-.7-.05-1.44-.06-1.95-.06-2.42.02-4.83.2-6.84-.33-1.57.14-3.68 0-5.78-.02-.4-.25-.73-.14-1.12-1.18-.17-2.13-.17-3.19-.49zM28.18 26.8c0-.45-.1-1.07-.07-1.6.01-.35.18-.7.2-1.05.15-1.89.12-3.45.28-5.3l.14-1.67c.02-.22 0-.41 0-.63.06-1.66.39-3.24.49-4.81.06-.95.04-1.97.14-2.72.06-.53-.02-.84 0-1.19 0-.04-.01-.08-.07-.07-3.17.73-5.97 1.82-9.24 2.44-.26.33-.91.25-1.18.56-1.19.02-2.42.97-3.69.9-.35.42-.92.61-1.66.64a42.9 42.9 0 0 1-4.87 1.53c.1.4-.06.5-.06.84-.02.91.19 1.8.2 2.65 0 .25-.14.52-.14.76 0 .27.14.53.14.77.02.64.03 1.81 0 1.95-.16.9.18 1.99 0 3.07.73-.05 1.44.32 2.09.49.26.07.58.06.83.14.29.09.54.34.83.42.38.1.8.04 1.19.14 1.16.27 2.29.8 3.47.97 1.32.74 2.84 1.17 4.3 1.74.77.3 1.47.65 2.09.91l.76.28c.5.17 1.05.2 1.46.56.46-.07.57.22 1.05.14.27.24.6.41 1.04.49.2-1.09.25-2.34.28-3.35zM3.3 13.05c-.65 2.3-.51 4.4-.55 6.98.06.26.33.32.35.62-.01 1.91-.03 3.25 0 4.68 1.18.07 2.5.39 3.68.55.44-1.31.16-3.37.14-4.8-.01-.65.08-1.31.07-1.96-.03-1.99-.35-3.55-.14-5.86-1.44-.08-2.36-.03-3.55-.2zm9.52 13.88c.18-.03.38-.04.49-.14-.16.05-.54-.13-.49.14zm3.48.9c-.08.24.52.17.55.08-.24-.04-.3-.2-.55-.07zm1.8.56c-.15-.01-.37-.31-.48-.14.09.08.3.38.48.14zm-3.05 3.14c.81-.2 1.9-.92 2.84-.35.39-.36.6-.88.7-1.53-1.42.4-2.4 1.22-3.54 1.88zm-2.57 3c-.18-.1-.29-.27-.56-.28.02.6-.14 1.03.07 1.47 1.3-.8 2.74-1.49 4.03-2.24.3-.18.6-.4.97-.48-.03-.27.02-.45.14-.56-1.97.28-2.79 1.71-4.66 2.09zm-.5-1.46c.05.1-.07.36.08.34.14-.2.78-.28.62-.55-.17.1-.43.4-.7.2zm4.87 1.67c.2-.05.43-.09.49-.28-.26 0-.37.14-.49.28zm1.6 2.23c.37.09.78.5 1.11.21-.1-.32.12-.6-.14-.7-.21.28-.72.25-.97.5zm-6.6.42c.33-.09.6-.24.76-.49-.34.02-.43-.21-.76-.2v.69zm4.52 2.1c-.24.1-.58.13-.77.27-.07.05-.04.15-.14.2-.14.09-.34.06-.48.15-.25.14-.45.4-.7.56-.13.08-.33.12-.48.2-.17.1-.31.27-.42.28-.37.07-.73-.06-1.11-.2-.1-.14-.04-.43-.35-.35-.11.5.17.61.28.9-.04.52.26.71.48.98a17.61 17.61 0 0 1 4.03-1.95c.1-.52.11-.86.35-1.33-.25 0-.45.18-.7.28zm1.04 2.43h.14v-.14h-.14v.14zm-1.67.63c.48-.2.87-.27 1.18-.49-.5.06-.9.2-1.18.49zm3.33.56c.04.02.1.34.14.14-.07-.1-.11-.21-.2-.28-.24.18-.38.22.06.14zm-.9.28c-.03-.17.32.04.2-.21-.13-.04-.35.18-.2.2zm-2.43.76c.78-.1 1.36-.4 1.95-.7-.73.16-1.32.45-1.95.7z"/></svg>