<svg xmlns="http://www.w3.org/2000/svg" width="47" height="57" viewBox="0 0 47 57"><path fill="#6d6152" d="M22.77 7.5c.53.43.6 1.32 1 1.86-.16.37-.07.47-.16.92-.44.57-1.32.7-2.26.76-.52-.23-.91-.6-1.42-.84.06-.5-.25-.91-.25-1.26.01-.54.5-1.17 1.34-1.43.24-.08.45 0 .75-.17.35-.2.66.48 1 .17zm6.69 2.95c-.59.2-1.07.87-1.76.93-.65.05-1.08-.48-1.75-.6-.04-.44-.3-.65-.42-1 .02-.4.29-.55.33-.93.82-.61 2.03-.53 3.01-.42.59.42.92 1.07.59 2.02zm-2.26 4.12c.16.3.28.62.5.84-.06.49-.33.7-.67 1.1-2.19.07-4.16-.13-6.26-.51-.5-.4-1.57-.63-1.42-1.43.08-.44.47-.3.75-.67 1.44-.12 2.27.45 3.5.59.27-.24.58-.01.93 0 .83.01 1.8-.09 2.67.08zm-2.34 19.17c.23 2.26-.01 4.8 0 6.73.01 1.84 0 3.86.17 5.55.05.55.09 1.14.42 1.51 1.24-.17 2.31.34 3.25-.25.47.18 1.07.21 1.42.5.42.86-.27 1.79-.91 2.1-1.5-.02-2.55-.37-4.18-.5h-.59c-.2-.02-.38-.16-.58-.17-1.2-.05-2.43.27-3.6.17-.16-.01-.33-.16-.5-.17-.55-.01-1.15.17-1.67-.16-.26-.28-.62-.62-.58-1.01.04-.46.52-.54.75-.84 1.38.1 3.01.12 4.6.25.2-1.07-.04-2.12 0-3.2.02-.65.12-1.45.08-2.27-.12-2.34.02-5.3 0-7.9.53-.33 1.28-.83 1.92-.34zM7.9 34.84c0 .26.1.4.17.58.06.23-.17.17-.25.26.05.17.16.28.33.33-.32.55-1.06 1.48-1.67.76-.26-.04-.3.15-.58.08-.2-.47-.51-.83-.5-1.51.4-.9 1.48-.77 2.5-.5zm3.93-.26c.2.27.45.5.67.76.16.4-.24.72 0 1.18-.68.78-2.1.41-2.76-.17L9.9 35c.77-.18 1-.5 1.92-.42zm22.39 1.85c.64-.81 2.32-.6 2.76.34-.03.55-.4.87-.42 1.17-.38-.04-.58.32-.92.34-.98.08-1.68-.72-1.42-1.85zm5.6-.59c.56.23 1.62-.22 1.92.6a4.96 4.96 0 0 1-.34 1.5c-1.07.22-1.84 0-2.25-.67-.15-.69.48-.84.66-1.43zM13 41.31c.17.8-.08 1.07-.42 1.51-.89.14-2.04.17-3.18.09-1.01-.07-3.18-.67-3.5-1.01-.22-.22-.4-.78-.34-1.01.09-.35 1.19-.93 1.76-.67.12.05.41.14.67.25.5.2 1.46.46 2.25.5 1.41.07 2.03-.35 2.76.34zm28.24-.34c.43.45.4.85.25 1.43-1.02.28-2.45.76-3.76.6-.75-.1-1.33-.48-1.84-.76-.07-.38-.28-.63-.17-1.01.11-.4.76-.63 1.42-.6.23.02.43.2.67.26 1.2.3 2.64.1 3.43.08zM27.95 22.81c.13.15.2.44.34.67.12.2.08.25.16.5.28.86.87 2.46 1.09 3.29.07.28.09.58.17.84.14.49.5.94.5 1.43 0 .17-.3.35-.09.5-.36 0-.33.4-.58.5-2.07-.03-5.09-.16-7.1.43-2.23-.44-5.43 1.6-6.02-.93.66-.85 1.3-1.73 1.92-2.6.49-1.82 1.62-2.98 1.76-5.13-3.03-.16-4.7-1.67-6.27-3.28-.62-1.47-1.27-2.56-1.67-4.13.03-1.54.11-3.05.5-4.37.1-.34.14-.77.25-1.09.17-.44.57-.83.76-1.26.11-.26.05-.57.16-.84.45-1.13 1.4-1.9 1.84-2.86.99-.66 1.5-1.8 2.67-2.27.23-.28.6-.41.76-.76C20.7.9 22 .35 23.69.35c.03-.07.23-.36.25-.16 1.76-.01 3.18.47 4.76.84a21.1 21.1 0 0 1 4.43 3.2c-.04.47.44.59.67.92.4.58.5 1.41 1.09 1.85.16.6.29 1.2.5 1.77.1.28.35.49.41.75.26.95.18 2.7.34 3.28 0 .03.16.32.17.26 0 .13-.17.08-.25.33-.03.08.06.83 0 1.18-.12.64-.58 1.3-.92 2.02-.09.17-.08.41-.17.59-.06.12-.26.2-.33.33-.34.61-.42.93-.84 1.43-.38.46-.87 1.06-1.34 1.43-.2.17-.48.4-.66.67-.32-.06-.4.1-.67.09-.4.3-.76.64-1.09 1-.96-.04-1.25.6-2.09.68zM25.2 21.3c.2-.05.39-.22.58-.26.44-.08.5.01.92-.08.53-.12.7-.28 1.09-.42.26-.1.63-.08.83-.17.69-.3 1.11-1.06 1.84-1.26.39-.67 1.24-.88 1.42-1.77 1.18-1 1.78-2.6 1.92-4.37.18-2.35-.87-4.38-1.59-6.05-.92-1.05-1.93-2.54-3.17-3.2-.1-.05-.16-.1-.25-.16-.73-.45-1.79-.73-2.84-1.02a8.07 8.07 0 0 0-4.77.6c-1.61.19-2.11 1.5-3.25 2.18-.17.73-.78 1.01-1.17 1.51 0 .28-.24.33-.17.68-.48.4-.79 1.1-1.09 1.76-.37.83-.83 1.88-.75 2.7-.72 1.67.07 3.65.5 5.29.35.5.61.8 1 1.18.46.43.96 1.11 1.43 1.34.33.17 1.03.29 1.25.42.78.5 1.9.03 2.84.42.17.17.13.55.25.76 1.13.08 2.18.13 3.18-.08zM12.9 47.36c.36.43.1 1.47.67 1.69-.04.22-.04.45 0 .67.18 1.07.61 2.11.75 3.03.13.8.04 1.5.26 2.27-.05.37-.52.32-.42.84-.4.04-.83.06-.92.42-.69-.3-1.35.1-2.09.25-.32.07-.62-.03-1 0-.44.04-.9.22-1.34.25-1.22.1-2.37.07-3.6 0-1.33-.08-2.61.2-3.25-.84-.16-.77.28-1.38.75-1.76.42-1.58 1.26-2.72 1.67-4.3.17-.02.23-.16.34-.24-.02-.67.76-1.55.58-2.2-.12-.44-.6-.5-1.17-.66-.47-.48-1.06-.84-1.58-1.26-.47-.8-1.04-1.49-1.6-2.2-.33-1.19-.96-2.49-.91-3.94.03-.83.43-1.54.42-2.36.6-1.16 1.09-2.43 1.75-3.53 1.05-.99 1.94-2.14 3.26-2.86.56.05.98-.44 1.5-.59.42-.12 1.03.06 1.26-.42.49.18 1.15-.02 1.42-.34.07-.05.15-.1.16 0 .17.13.61 0 .84-.08 1.26.33 2.57 1.19 3.93 1.68.56.61 1.15 1.2 1.92 1.6.43.77.83 1.57 1.42 2.19.28 1.21.86 2.07.83 3.61-.01.93-.39 1.82-.42 2.7-.45.3-.25.82-.41 1.26-.06.16-.3.37-.42.58-.45.84-.9 1.42-1.5 2.19-.14.18-.22.45-.34.59-.74.82-1.85 1.23-2.76 1.76zM9.66 31.4c-.1 0-.22.14-.34.17-.52.1-1.28.15-1.84.33a5.47 5.47 0 0 0-2.42 1.69c-.33.35-.63.55-.84.92-.33.62-.65.91-.91 1.51-.35.78-.65 1.38-.84 2.27-.06.29-.15.59-.17.76-.1 1.13.36 2.25.59 2.86.25.65.38.95.67 1.34.08.11.1.25.16.34.3.38.87.56.92 1.1 1 .21 1.85 1.02 3.1 1.25 2.07.4 3.8-.26 5.17-.75.32-.34.54-.54.84-.84.7-.7 1.2-1.4 1.75-2.19.23-1.4 1.06-2.6.92-4.12a7.5 7.5 0 0 0-.67-2.27 4.57 4.57 0 0 0-1-1.6c-.22-.18-.31-.4-.5-.58-.81-.8-1.9-1.17-2.76-1.77-.74.07-.96-.45-1.84-.42zm0 17.49c.02-.05.2-.33 0-.34-.03.05-.21.32 0 .34zm-4.85 5.8c.2-.22.66-.18.92-.34 0-.36-.42-.3-.42-.67.1-.31.28-.8.17-1.18-.18.89-.66 1.4-.67 2.2zm6.6-.17c.42.06.63-.1.84-.25.04-.34.02-1-.17-1.1-.16.52-.42.94-.67 1.35zm30.16-7.74c.09.6.45.9.42 1.6.55 1.16 1.1 2.3 1.5 3.62.04.24.36.2.42.42-.01.49.14.8.08 1.34-.55.44-1.32.3-2.09.42-1.28.21-2.4.68-3.92.85-2.57.28-4.89-.17-6.35-1.52.04-.78.7-1.48 1.33-1.93.57-1.37 1.55-2.32 1.84-3.95-1-.62-2.16-.87-3-1.6-.55-.47-.88-1.1-1.51-1.43-.13-.44-.25-.76-.42-1.35-.08-.27-.28-.44-.33-.67-.08-.32-.01-.83-.08-1.26-.1-.61-.3-1.94-.17-2.7.03-.19.18-.43.25-.67.18-.6.4-1.53.67-2.01.17-.31.5-.49.75-.76.22-.24.36-.71.75-.67.13-.47.46-.78.75-1.1.29-.3.64-.54.84-.92 1.21-.46 1.93-1.42 3.42-1.6.05-.12.14-.2.26-.25 1.38.27 2.62-.13 4 .25.36.3.77.44 1.17.68.42.24.52.45.92.75.22.17.54.18.76.34.11.09.18.29.33.42.3.27.98.7 1.25 1 .44.5.58 1.17 1.09 1.6.06.73.18 1.4.5 1.86-.28.53-.03 1.11-.17 1.68-.06.29-.25.55-.33.84-.24.88-.44 1.7-.75 2.52a2.1 2.1 0 0 0-.75 1.26c-1.04 1.1-2.05 2.2-3.43 2.95zm1-12.1c-.7-.55-1.93-1.59-2.59-1.85-.54-.22-.82-.04-1.34-.09-.32-.02-.75-.28-.91-.17-.23.17-.47.05-.59.09-.64.2-1.13.85-1.92 1a1.4 1.4 0 0 1-.83.68c-.46.95-1.47 1.33-1.76 2.44-.36-.08-.24.32-.5.34-1.02 1.63-.7 4.37 0 6.22 1.28 1.17 2.7 2.65 5.1 2.52.4-.02.81-.35 1.33-.08.3-.26.4-.34.92-.25.31-.2.56-.45 1.09-.43 1.67-1.03 2.68-2.73 3.59-4.54.03-.64.27-1.07.5-1.51-.25-.34 0-.95 0-1.51-.13-.3-.35-.5-.25-1.01a7.32 7.32 0 0 0-1.84-1.85zm-2.92 13.11c.03-.13.26-.07.16-.33-.12.01-.3-.03-.33.08.14 0 .05.23.17.25zm1.42 4.12c.1-.38-.07-.76-.34-1-.38.34-.25.99.34 1z"/></svg>