<svg xmlns="http://www.w3.org/2000/svg" width="56" height="52" viewBox="0 0 56 52"><path fill="#6d6152" d="M47.16 10.23c.6.29 1 .78 1.85.83 1.1.67 2.25 1.46 3.28 2.32.38.31.49.53.84 1 .14.17.4.33.51.5.1.17.13.5.25.74.12.23.24.37.34.58.27.6.39 1.1.5 1.75a5.03 5.03 0 0 1-.67 3.24c-.63 1.2-1.12 2.16-2.7 2.49.6 1.65 1.95 2.56 2.53 4.23.12.13.21.29.42.33-.06.31.1.4.09.67.42.41.58 1.26.84 1.99.18.5.54 1.92.59 2.74.13 2.12-.61 3.94-2.27 4.9a2.8 2.8 0 0 0-1.35.5c-1.09 0-2.2.3-3.28.24.18 1 .73 1.85.67 2.83-.04.6-.38 1.12-.42 1.82-.45.37-.93.69-1.18 1.25a6.1 6.1 0 0 0-1.94 1.08c-.69.2-1.42.37-2.19.66-.68.27-1.14.63-2.19.75-.29.03-.62-.04-.92 0-1.7.19-3.69.07-5.3-.67-.44.5-.34 1.14-.6 1.66-.29.6-1 1.12-1.26 1.83-.54.25-.9.66-1.34 1-.7-.05-1.09.2-1.52.41-.68.07-1.18-.18-1.6.09-.64-.33-1.24-.07-1.85-.17-.6-.1-1.27-.6-1.85-.91-.2-.11-.52-.15-.68-.25-1.08-.68-1.83-1.91-2.77-2.58-.1-.49-.23-.94-.68-1.08.07-.1.11-.22.09-.41a4.74 4.74 0 0 1-.76-1.66 7.4 7.4 0 0 1-4.46.74c-.51-.1-.89-.42-1.43-.33-1.97-1.1-3.78-2.36-4.38-4.81-1.46-.02-1.82-.18-3.12-.5-.29-.27-.56-.55-1-.66a8.62 8.62 0 0 1-1.94-3.24c.08-.79-.08-1.49.25-2.08.3-.54 1.02-.76 1.18-1.32-.63-.73-1.68-.78-2.53-1.17-.21-.1-.38-.3-.59-.41-.41-.21-.82-.38-1.26-.58a9.84 9.84 0 0 1-1.1-.59c-.29-.8.15-.93.43-1.49 1.4-.73 2.22-2.02 3.87-2.49.78-.62 1.93-.86 2.86-1.33-.38-1.38-1.63-2.67-1.77-4.4-.14-1.77.52-3.54 1.27-4.98-.07-.34.12-.43.08-.75.94-1.84 2.84-3.77 5.3-3.32 1.05-2.17 2-4.15 3.7-5.73.74-.68 1.35-1.33 2.28-1.82.2-.1.33-.29.42-.5a5.08 5.08 0 0 0 2.02-1c.6 0 .77-.17 1.35-.33 1.93-.52 5.17-.13 6.48 1 1.22-.82 2.73-1.35 4.13-2 .34.09.54-.2.76 0 .11-.43.97-.14 1.09-.58 2.41-.04 4.4-.29 6.57.42.85.28 1.73.45 2.44.83.1.06.1.22.25.33.14.1.37.05.42.08.22.15.5.36.67.5.5.4.58.53 1.01 1 .27.29.4.38.68.75a6.7 6.7 0 0 1 1.35 3.23c0 .21-.07.58-.09.92 0 .15-.06.36-.08.5a3.32 3.32 0 0 1-.6 1.4zm-1.43-2.24c.04-.41-.06-1.04-.17-1.25-.16-.3-.04-.35-.17-.58-.25-.47-.15-.48-.42-.83A7.3 7.3 0 0 0 42.02 3c-.47-.2-.96-.54-1.35-.66-1.88-.6-5-.3-6.4.17-.28.1-.56.24-.84.33-.12.04-.29-.03-.42 0-.64.16-1.13.73-1.76.74-.13.1-.12.34-.34.34-.19.19-.39.13-.6.25-.5.3-1.07 1.18-1.6 1.24-1.05.13-1.4-1.05-1.93-1.41-.65-.44-2.96-.68-4.12-.42-.36.09-1.16.51-1.35.59-.72.28-1.12.76-1.93 1.08-.75.87-1.81 1.42-2.62 2.24-.82 1.43-1.9 2.6-2.27 4.48-.08.39.34.28.26.66-.27.68-.87 1.04-1.69 1.17-.25-.72-1.25-.91-2.1-.67-.22.06-.82.47-1.1.75-.31.31-.7 1.04-.92 1.5-.16.31-.34.54-.43.82-.04.15-.11.2-.16.34a8.7 8.7 0 0 0-.34 4.9c.42.75.86 1.47 1.26 2.24 1.09.3.7 1.73.09 2.24-2.14 1.04-4.68 1.7-6.23 3.32.54.4 1.4.5 1.85 1 .94-.13 1.01.6 1.85.58.02.42.34.54.5.83.24-.1.74-.22.93-.09.28.69-.23 1.2-.59 1.75-.63.96-1.56 1.76-1.1 2.99.29.73.51.9.94 1.32.11.12.15.35.25.42.83.62 1.68.72 2.77.41.19-1.08 2.07-1.8 2.61-.74.14.27-.04.42.09.74-.37.38-.38.53-.5 1.17-.13.59 0 1.15.25 1.66.32.69.85 1.3 1.6 1.82.27.2.6.27.92.42.38.18.66.42.93.5.88.25 1.5-.21 2.27-.25.22-.3.5-.56.84-.75.23-.57.35-1.26.68-1.74.47 0 .73-.22 1.1-.33.21.22.55.33.83.5.21.84.08 1.81.34 2.73.04.13.18.3.25.5.39 1.03.75 1.74 1.27 2.49.21.32.39.7.58.91.13.14.42.18.6.34.2.17.25.45.42.58.44.35 1 .55 1.51.74.2.08.42.2.59.25 1.24.37 1.96.19 2.78-.08a4.54 4.54 0 0 0 1.93-1.16c.55-1.18 1.25-2.82.34-3.9.3-.72 1.16-1.27 1.94-.92.41.2.58.82.92 1.08.25.19.81.29 1.18.42.2.07.38.37.5.41.2.07.59.12.85.17 2.66.5 5.29-.51 7.24-1.66 1.23-.73 2.23-1.19 1.85-3.07-.04-.24-.24-.93-.33-1.17-.06-.11-.27-.2-.34-.33-.1-.19-.17-.35-.26-.5-.5-.86-.78-1.43.17-1.9.6-.23 1.31.03 2.02.08 1.75.11 3.72-.14 4.55-1.08.86-.98.73-2.83.08-4.48 0-.8-.32-1.12-.58-1.75-.2-.47-.32-.97-.5-1.33-.08-.12-.26-.11-.35-.24-.07-.13 0-.38-.08-.5-.15-.23-.36-.45-.5-.67-.33-.5-.62-1.05-.93-1.5-.48-.67-2.06-2.28-1.69-3.23 1.21-.55 2.74-.78 3.46-1.83.41-1.1.85-2.1.5-3.32a7.37 7.37 0 0 0-5.13-4.81c-.71-.55-1.72-.8-2.53-1.25-.14-.28-.24-.6-.34-.91.52-.9 1.14-1.52 1.27-2.57zm-9.6 14.77c.38.3.88-.03 1.35 0 1.12.1 2.32.66 3.11 1.17.24.06.22-.12.42-.09 1 1.01 2.6 1.43 3.2 2.82.64-.2.93.55 1.77.42.13.26.5.28.76.42.34.86 1.01 1.68.92 2.73-.01.19-.12.12-.17.25-.1.35-.15.97-.33 1.25-.05.07-.28.26-.42.41-.59.65-1.67 1.5-3.12 1.17-.34-.08-.54-.38-.92-.42.01-.23-.29-.16-.17-.5-.7.08-.55-.67-1.18-.66-.25-.8-.52-1.46-.42-2.33.1-.9.76-1.55 1.26-2.07-.3-.7-1.09-1.22-1.85-1.66a8.5 8.5 0 0 0-3.2-1.16c-.05.66.29 1.29.5 2.07.23.8.53 1.89.68 2.82.09.58.05 1.2.17 1.75.04.2.2.39.25.58.04.18-.1.22-.09.33.02.07.17.14.17.25 0 .25-.26.6.09.83-.26.78.02 1.57 0 2.33-.04 1.68-.72 3.13-1.35 4.56-1.85.05-4.02.06-6.06.17-.54.02-1.2-.05-1.85 0-.27.02-.56.15-.85.16-.7.05-1.6-.14-2.52-.16-1.01-.02-2.07.08-2.86-.09-.18-.03-.3-.19-.5-.25-.74-.2-1.29-.18-1.7-.74.14-1.07.08-2.13.18-3.16.01-.15.13-.25.16-.41.06-.31-.03-.77 0-1.16.03-.32.16-.64.17-.92 0-.11-.1-.3-.08-.41.03-.2.18-.29.25-.5.05-.16.04-.46.08-.66.09-.38.1-.83.26-1.5.09-.4.13-.73.25-1.33.1-.47.38-.86.5-1.33.12-.41.1-.66.17-.9.1-.3.22-.69.26-1.17-.08-.27.21-.17.25-.33-1.6.04-2.61 1.4-3.37 2.57.06.09.2.09.17.25-.51.72-.59 1.97-1.18 2.82-.45.2-.74.54-1 .92-1.44.85-3.65.39-4.47-.92-.52-1.88-.36-3.18.59-4.4.77-.3 1.24-.61 2.1-.5.93.13 1.45.9 2.1.67.36-.13.52-.43.76-.92 1.24-1.16 2.87-2.37 4.97-2.4.3-.13.29-.55.5-.75-.65-.65-1.23-1.38-1.93-2-.34-.7-.6-1.3-.93-2.15-.02-.08-.2-.25-.25-.42-.09-.4 0-.83-.08-1.24-.1-.53-.2-.93-.09-1.66.02-.12.16-.21.17-.33.05-.47.1-1.15.25-1.5.16-.37.62-.55.51-1 .78-.61 1.39-1.39 2.02-2.15a6.1 6.1 0 0 0 1.85-1.17c1.62-.34 3.38-.89 5.3-.66.32.04.75.09 1.02.17.45.13.74.56 1.26.41 1.06.78 2.11 1.57 2.95 2.58.52 1.16 1.22 2.2 1.6 3.65.02.1-.03.23 0 .33.01.06.16.15.16.17.05.27-.1.63-.08.9.06 1 .1 1.46 0 2.42-.42 1.05-.84 2.1-1.43 2.99-.45.13-.75.42-1.01.74zm.25-4.23c.05-.17.16-.5.17-.58.36-2.86-1.88-6.16-4.21-7.14a4.58 4.58 0 0 0-2.27-.42 7.23 7.23 0 0 0-4.13 1.5c-.47.74-1.27 1.1-1.68 1.9-.22.45-.3.8-.42 1.34-.46 1.9.3 3.68 1 4.9.5.27.94.35 1.52.58.72.27 1.7.97 2.36 1.16.66.18 1.38.11 1.94.16.66.06.93.22 1.51.08.14-.03.23.02.34 0 1.07-.16 1.42-.66 2.27-.9a6.2 6.2 0 0 0 1.6-2.58zM32.08 24c-.34-.22-.67-.05-1.09-.09-1.28-.1-2.98-.59-3.87-.5-.13.59.44.87.59 1.17.05.1-.11.1 0 .25.02.02.24.05.34.16.09.11.08.33.17.42.06.07.18 0 .25.08.1.16.18.37.25.58.73.37 1.5.93 2.36.92.33-.41.73-.75 1.26-.75.34-.55 1-.79 1.18-1.5.43-.12.59-.52.67-1a5.1 5.1 0 0 0-2.1.26zm-6.39 1.74c-.17.56-.7 1.52-.59 2.33-.42.17-.24.64-.34 1-.09.32-.25.6-.33.99-.04.16.02.37 0 .5-.11.49-.34 1.05-.42 1.66-.05.3-.17.67 0 .91-.07.13-.27.12-.26.33-.07 1.73-.44 2.87-.16 4.57.92.04 1.54.37 2.52.16-.33-1.18.34-2.5-.17-3.65.42-.66-.1-2.05.42-2.99-.13-.28-.18-.65-.25-1 .4-.6 1.77-.63 2.27-.08.06.3-.18.32-.16.58.12 1.4-.02 2.6 0 3.9 0 .88.08 1.78-.09 2.66.16.1.02.48.25.5-.1.08-.25.14-.33.25 1.29-.08 3.12.1 4.29-.08.14-.52-.41-.37-.42-.75-.09-.63.1-1.2.17-1.91.03-.34.1-.72.08-1 0-.13-.17-.3-.17-.41.01-.25.15-.56.17-.83.07-.93-.12-1.48.25-2 .53-.13 1.22-.29 1.6.09.24.25.04.43.09.75.02.15.16.2.17.33.01.35-.15.7-.17 1.08-.06 1.2.1 2.46-.17 3.24.1.12.35.1.34.33-.12.25-.26.8-.17 1 .68.1 1.1-.23 1.85-.09.25-.63.72-1.39.76-2.16.01-.32-.16-.73-.17-1.08-.01-.32.1-.62.08-.91 0-.13-.15-.3-.17-.42-.06-.54.07-1.15 0-1.66-.03-.3-.19-.59-.25-.9-.11-.65-.17-1.39-.25-1.84-.19-1.06-.2-2.25-.84-2.9-.74.79-1.6 1.48-2.44 2.16-1.39.49-3.6.43-4.72-.25-.54-.94-1.58-1.37-2.02-2.4h-.25zm-8.67 5.07c.42-.53.91-.99 1.18-1.67-1.06-.17-1.03-1.42-2.44-1.24-.54 1.4-.36 3.03 1.26 2.9zm26.1-1.42c-.12.34-.3.65-.26 1 .08.6 1.13 1.54 1.69 1.33.55-.61 1.33-1.62 1-2.58-.83-.75-2.06-.76-2.43.25zm-13.9-16.68c-.19.3-.18.8-.42 1.08-1.09-.11-2.48-.5-1.76-1.66.95-.33 1.82-.26 2.19.58zm4.64.58c-.67.52-1.8.14-2.2-.33 0-.25.18-.94.68-1.08.12-.04.75-.03.84 0 .69.18.64.65.68 1.4zm-7.33 1c.23.18-.12.41.09.58 1.08.3 1.9.38 3.11.08 1.56.3 3.5.05 5.14.41.4 1.18.25 2.95-.09 4.07-.4 1.3-1.78 1.6-3.03 2.08-.97-.34-2.18-.32-3.28-.67-.27-.08-.5-.27-.76-.33-.62-.14-.78-.14-1.26-.5-.31-.22-.4-.23-.76-.5-.09-.06-.03-.1-.17-.16-.2-.1-.1-.18-.25-.42-.26-.42-.8-.76-.93-1.49-.05-.34.12-.86.17-1.33.04-.33-.07-.62 0-.83.16-.47.58-.79 1.1-1.08.12.3.5-.02.92.09zm4.55 2.49c-1.43-.12-2.98.18-4.63 0 .28 1.4 1.3 2.09 2.78 2.32.66.6 1.91.46 2.94.33.56-.57.8-1.46.76-2.4-.64.13-1.24-.2-1.85-.26z"/></svg>