<svg xmlns="http://www.w3.org/2000/svg" width="41" height="50" viewBox="0 0 41 50"><path fill="#6d6152" d="M24.72 12.84a2.9 2.9 0 0 0 0 1.06c-.14.17-.39.23-.4.53-.41-.02-.8.08-1.2-.2-.11-.52-.47-.65-.4-1.12.02-.13.26-.52.4-.6.14-.07.79-.18 1-.13.27.06.37.45.6.46zm4.48.07c-.22.19-.16.64-.21.99-.29.13-.38.45-.66.6a4.3 4.3 0 0 1-1.27-.6c.04-.29-.08-.41-.2-.53.04-.29.31-.36.33-.66.29.17.72-.34 1.07-.33.41.01.46.34.94.53zm5.53 1.45c-.72.37-.98-.17-1.6-.26-.07-.18-.08-.4-.26-.47-.02-.72 1.52-1.34 2.06-.72.4.44-.06.86-.2 1.45zM12.97 44.57c.37-.58.6-1.05 1.34-.92.78.13.99.95.73 1.65-.67.5-1.99.26-2.07-.73zm12.82-20.5c-.03 1.8.5 3.5.47 5.16-.01.36-.14.66-.14 1 .01.27.12.5.14.79.07.91.06 2.13.13 2.97.03.36.11.71.13 1.06.05.63.08 1.23-.06 1.85.2.87.12 1.8.13 2.78.01 1.21.05 2.51-.07 3.83-.02.3-.08.77-.2 1.06-.2.54.15 1.42-.8 1.4.01.37.44.47.47.85.04.48-.28.69-.6 1-.85.02-2.61-.21-4.01-.07-.14.01-.32.12-.46.13-.44.02-.87-.1-1.27-.07-.17.02-.35.11-.54.13-.88.11-1.76-.13-2.46.27-.74-.08-1.28.22-1.87.26-.13.01-.28-.08-.4-.06-.24.03-.43.18-.67.2-.91.06-1.84-.04-2.8 0-.15 0-.41-.03-.54 0-.14.02-.24.17-.4.2-1.26.2-2.59.16-3.74.13-.62-.02-1.23.1-1.73.06-.17-.01-.41-.16-.6-.2-.6-.11-1.07-.2-1.6-.33-.18-.35-.6-.46-1.01-.6-.29-2.5-.34-5.58-.26-8.52 0-.2.09-.24.13-.46 0 0-.08-.13-.07-.2l.14-.13c0-.11-.13-.3-.14-.4-.01-.2.07-.42.07-.6 0-2.7-.08-5.56.27-8.13.02-.24-.27-.17-.2-.46.12-.13.06-.42.2-.53.03-1.6.06-3.36.13-4.89.02-.29.03-.58.07-.86.05-.4-.03-.93 0-1.39.02-.4.14-.8.13-1.19 0-.14-.08-.37-.06-.53.01-.15.12-.3.13-.46.01-.26-.09-.48-.07-.73.02-.23.17-.43.2-.66.02-.14-.07-.33-.07-.46.03-.42.34-.89.41-1.32.03-.21-.03-.39 0-.6.19-.33.57-.49.73-.86.74-.07 1.53-.63 2.4-.79.25.07.13-.22.27-.26.43 0 .96.24 1.47.06a7.4 7.4 0 0 1 1.93-.2c.17.02.23.13.4.14.14 0 .3-.12.47-.14.34-.02.84.17 1.14-.13.39.24.67 0 1.13-.06.25-.04.57.09.8.06.29-.03.54-.18.8-.2.61-.04 1.22.12 1.74-.13a7.77 7.77 0 0 1 .2-3.1c.09-.39.15-.81.27-1.13.23-.61.72-1.11.86-1.72 1.02-1.15 2.03-2.33 3.34-3.24.42-.3.94-.5 1.27-.93.53 0 .82-.24 1.07-.52.39.06.54-.13.73-.27.55-.18 1.15-.3 1.6-.6.65.18 1.25-.19 1.87-.26.29-.03.58.08.87.07.34-.02.62-.1 1.13-.13 1.01-.06 2.59.09 3.88.4.25.3.62.21.93.32 1.82.68 3 2.17 4.54 3.18.07.46.52.72.73 1.12.27.5.27 1.1.67 1.52.05.6.15 1.13.4 1.52 0 1 .08 1.94.07 2.91-.02 1.2-.13 2.22-.27 3.5-.1.94-.47 1.71-.6 2.65-.22.2-.36.48-.4.86-.6.56-.87 1.24-1.4 1.78-.41.42-1.08.77-1.6 1.2-.07.04-.1.23-.14.26-.21.15-.54.22-.8.4-.25.16-.41.35-.67.46-.5.22-1.15.46-1.67.6-.46.1-.96.06-1.46.2-.15.03-.31.16-.47.19-.23.04-.5-.04-.8 0-.24.03-.51.19-.74.2-.27.01-.56-.13-.86-.14-.87-.01-1.64.1-2.34-.06zm-3.94-3.43c.13.12.27.22.54.2.07.17.26.22.26.46.67.23 1.1.68 1.67 1 1.74-.08 3.29.57 5.14.06.16.02.28.08.4.13.58-.01 1.09-.35 1.6-.46.27-.06.54 0 .81-.07 1.32-.38 2.15-1.28 3.27-1.98a7.57 7.57 0 0 0 2.33-4.5c.14-.88.11-1.83.2-2.77.02-.16.13-.36.14-.53.04-1.84-.33-3.6-.94-5.02a10.77 10.77 0 0 0-3.07-2.98c-.38-.25-.64-.44-1.07-.66a5.27 5.27 0 0 0-2.4-.66c-.11-.12-.25-.2-.4-.27-1.5.14-3.05.1-4.34.34-.18.03-.45.13-.67.2-.2.06-.47.22-.66.26-.16.03-.21-.05-.34 0-.66.24-1.29.61-1.87.92-.59.32-1.1.76-1.73 1.13.05.23-.08.28-.14.4-.99.68-1.69 1.67-2.47 2.57-.05.19.1.17.07.33-.96 1.07-1.01 3.24-.53 4.56.08.23.05.37.13.47l.33.46c.12.17.26.38.34.46.29.3.74.44 1.07.73.06.05.06.19.13.26.17.18.15 0 .2.2.04.17-.19.37 0 .4-.39.24-.48.6-.6.92-.36.92-.8 1.88-1.27 2.65-.1.17-.24.29-.33.46-.11.19-.11.43-.2.6-.22.38-.63.6-.74 1.05 1.7-.25 3.42-.76 5.14-1.32zm-6.94-6.01c-.85.06-1.87.1-2.8.2-.53.05-1.08.2-1.61.2-.26 0-.48-.1-.73-.07-.33.02-.65.17-1 .2-.33.02-.67-.03-1 0-.85.07-2.01.42-2.87.46-.18.2-.41.34-.74.4-.42 1.07-.45 2.39-.53 3.63-.02.27-.12.49-.13.73-.07 1.11-.05 2.27-.07 3.37-.02.79-.1 1.6-.07 2.05.03.3-.02.35-.06.6-.02.09.01.18 0 .26-.05.33-.15.71 0 1.12-.1.13-.16.29-.2.46.04.2.07.41.2.53-.41.78-.12 1.88-.2 2.71-.17 1.68-.2 3.27-.07 5.42-.22.2-.06.52-.07.8-.03.9.06 1.9 0 2.77-.01.18-.13.35-.13.53 0 .22.13.43.13.66 0 .14-.12.26-.13.4-.03.53 0 1.18 0 1.72 0 .4.17.88.13 1.26-.01.15-.14.2-.13.33.01.22.1.5.13.72.05.28.12.5.14.73.59.05 1.15.34 1.8.4.8.07 1.72-.06 2.67-.13 1.06-.1 2.16-.2 3.27-.27.52-.03 1.02.07 1.53 0 .72-.1 1.63-.1 2.41-.13.71-.03 1.34-.23 2-.33 2.4-.37 4.78-.3 6.87-.33.26 0 .57.15.81-.07.12-.26-.05-.73-.14-1 .24-.3.22-.6.27-.98.16-1.25.09-2.31.2-3.64.04-.44-.05-.64-.07-.99-.01-.27.1-.5.07-.73-.17-1.27-.08-2.62-.13-4.03-.05-1.27-.32-3.1-.34-4.1-.02-.75.14-1.49.07-2.31-.03-.3-.19-.58-.2-.86-.02-.23.08-.5.06-.73-.07-.93-.34-1.8-.2-2.77-.29-.06-.71-.28-.93-.2.05.91.12 1.74.13 2.7 0 .2.18.23.2.4-.28 1 .02 2.06-.06 3.11-.05.6-.18 1.2-.2 1.72-.01.26.07.54.06.8 0 .14-.11.24-.13.39-.02.18.02.38 0 .6a19.74 19.74 0 0 0-.07 3.04.99.99 0 0 0-.26.59c-.06.36.11.79.13 1.26.03.78-.11 1.67-.13 2.38-.01.2.12.32.13.53 0 .03-.23.43-.07.52-.24.51-1.09.42-1.53.73-.52-.17-1.1.02-1.47.07-.27.03-.61-.08-.87-.07-.2 0-.41.12-.6.13-.31.02-.61-.13-.93-.13-.15 0-.25.11-.4.13-.28.04-.62-.06-.94-.06-.77 0-1.64.04-2.4.06-.31.01-.64-.08-.94-.06-.15 0-.32.13-.46.13-.2 0-.41-.12-.6-.13-.23-.02-.46.07-.67.06-.24 0-.49-.12-.74-.13-.08 0-.17.14-.26.13-.12 0-.22-.13-.34-.13-.29 0-.59.1-.93.07-.96-.1-1.81-.02-2.67-.27-.24-.01-.32.13-.53.14-.27-.23-.44-.54-.74-.73-.05-.4.04-.9-.13-1.32-.02-.18.26-.06.2-.27.01-.72-.1-1.41-.13-2.18-.02-.23.08-.45.06-.66-.02-.17-.13-.36-.13-.53 0-.38.15-.73.2-1.12.06-.54 0-1.27.06-1.6.04-.18.19-.3.2-.45.04-.4-.1-.81-.06-1.2.03-.27.17-.5.2-.79.04-.35 0-.86 0-.92-.03-.4.02-.3.07-.66.1-.9.08-1.51.13-2.32-.05-.26-.44-.18-.4-.53.15-.4.35-.75.6-1.05-.12-.67.34-1.37 0-1.99.16-.52.15-1.15.13-1.78-.02-.69-.1-1.41-.13-2.12-.03-.16.3.04.2-.2-.1-.52.24-.6.33-.92-.19-.2-.14-.25-.2-.53.18-.2.42-.34.6-.53 1.76-.43 3.41-.45 5.01-.86a4.5 4.5 0 0 0 1.73.07c.36-.05.44.03.81.06.12.02.2-.07.33-.06.11 0 .23.13.33.13.78 0 1.58-.14 2.61-.07-.04-.43.04-.75.13-1.05-.56-.4-.97-.94-1.34-1.52-.46.03-.86-.04-1.33 0zm-5.14 5.02c.09-.72-.58-.56-1.13-.46.02.5-.02 1.07.2 1.39.28-.34.72-.53.93-.93zm4.94 1.32c.02.2.19.26.27.4.16-.22.25-.47.26-.66-.28-.02-.33.2-.53.26zm-4.47.4c.15.03.36.15.4-.07-.13-.02-.05-.25-.27-.2-.03.1-.1.17-.13.27zm.8 1.92c.33-.1.1-.32 0 0zm2 1.52c.41.03.56-.2.6-.53-.16-.2-.39-.32-.33-.73h-.27c-.02.53-.05.74 0 1.26zm5.27.13h.14v-.27h-.14v.27zm-7.07 1.85c.44-.2.26-1.15.2-1.72-.02-.05-.06-.08-.13-.07-.39.42-.14 1.34-.07 1.79zm8.61-.2c.21.06.42-.45.13-.46-.07.12-.08.31-.13.46zm-4.4.53c.04.18-.09.53.06.6.25-.16.35-.45.67-.53-.13-.66.39-.68.6-1-.69.07-.89.62-1.33.93zm-2.14 2.38c.24-.04.32-.25.53-.33-.19-.29.16-.71-.13-.86-.38.21-.59.78-.4 1.19zm6.27-.13c.45.05.57-.72.34-.93-.27.28-.43.42-.34.93zm-3.94 0c-.24.2-.17.48-.13.86.38-.18.82-.3.8-.86-.15-.13-.37.07-.67 0zm-4.27 1.98c.24-.26.48-.87.14-1.19-.27.14-.41.92-.14 1.2zm1.8 1.26c.39-.35.89-.7.67-1.46-.54.17-.77.65-.67 1.46zm6.48-.93c.19 0 .19-.47 0-.46-.18.03-.35.48 0 .46zm-4.07 1c.31-.24.8-.31.73-.93-.46.09-.71.39-.73.92zm-5.94.2c.09-.1.13-.53-.07-.54.04.16-.08.48.07.53zm1.6 1.38c.19.05.17-.1.33-.07-.07-.3.16-.9-.13-.99-.11.25-.24.74-.2 1.06zm-4.47 1.06c.19-.4.05-1.2.2-1.79-.02-.07-.08-.1-.14-.13.01.63-.22 1.36-.06 1.92zm6.34-.47c.42-.11.67-.39.8-.79-.42.12-.67.4-.8.8zm6.34.07c.11-.13.38-.73.07-.86-.08.2-.26.63-.07.86zm-3.87.2c.17-.36.69-.37.66-.93-.43.06-.79.54-.66.93zm-6.08.8c.37-.05.32-.68 0-.73.1.28-.02.36 0 .72zm-2.8.79c0 .15-.28.37 0 .4.18-.46.31-1.15-.07-1.46-.14.28.08.7.07 1.06zm4.61 0c.11-.11.24-.2.2-.47-.28-.05-.5.36-.2.47zm1.66.2c.05.17-.08.52.07.59.34-.17.36-.66.8-.73-.03-.11-.03-.27-.13-.33-.23.17-.35.45-.74.46zm3.01-.07c-.34.24-.64.52-.53 1.19.34.08 1.04-.83.53-1.2zm-9.21.66c-.03-.13.09-.4-.14-.33-.1.1-.09.37.14.33zm11.28.46c-.27-.02-.36.13-.34.4.08.05.18.08.34.06.34-.51 1.07-.65 1.47-1.12-.44.08-1.31.11-1.47.66zm-11.35.07c.09-.56-.29-.27 0 0zm1.6 1.25c.07 0 .08.06.14.07-.01-.1.01-.23-.14-.2v.13zm.2.6c-.01-.12-.04-.22-.13-.27.01.12-.07.34.13.27zm-1.73.66c.28-.04.44.05.66.07.03-.23-.28-.11-.4-.2a1.3 1.3 0 0 0-.4-.4c-.03.26.06.38.14.53zm2.13-.13c.16.02.15-.12.34-.07.01-.12-.08-.14-.07-.26-.26.04-.28.05-.47-.07-.05.25.2.2.2.4zm4.34.2c.2.37.66.1.87.06.39-.06.87.05 1.27 0-.04-.17.44-.37.13-.4-.79.32-1.37.12-2.27.34zm11.48 5.42h.14c0-.07.05-.08.06-.14-.12.07-.22-.2-.26 0 .05.02.07.06.06.14z"/></svg>