<svg id="cloud.svg" xmlns="http://www.w3.org/2000/svg" width="791" height="413" viewBox="0 0 791 413">
  <defs>
    <style>
      .cls-1 {
        fill: #cbb17c;
      }

      .cls-1, .cls-2, .cls-3 {
        fill-rule: evenodd;
      }

      .cls-2 {
        fill: #fff;
      }

      .cls-3 {
        fill: none;
        stroke: #cbb17c;
        stroke-width: 1px;
        stroke-dasharray: 4 2;
      }
    </style>
  </defs>
  <path id="Фигура_8_копия" data-name="Фигура 8 копия" class="cls-1" d="M3307.4,425.763c-1.71-64.179-63.77-127.443-144.6-118.833-40.32-82.147-254.82-120.336-324.58-13.718-34.58-13.773-126.82,8.14-127.98,89.019-1.09-.047-2.17-0.1-3.27-0.117-61.67-.769-112.25,47.994-112.97,108.907s48.7,110.916,110.37,111.674a112.107,112.107,0,0,0,60.47-16.719,124.121,124.121,0,0,0,95.63,15.133,203.1,203.1,0,0,0,245.15-11.048,155.239,155.239,0,0,0,138.26-14.987,81.467,81.467,0,0,0,46.05,14.865c44.8,0.551,81.55-34.865,82.07-79.117C3372.44,473.5,3342.27,435.089,3307.4,425.763ZM2993.76,255.714a8.881,8.881,0,1,1,8.68-8.874A8.773,8.773,0,0,1,2993.76,255.714Z" transform="translate(-2581 -224)"/>
  <path id="Фигура_8_копия-2" data-name="Фигура 8 копия" class="cls-2" d="M3286.96,414.97c-1.7-61.968-63.11-123.049-143.09-114.74-39.9-79.314-252.16-116.187-321.19-13.242-34.22-13.3-125.5,7.856-126.65,85.951-1.07-.046-2.14-0.1-3.23-0.118-61.03-.735-111.08,46.342-111.79,105.159s48.19,107.091,109.22,107.826a113.028,113.028,0,0,0,59.84-16.141,124.215,124.215,0,0,0,63.44,18.144,125.621,125.621,0,0,0,31.18-3.534,204.989,204.989,0,0,0,242.6-10.666,156.527,156.527,0,0,0,51.79,9.41,154.963,154.963,0,0,0,85.02-23.886,81.961,81.961,0,0,0,45.57,14.354c44.33,0.533,80.7-33.661,81.21-76.39C3351.32,461.06,3321.47,423.974,3286.96,414.97ZM2976.59,250.781a8.573,8.573,0,1,1,8.59-8.569A8.573,8.573,0,0,1,2976.59,250.781Z" transform="translate(-2581 -224)"/>
  <path id="Фигура_8_копия-3" data-name="Фигура 8 копия" class="cls-3" d="M3274.61,413.765c-1.62-58.639-60.39-116.446-136.93-108.58-38.19-75.058-241.31-109.957-307.37-12.533-32.75-12.587-120.1,7.434-121.2,81.337-1.03-.042-2.06-0.1-3.1-0.108-58.4-.7-106.29,43.854-106.98,99.514s46.12,101.345,104.52,102.04a109.089,109.089,0,0,0,57.27-15.277,119.855,119.855,0,0,0,60.71,17.172,121.552,121.552,0,0,0,29.84-3.345,196.07,196.07,0,0,0,106.86,32.78c47.73,0.569,91.55-15.634,125.3-42.877a151.09,151.09,0,0,0,49.57,8.9,149.513,149.513,0,0,0,81.36-22.6,79.05,79.05,0,0,0,43.61,13.581c42.42,0.506,77.22-31.855,77.72-72.29C3336.21,457.38,3307.63,422.285,3274.61,413.765ZM2977.6,258.39a8.115,8.115,0,1,1,8.22-8.113A8.167,8.167,0,0,1,2977.6,258.39Z" transform="translate(-2581 -224)"/>
</svg>
