<svg xmlns="http://www.w3.org/2000/svg" xmlns:xlink="http://www.w3.org/1999/xlink" width="20" height="387" viewBox="0 0 20 387"><defs><path id="a" d="M1641.74 355.28a20.66 20.66 0 0 1 12.26 10.56V-16h1.1v380.82a20.55 20.55 0 0 1 4.86-6.3s.51-.44.89.04c.32.4-.07.85-.07.85a19.64 19.64 0 0 0-5.68 8.4v2.77s-.15.42-.55.42c-.41 0-.55-.42-.55-.42v-1.7c-.36-1.15-3.24-9.45-12.6-12.49 0 0-.53-.25-.39-.76.16-.59.73-.35.73-.35z"/><mask id="c" width="2" height="2" x="-1" y="-1"><path fill="#fff" d="M1641-16h19.97v387H1641z"/><use xlink:href="#a"/></mask><filter id="b" width="52.67" height="424" x="1631" y="-26" filterUnits="userSpaceOnUse"><feOffset dx=".7" dy="5" in="SourceGraphic" result="FeOffset1030Out"/><feGaussianBlur in="FeOffset1030Out" result="FeGaussianBlur1031Out" stdDeviation="2.4 2.4"/></filter></defs><desc>Generated with Avocode.</desc><g transform="translate(-1641 16)"><g filter="url(#b)"><use fill="none" stroke-width="0" mask="url(&quot;#c&quot;)" xlink:href="#a"/><use xlink:href="#a"/></g><use fill="#cbb17c" xlink:href="#a"/></g></svg>