<svg xmlns="http://www.w3.org/2000/svg" width="262" height="143" viewBox="0 0 262 143"><defs><clipPath id="a"><path fill="#fff" d="M639.06 7034.51c-.55-20.29-20.65-40.29-46.83-37.57-13.06-25.97-82.52-38.05-105.12-4.34-11.2-4.35-41.07 2.58-41.45 28.15l-1.05-.04c-19.98-.24-36.36 15.18-36.59 34.44-.23 19.26 15.77 35.07 35.75 35.31 7.18.09 13.9-1.86 19.58-5.29 35.4 31.7 91.27 20.22 110.37 1.3a51.28 51.28 0 0 0 16.95 3.08 50.78 50.78 0 0 0 27.82-7.82 26.9 26.9 0 0 0 14.91 4.7c14.51.17 26.41-11.03 26.58-25.02.15-11.8-9.62-23.95-20.92-26.9zm-103.72-52.88a3.33 3.33 0 1 1 0-6.66 3.33 3.33 0 0 1 0 6.66z"/></clipPath><clipPath id="b"><path fill="#fff" d="M634.91 7032.24c-.53-19.22-19.83-38.17-44.98-35.59-12.54-24.6-79.26-36.04-100.96-4.11-10.76-4.12-39.45 2.44-39.8 26.66l-1.02-.03c-19.19-.23-34.92 14.37-35.14 32.61-.23 18.25 15.14 33.22 34.33 33.45 6.9.08 13.36-1.77 18.8-5.01 34 30.02 87.67 19.15 106 1.22a49.4 49.4 0 0 0 16.29 2.92 49.25 49.25 0 0 0 26.72-7.4 26.1 26.1 0 0 0 14.33 4.45c13.93.16 25.36-10.44 25.53-23.7.13-11.17-9.25-22.68-20.1-25.47zm-99.62-50.09a3.17 3.17 0 0 1-3.2-3.15 3.17 3.17 0 0 1 3.2-3.15c1.77 0 3.2 1.41 3.2 3.15a3.17 3.17 0 0 1-3.2 3.15z"/></clipPath></defs><path fill="#ad99c5" d="M240.32 67.75c-.58-21.67-21.4-43.03-48.51-40.12C178.28-.1 106.32-13 82.92 23c-11.6-4.65-42.55 2.75-42.94 30.05l-1.1-.04C18.2 52.75 1.24 69.22.99 89.78c-.23 20.57 16.34 37.44 37.04 37.7 7.44.09 14.4-1.99 20.28-5.64 36.67 33.84 94.54 21.58 114.33 1.38a51.84 51.84 0 0 0 46.38-5.06 27.3 27.3 0 0 0 15.45 5.02 27.12 27.12 0 0 0 27.53-26.72c.15-12.6-9.97-25.56-21.67-28.71zM132.88 11.28a3.5 3.5 0 0 1-3.45-3.55 3.5 3.5 0 0 1 3.45-3.55 3.5 3.5 0 0 1 3.44 3.55 3.5 3.5 0 0 1-3.44 3.55z"/><path fill="#fff" d="M235.06 64.51c-.55-20.29-20.65-40.29-46.83-37.57C175.17.97 105.71-11.11 83.11 22.6c-11.2-4.35-41.07 2.58-41.45 28.15l-1.05-.04C20.63 50.47 4.25 65.89 4.02 85.15c-.23 19.26 15.77 35.07 35.75 35.31 7.18.09 13.9-1.86 19.58-5.29 35.4 31.7 91.27 20.22 110.37 1.3a51.28 51.28 0 0 0 16.95 3.08 50.78 50.78 0 0 0 27.82-7.82 26.9 26.9 0 0 0 14.91 4.7c14.51.17 26.41-11.03 26.58-25.02.15-11.8-9.62-23.95-20.92-26.9zM131.34 11.63a3.33 3.33 0 1 1 0-6.66 3.33 3.33 0 0 1 0 6.66z"/><path fill="none" stroke="#bea8d9" stroke-dasharray="4 2" stroke-miterlimit="50" stroke-width="2" d="M639.06 7034.51c-.55-20.29-20.65-40.29-46.83-37.57-13.06-25.97-82.52-38.05-105.12-4.34-11.2-4.35-41.07 2.58-41.45 28.15l-1.05-.04c-19.98-.24-36.36 15.18-36.59 34.44-.23 19.26 15.77 35.07 35.75 35.31 7.18.09 13.9-1.86 19.58-5.29 35.4 31.7 91.27 20.22 110.37 1.3a51.28 51.28 0 0 0 16.95 3.08 50.78 50.78 0 0 0 27.82-7.82 26.9 26.9 0 0 0 14.91 4.7c14.51.17 26.41-11.03 26.58-25.02.15-11.8-9.62-23.95-20.92-26.9zm-103.72-52.88a3.33 3.33 0 1 1 0-6.66 3.33 3.33 0 0 1 0 6.66z" clip-path="url(&quot;#a&quot;)" transform="translate(-404 -6970)"/><path fill="none" stroke="#e1c9ff" stroke-dasharray="4 2" stroke-miterlimit="50" stroke-width="2" d="M634.91 7032.24c-.53-19.22-19.83-38.17-44.98-35.59-12.54-24.6-79.26-36.04-100.96-4.11-10.76-4.12-39.45 2.44-39.8 26.66l-1.02-.03c-19.19-.23-34.92 14.37-35.14 32.61-.23 18.25 15.14 33.22 34.33 33.45 6.9.08 13.36-1.77 18.8-5.01 34 30.02 87.67 19.15 106 1.22a49.4 49.4 0 0 0 16.29 2.92 49.25 49.25 0 0 0 26.72-7.4 26.1 26.1 0 0 0 14.33 4.45c13.93.16 25.36-10.44 25.53-23.7.13-11.17-9.25-22.68-20.1-25.47zm-99.62-50.09a3.17 3.17 0 0 1-3.2-3.15 3.17 3.17 0 0 1 3.2-3.15c1.77 0 3.2 1.41 3.2 3.15a3.17 3.17 0 0 1-3.2 3.15z" clip-path="url(&quot;#b&quot;)" transform="translate(-404 -6970)"/></svg>