<svg xmlns="http://www.w3.org/2000/svg" xmlns:xlink="http://www.w3.org/1999/xlink" width="292" height="157" viewBox="0 0 292 157"><defs><path id="a" d="M715.02 4546.18c-.2 15.99-13.85 28.79-30.5 28.59a30.8 30.8 0 0 1-17.1-5.37 58.32 58.32 0 0 1-31.92 8.94 58.87 58.87 0 0 1-19.44-3.52c-21.91 21.62-86 34.75-126.6-1.48a42.62 42.62 0 0 1-22.47 6.05c-22.91-.28-41.27-18.35-41-40.36.26-22.01 19.05-39.63 41.97-39.36l1.2.05c.44-29.23 34.7-37.15 47.56-32.17 25.91-38.53 105.6-24.73 120.58 4.95 30.03-3.11 53.08 19.75 53.72 42.94 12.95 3.38 24.16 17.26 24 30.74z"/><path id="b" d="M718.02 4551.18c-.2 15.99-13.85 28.79-30.5 28.59a30.8 30.8 0 0 1-17.1-5.37 58.32 58.32 0 0 1-31.92 8.94 58.87 58.87 0 0 1-19.44-3.52c-21.91 21.62-86 34.74-126.6-1.48a42.62 42.62 0 0 1-22.47 6.05c-22.91-.28-41.27-18.35-41-40.36.26-22.01 19.05-39.64 41.97-39.36l1.2.05c.44-29.23 34.7-37.15 47.56-32.17 25.91-38.53 105.6-24.73 120.58 4.95 30.03-3.11 53.08 19.75 53.72 42.94 12.95 3.38 24.16 17.26 24 30.74z"/><clipPath id="c"><use fill="#fff" xlink:href="#a"/></clipPath></defs><desc>Generated with Avocode.</desc><g transform="translate(-426 -4444)"><use fill="#cfcfcf" xlink:href="#b"/></g><g transform="translate(-426 -4444)"><use fill="#fff" xlink:href="#a"/><use fill="#fff" fill-opacity="0" stroke="#dcdcdc" stroke-dasharray="4 2" stroke-miterlimit="50" stroke-width="2" clip-path="url(&quot;#c&quot;)" xlink:href="#a"/></g></svg>