<svg xmlns="http://www.w3.org/2000/svg" width="284" height="170" viewBox="0 0 284 170"><defs><clipPath id="a"><path fill="#fff" d="M1722.2 274.84a27.58 27.58 0 0 0-19.8 8.5c-8.8-14.22-34.91-27.89-59.41-16.08-7.06-24.65-59.28-35-70.19 1.53a24.68 24.68 0 0 0-16.16-6.09c-12.32 0-22.61 9.22-25.11 21.5a41.79 41.79 0 0 0-16.29-3.3c-24.43 0-44.24 21.06-44.24 47.03 0 25.98 19.81 47.03 44.24 47.03 3.31 0 6.53-.4 9.62-1.13 11.2 21.48 32.73 36.02 57.47 36.02 22.4 0 42.16-11.93 54.01-30.13a54.08 54.08 0 0 0 24.49 5.86c28.28 0 51.75-21.86 56.28-50.55 1.65.31 3.35.49 5.09.49 15.77 0 28.55-13.59 28.55-30.34 0-16.76-12.78-30.34-28.55-30.34zm-116.06-20.27c-1.57 0-2.85-1.35-2.85-3.03 0-1.67 1.28-3.03 2.85-3.03s2.85 1.36 2.85 3.03c0 1.68-1.28 3.03-2.85 3.03z"/></clipPath><clipPath id="b"><path fill="#fff" d="M1717.12 276.39c-7.34 0-14 3.05-18.9 8-8.4-13.4-33.31-26.26-56.7-15.14-6.74-23.21-56.57-32.96-66.99 1.44a23.7 23.7 0 0 0-15.42-5.73c-11.76 0-21.57 8.67-23.96 20.25a40.3 40.3 0 0 0-15.54-3.1c-23.33 0-42.23 19.82-42.23 44.28s18.9 44.29 42.23 44.29c3.15 0 6.22-.38 9.18-1.07 10.68 20.23 31.23 33.92 54.84 33.92 21.38 0 40.24-11.23 51.55-28.37 7.08 3.53 15 5.51 23.37 5.51 26.99 0 49.38-20.58 53.72-47.6 1.57.3 3.19.46 4.85.46 15.05 0 27.24-12.8 27.24-28.57 0-15.78-12.19-28.57-27.24-28.57zm-110.76-19.1a2.78 2.78 0 0 1-2.72-2.84 2.78 2.78 0 0 1 2.72-2.86c1.5 0 2.72 1.28 2.72 2.86a2.79 2.79 0 0 1-2.72 2.85z"/></clipPath></defs><path fill="#cbb17c" d="M255.45 34.03a27.6 27.6 0 0 0-19.8 8.5c-8.8-14.22-34.91-27.89-59.41-16.08-7.06-24.65-59.28-35-70.19 1.53a24.66 24.66 0 0 0-16.16-6.09c-12.32 0-22.6 9.22-25.11 21.5a41.75 41.75 0 0 0-16.28-3.3c-24.44 0-44.25 21.06-44.25 47.04 0 25.97 19.81 47.02 44.25 47.02 3.3 0 6.52-.4 9.62-1.13 11.19 21.48 32.72 36.02 57.46 36.02 22.4 0 42.17-11.93 54.02-30.13a54.08 54.08 0 0 0 24.48 5.86c28.28 0 51.75-21.86 56.29-50.55 1.65.31 3.35.49 5.08.49 15.77 0 28.55-13.59 28.55-30.34 0-16.76-12.78-30.34-28.55-30.34zM139.39 13.76c-1.57 0-2.84-1.35-2.84-3.03 0-1.67 1.27-3.03 2.84-3.03 1.58 0 2.85 1.36 2.85 3.03 0 1.68-1.27 3.03-2.85 3.03z"/><path fill="#fff" d="M251.2 30.84a27.58 27.58 0 0 0-19.8 8.5c-8.8-14.22-34.91-27.89-59.41-16.08-7.06-24.65-59.28-35-70.19 1.53a24.68 24.68 0 0 0-16.16-6.09c-12.32 0-22.61 9.22-25.11 21.5a41.79 41.79 0 0 0-16.29-3.3C19.81 36.9 0 57.97 0 83.94c0 25.98 19.81 47.03 44.24 47.03 3.31 0 6.53-.4 9.62-1.13 11.2 21.48 32.73 36.02 57.47 36.02 22.4 0 42.16-11.93 54.01-30.13a54.08 54.08 0 0 0 24.49 5.86c28.28 0 51.75-21.86 56.28-50.55 1.65.31 3.35.49 5.09.49 15.77 0 28.55-13.59 28.55-30.34 0-16.76-12.78-30.34-28.55-30.34zM135.14 10.57c-1.57 0-2.85-1.35-2.85-3.03 0-1.67 1.28-3.03 2.85-3.03s2.85 1.36 2.85 3.03c0 1.68-1.28 3.03-2.85 3.03z"/><path fill="none" stroke="#d0b57e" stroke-dasharray="4 2" stroke-miterlimit="50" stroke-width="2" d="M1722.2 274.84a27.58 27.58 0 0 0-19.8 8.5c-8.8-14.22-34.91-27.89-59.41-16.08-7.06-24.65-59.28-35-70.19 1.53a24.68 24.68 0 0 0-16.16-6.09c-12.32 0-22.61 9.22-25.11 21.5a41.79 41.79 0 0 0-16.29-3.3c-24.43 0-44.24 21.06-44.24 47.03 0 25.98 19.81 47.03 44.24 47.03 3.31 0 6.53-.4 9.62-1.13 11.2 21.48 32.73 36.02 57.47 36.02 22.4 0 42.16-11.93 54.01-30.13a54.08 54.08 0 0 0 24.49 5.86c28.28 0 51.75-21.86 56.28-50.55 1.65.31 3.35.49 5.09.49 15.77 0 28.55-13.59 28.55-30.34 0-16.76-12.78-30.34-28.55-30.34zm-116.06-20.27c-1.57 0-2.85-1.35-2.85-3.03 0-1.67 1.28-3.03 2.85-3.03s2.85 1.36 2.85 3.03c0 1.68-1.28 3.03-2.85 3.03z" clip-path="url(&quot;#a&quot;)" transform="translate(-1471 -244)"/><path fill="none" stroke="#d0b57e" stroke-dasharray="4 2" stroke-miterlimit="50" stroke-width="2" d="M1717.12 276.39c-7.34 0-14 3.05-18.9 8-8.4-13.4-33.31-26.26-56.7-15.14-6.74-23.21-56.57-32.96-66.99 1.44a23.7 23.7 0 0 0-15.42-5.73c-11.76 0-21.57 8.67-23.96 20.25a40.3 40.3 0 0 0-15.54-3.1c-23.33 0-42.23 19.82-42.23 44.28s18.9 44.29 42.23 44.29c3.15 0 6.22-.38 9.18-1.07 10.68 20.23 31.23 33.92 54.84 33.92 21.38 0 40.24-11.23 51.55-28.37 7.08 3.53 15 5.51 23.37 5.51 26.99 0 49.38-20.58 53.72-47.6 1.57.3 3.19.46 4.85.46 15.05 0 27.24-12.8 27.24-28.57 0-15.78-12.19-28.57-27.24-28.57zm-110.76-19.1a2.78 2.78 0 0 1-2.72-2.84 2.78 2.78 0 0 1 2.72-2.86c1.5 0 2.72 1.28 2.72 2.86a2.79 2.79 0 0 1-2.72 2.85z" clip-path="url(&quot;#b&quot;)" transform="translate(-1471 -244)"/></svg>