<svg xmlns="http://www.w3.org/2000/svg" width="339" height="191" viewBox="0 0 339 191"><defs><clipPath id="a"><path fill="#fff" d="M62.09 565.2A37.24 37.24 0 0 1 75 539.54a39.65 39.65 0 0 1 28.95-9.57c.7.05 1.42.15 2.14.24 8.46-13.68 22.16-20.67 40.02-20.42 3.73-10.96 13.11-20.43 25.05-24.9 12.9-4.83 26.57-3.33 38.33 3.98 8.13-9.79 20.45-17.13 35.34-20.93 16.3-4.16 34.53-3.87 51.32.82 34.64 9.68 56.38 35.5 59.04 69.52a52.3 52.3 0 0 1 29.46 16.89 49.15 49.15 0 0 1 12.22 35.94c-1.94 27.63-26.76 48.49-55.34 46.5a53.16 53.16 0 0 1-24.23-7.77c-28.57 33.53-86.28 21.63-100.9-9.46-11.54 14.58-36.55 8.44-43.47-3.7-20 24.42-55.4 11.37-61.89-11.87a40.12 40.12 0 0 1-12.41 1.08c-21.62-1.5-38.02-19.76-36.55-40.7zm207.78-96.47a1.32 1.32 0 1 0 0-2.64 1.32 1.32 0 0 0 0 2.65z"/></clipPath><clipPath id="b"><path fill="#fff" d="M68.09 564.68a34.45 34.45 0 0 1 12.49-24 39.19 39.19 0 0 1 28-8.94c.69.05 1.38.14 2.07.22 8.18-12.8 21.43-19.33 38.7-19.1 3.61-10.25 12.69-19.1 24.24-23.29 12.47-4.52 25.7-3.1 37.07 3.73 7.86-9.16 19.78-16.03 34.18-19.58 15.77-3.89 33.4-3.62 49.63.77 33.5 9.05 54.53 33.2 57.1 65.02a51.02 51.02 0 0 1 28.5 15.8c7.76 8.58 11.93 19.26 11.93 30.38 0 1.07-.04 2.15-.12 3.23-1.87 25.84-25.88 45.35-53.52 43.49a52.65 52.65 0 0 1-23.43-7.27c-27.64 31.36-83.45 20.23-97.6-8.85-11.15 13.65-35.34 7.9-42.03-3.45-19.35 22.84-53.59 10.63-59.86-11.1-3.9.92-7.91 1.28-12 1-20.92-1.4-36.77-18.48-35.35-38.06zm200.95-90.21c.7 0 1.28-.56 1.28-1.24 0-.68-.57-1.24-1.28-1.24-.7 0-1.28.56-1.28 1.24 0 .68.58 1.23 1.28 1.23z"/></clipPath></defs><path fill="#cbb17c" d="M4.09 106.2A37.25 37.25 0 0 1 17 80.54a39.65 39.65 0 0 1 28.95-9.57c.7.05 1.42.15 2.14.24 8.46-13.68 22.16-20.67 40.02-20.43 3.73-10.95 13.11-20.42 25.05-24.9 12.9-4.82 26.57-3.32 38.33 4 8.13-9.8 20.45-17.14 35.34-20.94 16.3-4.16 34.53-3.87 51.32.82 34.64 9.68 56.38 35.5 59.04 69.52a52.31 52.31 0 0 1 29.46 16.89 49.15 49.15 0 0 1 12.22 35.94c-1.94 27.63-26.76 48.49-55.34 46.5a53.16 53.16 0 0 1-24.23-7.77c-28.57 33.53-86.28 21.63-100.9-9.47-11.54 14.6-36.55 8.45-43.47-3.69-20 24.42-55.4 11.37-61.89-11.87a40.15 40.15 0 0 1-12.41 1.08c-21.62-1.5-38.02-19.76-36.55-40.7zM211.87 9.74a1.32 1.32 0 1 0 0-2.65 1.32 1.32 0 0 0 0 2.65z"/><path fill="#fff" d="M1.09 100.2A37.24 37.24 0 0 1 14 74.54a39.65 39.65 0 0 1 28.95-9.57c.7.05 1.42.15 2.14.24 8.46-13.68 22.16-20.67 40.02-20.42 3.73-10.96 13.11-20.43 25.05-24.9 12.9-4.83 26.57-3.33 38.33 3.98 8.13-9.79 20.45-17.13 35.34-20.93 16.3-4.16 34.53-3.87 51.32.82 34.64 9.68 56.38 35.5 59.04 69.52a52.3 52.3 0 0 1 29.46 16.89 49.15 49.15 0 0 1 12.22 35.94c-1.94 27.63-26.76 48.49-55.34 46.5a53.16 53.16 0 0 1-24.23-7.77c-28.57 33.53-86.28 21.63-100.9-9.46-11.54 14.58-36.55 8.44-43.47-3.7-20 24.42-55.4 11.37-61.89-11.87a40.12 40.12 0 0 1-12.41 1.08c-21.62-1.5-38.02-19.76-36.55-40.7zM208.87 3.74a1.32 1.32 0 1 0 0-2.65 1.32 1.32 0 0 0 0 2.65z"/><path fill="none" stroke="#d5b981" stroke-dasharray="4 2" stroke-miterlimit="50" stroke-width="2" d="M62.09 565.2A37.24 37.24 0 0 1 75 539.54a39.65 39.65 0 0 1 28.95-9.57c.7.05 1.42.15 2.14.24 8.46-13.68 22.16-20.67 40.02-20.42 3.73-10.96 13.11-20.43 25.05-24.9 12.9-4.83 26.57-3.33 38.33 3.98 8.13-9.79 20.45-17.13 35.34-20.93 16.3-4.16 34.53-3.87 51.32.82 34.64 9.68 56.38 35.5 59.04 69.52a52.3 52.3 0 0 1 29.46 16.89 49.15 49.15 0 0 1 12.22 35.94c-1.94 27.63-26.76 48.49-55.34 46.5a53.16 53.16 0 0 1-24.23-7.77c-28.57 33.53-86.28 21.63-100.9-9.46-11.54 14.58-36.55 8.44-43.47-3.7-20 24.42-55.4 11.37-61.89-11.87a40.12 40.12 0 0 1-12.41 1.08c-21.62-1.5-38.02-19.76-36.55-40.7zm207.78-96.47a1.32 1.32 0 1 0 0-2.64 1.32 1.32 0 0 0 0 2.65z" clip-path="url(&quot;#a&quot;)" transform="translate(-61 -465)"/><path fill="none" stroke="#d5b981" stroke-dasharray="4 2" stroke-miterlimit="50" stroke-width="2" d="M68.09 564.68a34.45 34.45 0 0 1 12.49-24 39.19 39.19 0 0 1 28-8.94c.69.05 1.38.14 2.07.22 8.18-12.8 21.43-19.33 38.7-19.1 3.61-10.25 12.69-19.1 24.24-23.29 12.47-4.52 25.7-3.1 37.07 3.73 7.86-9.16 19.78-16.03 34.18-19.58 15.77-3.89 33.4-3.62 49.63.77 33.5 9.05 54.53 33.2 57.1 65.02a51.02 51.02 0 0 1 28.5 15.8c7.76 8.58 11.93 19.26 11.93 30.38 0 1.07-.04 2.15-.12 3.23-1.87 25.84-25.88 45.35-53.52 43.49a52.65 52.65 0 0 1-23.43-7.27c-27.64 31.36-83.45 20.23-97.6-8.85-11.15 13.65-35.34 7.9-42.03-3.45-19.35 22.84-53.59 10.63-59.86-11.1-3.9.92-7.91 1.28-12 1-20.92-1.4-36.77-18.48-35.35-38.06zm200.95-90.21c.7 0 1.28-.56 1.28-1.24 0-.68-.57-1.24-1.28-1.24-.7 0-1.28.56-1.28 1.24 0 .68.58 1.23 1.28 1.23z" clip-path="url(&quot;#b&quot;)" transform="translate(-61 -465)"/></svg>