<svg xmlns="http://www.w3.org/2000/svg" width="277" height="144" viewBox="0 0 277 144"><defs><clipPath id="a"><path fill="#fff" d="M1606.37 579.62c-.59-21.62-22.03-42.93-49.94-40.03-13.93-27.67-88.01-40.53-112.1-4.62-11.94-4.64-43.8 2.74-44.2 29.98l-1.13-.04c-21.3-.25-38.77 16.17-39.02 36.68-.24 20.52 16.82 37.36 38.12 37.62 7.67.09 14.84-1.99 20.89-5.63a43.8 43.8 0 0 0 33.02 5.1 71 71 0 0 0 38.97 12.08 70.73 70.73 0 0 0 45.7-15.8 54.66 54.66 0 0 0 18.08 3.27 54.1 54.1 0 0 0 29.67-8.33 28.6 28.6 0 0 0 15.9 5.01c15.48.19 28.17-11.74 28.35-26.65.15-12.57-10.27-25.5-22.31-28.64zm-108.32-57.28a3 3 0 1 1-.02-5.98 3 3 0 0 1 .02 5.98z"/></clipPath><clipPath id="b"><path fill="#fff" d="M1602.06 579.2c-.57-20.46-21.08-40.62-47.79-37.88-13.33-26.18-84.22-38.36-107.28-4.37-11.43-4.4-41.91 2.6-42.3 28.37l-1.08-.04c-20.38-.24-37.1 15.3-37.33 34.72-.24 19.4 16.09 35.35 36.47 35.59a38.1 38.1 0 0 0 19.99-5.33 42.4 42.4 0 0 0 31.6 4.82 68.48 68.48 0 0 0 37.3 11.44 68.18 68.18 0 0 0 43.73-14.96 52.76 52.76 0 0 0 17.3 3.1 52.19 52.19 0 0 0 28.39-7.88 27.62 27.62 0 0 0 15.22 4.74c14.81.18 26.96-11.1 27.13-25.21.14-11.9-9.83-24.14-21.35-27.12zM1498.4 525a2.85 2.85 0 0 1-2.87-2.83 2.85 2.85 0 0 1 2.87-2.84 2.85 2.85 0 0 1 2.87 2.84 2.85 2.85 0 0 1-2.87 2.83z"/></clipPath></defs><path fill="#cbb17c" d="M253.69 71.87c-.59-21.61-22.02-42.92-49.94-40.02-13.93-27.67-88-40.53-112.1-4.62-11.94-4.64-43.8 2.74-44.2 29.98l-1.13-.04c-21.3-.26-38.76 16.17-39.01 36.68-.25 20.52 16.82 37.36 38.12 37.61 7.66.1 14.83-1.98 20.88-5.63a43.83 43.83 0 0 0 33.03 5.1 70.95 70.95 0 0 0 38.97 12.08 70.73 70.73 0 0 0 45.69-15.8 54.63 54.63 0 0 0 18.08 3.28 54.1 54.1 0 0 0 29.67-8.33 28.63 28.63 0 0 0 15.91 5c15.47.2 28.16-11.74 28.34-26.64.15-12.57-10.27-25.5-22.31-28.65zM145.37 14.6a3 3 0 1 1 0-5.98 3 3 0 1 1 0 5.98z"/><path fill="#fff" d="M247.37 66.62c-.59-21.62-22.03-42.93-49.94-40.03-13.93-27.66-88.01-40.53-112.1-4.62-11.94-4.64-43.8 2.74-44.2 29.98L40 51.91C18.7 51.66 1.23 68.08.98 88.6c-.24 20.52 16.82 37.36 38.12 37.62 7.67.09 14.84-1.99 20.89-5.63a43.8 43.8 0 0 0 33.02 5.1 71 71 0 0 0 38.97 12.08 70.73 70.73 0 0 0 45.7-15.8 54.66 54.66 0 0 0 18.08 3.28 54.1 54.1 0 0 0 29.67-8.34 28.6 28.6 0 0 0 15.9 5.01c15.48.19 28.17-11.74 28.35-26.65.15-12.57-10.27-25.5-22.31-28.64zM139.05 9.34a3 3 0 1 1-.02-5.98 3 3 0 0 1 .02 5.98z"/><path fill="none" stroke="#d0b57e" stroke-dasharray="4 2" stroke-miterlimit="50" stroke-width="2" d="M1606.37 579.62c-.59-21.62-22.03-42.93-49.94-40.03-13.93-27.67-88.01-40.53-112.1-4.62-11.94-4.64-43.8 2.74-44.2 29.98l-1.13-.04c-21.3-.25-38.77 16.17-39.02 36.68-.24 20.52 16.82 37.36 38.12 37.62 7.67.09 14.84-1.99 20.89-5.63a43.8 43.8 0 0 0 33.02 5.1 71 71 0 0 0 38.97 12.08 70.73 70.73 0 0 0 45.7-15.8 54.66 54.66 0 0 0 18.08 3.27 54.1 54.1 0 0 0 29.67-8.33 28.6 28.6 0 0 0 15.9 5.01c15.48.19 28.17-11.74 28.35-26.65.15-12.57-10.27-25.5-22.31-28.64zm-108.32-57.28a3 3 0 1 1-.02-5.98 3 3 0 0 1 .02 5.98z" clip-path="url(&quot;#a&quot;)" transform="translate(-1359 -513)"/><path fill="none" stroke="#d0b57e" stroke-dasharray="4 2" stroke-miterlimit="50" stroke-width="2" d="M1602.06 579.2c-.57-20.46-21.08-40.62-47.79-37.88-13.33-26.18-84.22-38.36-107.28-4.37-11.43-4.4-41.91 2.6-42.3 28.37l-1.08-.04c-20.38-.24-37.1 15.3-37.33 34.72-.24 19.4 16.09 35.35 36.47 35.59a38.1 38.1 0 0 0 19.99-5.33 42.4 42.4 0 0 0 31.6 4.82 68.48 68.48 0 0 0 37.3 11.44 68.18 68.18 0 0 0 43.73-14.96 52.76 52.76 0 0 0 17.3 3.1 52.19 52.19 0 0 0 28.39-7.88 27.62 27.62 0 0 0 15.22 4.74c14.81.18 26.96-11.1 27.13-25.21.14-11.9-9.83-24.14-21.35-27.12zM1498.4 525a2.85 2.85 0 0 1-2.87-2.83 2.85 2.85 0 0 1 2.87-2.84 2.85 2.85 0 0 1 2.87 2.84 2.85 2.85 0 0 1-2.87 2.83z" clip-path="url(&quot;#b&quot;)" transform="translate(-1359 -513)"/></svg>