<svg xmlns="http://www.w3.org/2000/svg" width="278" height="150" viewBox="0 0 278 150"><defs><clipPath id="a"><path fill="#fff" d="M605.41 481.11c-.59-21.43-21.92-42.56-49.7-39.68-13.86-27.44-87.58-40.19-111.56-4.58-11.89-4.6-43.6 2.71-44 29.72l-1.11-.04c-21.2-.25-38.59 16.03-38.83 36.37-.25 20.35 16.73 37.04 37.93 37.3a39.4 39.4 0 0 0 20.79-5.59c37.56 33.48 96.86 21.35 117.13 1.37a54.53 54.53 0 0 0 17.99 3.25 54 54 0 0 0 29.53-8.26 28.6 28.6 0 0 0 15.83 4.97c15.4.18 28.03-11.65 28.2-26.43.16-12.46-10.21-25.29-22.2-28.4zm-110.08-55.86a3.52 3.52 0 0 1-3.53-3.5 3.52 3.52 0 0 1 3.53-3.52 3.52 3.52 0 0 1 3.53 3.51 3.52 3.52 0 0 1-3.53 3.51z"/></clipPath><clipPath id="b"><path fill="#fff" d="M601 480.82c-.56-20.3-21.05-40.3-47.73-37.58-13.31-25.99-84.12-38.07-107.15-4.34-11.42-4.36-41.87 2.57-42.25 28.15l-1.08-.04c-20.36-.24-37.06 15.18-37.3 34.45-.23 19.27 16.08 35.08 36.44 35.32a38.25 38.25 0 0 0 19.96-5.29c36.08 31.7 93.04 20.22 112.5 1.3a53.05 53.05 0 0 0 17.28 3.08 52.39 52.39 0 0 0 28.36-7.82c4.3 2.9 9.54 4.63 15.2 4.7 14.8.17 26.93-11.03 27.1-25.03.15-11.8-9.81-23.95-21.33-26.9zm-105.72-52.9a3.36 3.36 0 0 1-3.4-3.33 3.36 3.36 0 0 1 3.4-3.32c1.87 0 3.4 1.49 3.4 3.32a3.36 3.36 0 0 1-3.4 3.33z"/></clipPath></defs><path fill="#cbb17c" d="M254.99 70.52c-.61-22.88-22.7-45.43-51.48-42.37-14.36-29.29-90.73-42.9-115.57-4.89-12.31-4.9-45.15 2.9-45.57 31.74l-1.16-.04C19.25 54.7 1.24 72.08 1 93.8c-.26 21.72 17.34 39.55 39.3 39.82 7.9.1 15.29-2.1 21.53-5.96 38.9 35.74 100.33 22.8 121.33 1.46a55.08 55.08 0 0 0 18.63 3.47 54.7 54.7 0 0 0 30.6-8.82 29 29 0 0 0 16.4 5.3c15.94.2 29.03-12.43 29.21-28.2.16-13.32-10.58-27.01-23-30.34zM140.96 10.9a3.7 3.7 0 0 1-3.66-3.75 3.7 3.7 0 0 1 3.66-3.75 3.7 3.7 0 0 1 3.66 3.75 3.7 3.7 0 0 1-3.66 3.75z"/><path fill="#fff" d="M249.41 67.11c-.59-21.43-21.92-42.56-49.7-39.68C185.85 0 112.13-12.76 88.15 22.85c-11.89-4.6-43.6 2.71-44 29.72l-1.11-.04C21.84 52.28 4.45 68.56 4.2 88.9c-.25 20.34 16.73 37.04 37.93 37.3a39.4 39.4 0 0 0 20.79-5.59c37.56 33.48 96.86 21.35 117.13 1.37a54.53 54.53 0 0 0 17.99 3.25 54 54 0 0 0 29.53-8.26 28.6 28.6 0 0 0 15.83 4.97c15.4.18 28.03-11.65 28.2-26.43.16-12.46-10.21-25.29-22.2-28.4zM139.33 11.25a3.52 3.52 0 0 1-3.53-3.5 3.52 3.52 0 0 1 3.53-3.52 3.52 3.52 0 0 1 3.53 3.52 3.52 3.52 0 0 1-3.53 3.5z"/><path fill="none" stroke="#d5b981" stroke-dasharray="4 2" stroke-miterlimit="50" stroke-width="2" d="M605.41 481.11c-.59-21.43-21.92-42.56-49.7-39.68-13.86-27.44-87.58-40.19-111.56-4.58-11.89-4.6-43.6 2.71-44 29.72l-1.11-.04c-21.2-.25-38.59 16.03-38.83 36.37-.25 20.35 16.73 37.04 37.93 37.3a39.4 39.4 0 0 0 20.79-5.59c37.56 33.48 96.86 21.35 117.13 1.37a54.53 54.53 0 0 0 17.99 3.25 54 54 0 0 0 29.53-8.26 28.6 28.6 0 0 0 15.83 4.97c15.4.18 28.03-11.65 28.2-26.43.16-12.46-10.21-25.29-22.2-28.4zm-110.08-55.86a3.52 3.52 0 0 1-3.53-3.5 3.52 3.52 0 0 1 3.53-3.52 3.52 3.52 0 0 1 3.53 3.51 3.52 3.52 0 0 1-3.53 3.51z" clip-path="url(&quot;#a&quot;)" transform="translate(-356 -414)"/><path fill="none" stroke="#d5b981" stroke-dasharray="4 2" stroke-miterlimit="50" stroke-width="2" d="M601 480.82c-.56-20.3-21.05-40.3-47.73-37.58-13.31-25.99-84.12-38.07-107.15-4.34-11.42-4.36-41.87 2.57-42.25 28.15l-1.08-.04c-20.36-.24-37.06 15.18-37.3 34.45-.23 19.27 16.08 35.08 36.44 35.32a38.25 38.25 0 0 0 19.96-5.29c36.08 31.7 93.04 20.22 112.5 1.3a53.05 53.05 0 0 0 17.28 3.08 52.39 52.39 0 0 0 28.36-7.82c4.3 2.9 9.54 4.63 15.2 4.7 14.8.17 26.93-11.03 27.1-25.03.15-11.8-9.81-23.95-21.33-26.9zm-105.72-52.9a3.36 3.36 0 0 1-3.4-3.33 3.36 3.36 0 0 1 3.4-3.32c1.87 0 3.4 1.49 3.4 3.32a3.36 3.36 0 0 1-3.4 3.33z" clip-path="url(&quot;#b&quot;)" transform="translate(-356 -414)"/></svg>