<svg xmlns="http://www.w3.org/2000/svg" width="272" height="181" viewBox="0 0 272 181"><defs><clipPath id="a"><path fill="#fff" d="M478.01 316.43c0-22.58-17.62-40.88-39.35-40.88-5.32 0-10.4 1.1-15.02 3.09-15.3-17.59-37.44-28.64-62.06-28.64a80.86 80.86 0 0 0-41.9 11.7 33.54 33.54 0 0 0-22.06-8.3c-19.02 0-34.43 16.02-34.43 35.78 0 4.83.92 9.44 2.6 13.64-28.67.38-51.8 24.63-51.8 54.5 0 30.1 23.5 54.5 52.48 54.5a51.22 51.22 0 0 0 35.33-14.2c15.19 16.12 36.36 26.14 59.78 26.14 31.2 0 58.38-17.76 72.75-44.07 2.37.94 4.93 1.48 7.6 1.48 11.78 0 21.32-9.92 21.32-22.15 0-3.27-.7-6.37-1.93-9.17a41.3 41.3 0 0 0 16.7-33.42zM358.8 261.81a4.33 4.33 0 0 1-4.25-4.42c0-2.43 1.9-4.4 4.25-4.4a4.33 4.33 0 0 1 4.24 4.4c0 2.44-1.9 4.42-4.24 4.42z"/></clipPath><clipPath id="b"><path fill="#fff" d="M470 316.22c0-21.1-16.48-38.2-36.82-38.2-4.97 0-9.72 1.04-14.05 2.9-14.32-16.43-35.02-26.76-58.06-26.76-14.29 0-27.68 4-39.2 10.93a31.4 31.4 0 0 0-20.63-7.75c-17.8 0-32.22 14.96-32.22 33.42 0 4.51.86 8.82 2.43 12.75-26.82.36-48.46 23-48.46 50.9 0 28.13 21.98 50.93 49.1 50.93a47.95 47.95 0 0 0 33.06-13.28c14.2 15.06 34 24.42 55.92 24.42 29.19 0 54.62-16.59 68.07-41.16 2.2.87 4.6 1.38 7.11 1.38 11.02 0 19.94-9.27 19.94-20.7 0-3.05-.65-5.94-1.8-8.56A38.57 38.57 0 0 0 470 316.22zM358.46 265.2a4.05 4.05 0 0 1-3.98-4.12 4.05 4.05 0 0 1 3.98-4.12c2.2 0 3.97 1.84 3.97 4.12a4.05 4.05 0 0 1-3.97 4.12z"/></clipPath></defs><path fill="#d2b780" d="M271.01 69.82c0-23.4-17.82-42.35-39.8-42.35a37.62 37.62 0 0 0-15.19 3.2C200.54 12.45 178.16 1 153.26 1a80.33 80.33 0 0 0-42.39 12.12 33.46 33.46 0 0 0-22.3-8.6c-19.23 0-34.82 16.6-34.82 37.06a39 39 0 0 0 2.62 14.14c-29 .4-52.38 25.51-52.38 56.45 0 31.2 23.76 56.47 53.07 56.47 13.77 0 26.31-5.58 35.74-14.72 15.36 16.7 36.77 27.08 60.46 27.08 31.55 0 59.04-18.4 73.58-45.65 2.39.97 4.97 1.53 7.69 1.53 11.9 0 21.56-10.27 21.56-22.94 0-3.4-.71-6.6-1.96-9.5 10.22-7.67 16.89-20.32 16.89-34.62zM150.44 13.23c-2.37 0-4.3-2.04-4.3-4.57 0-2.53 1.93-4.57 4.3-4.57s4.3 2.04 4.3 4.57c0 2.52-1.93 4.57-4.3 4.57z"/><path fill="#fff" d="M265.01 67.43c0-22.58-17.62-40.88-39.35-40.88-5.32 0-10.4 1.1-15.02 3.09C195.34 12.05 173.2 1 148.58 1a80.86 80.86 0 0 0-41.9 11.7 33.54 33.54 0 0 0-22.06-8.3C65.6 4.4 50.2 20.42 50.2 40.18c0 4.83.92 9.44 2.6 13.64-28.67.38-51.8 24.63-51.8 54.5 0 30.1 23.5 54.5 52.48 54.5a51.22 51.22 0 0 0 35.34-14.2c15.18 16.12 36.35 26.14 59.77 26.14 31.2 0 58.38-17.76 72.75-44.07 2.37.94 4.92 1.48 7.6 1.48 11.78 0 21.32-9.92 21.32-22.15 0-3.27-.7-6.37-1.93-9.17a41.3 41.3 0 0 0 16.7-33.42zM145.8 12.81a4.33 4.33 0 0 1-4.25-4.42c0-2.43 1.9-4.4 4.25-4.4a4.33 4.33 0 0 1 4.24 4.4c0 2.44-1.9 4.42-4.24 4.42z"/><path fill="none" stroke="#d5b981" stroke-dasharray="4 2" stroke-miterlimit="50" stroke-width="2" d="M478.01 316.43c0-22.58-17.62-40.88-39.35-40.88-5.32 0-10.4 1.1-15.02 3.09-15.3-17.59-37.44-28.64-62.06-28.64a80.86 80.86 0 0 0-41.9 11.7 33.54 33.54 0 0 0-22.06-8.3c-19.02 0-34.43 16.02-34.43 35.78 0 4.83.92 9.44 2.6 13.64-28.67.38-51.8 24.63-51.8 54.5 0 30.1 23.5 54.5 52.48 54.5a51.22 51.22 0 0 0 35.33-14.2c15.19 16.12 36.36 26.14 59.78 26.14 31.2 0 58.38-17.76 72.75-44.07 2.37.94 4.93 1.48 7.6 1.48 11.78 0 21.32-9.92 21.32-22.15 0-3.27-.7-6.37-1.93-9.17a41.3 41.3 0 0 0 16.7-33.42zM358.8 261.81a4.33 4.33 0 0 1-4.25-4.42c0-2.43 1.9-4.4 4.25-4.4a4.33 4.33 0 0 1 4.24 4.4c0 2.44-1.9 4.42-4.24 4.42z" clip-path="url(&quot;#a&quot;)" transform="translate(-213 -249)"/><path fill="none" stroke="#d5b981" stroke-dasharray="4 2" stroke-miterlimit="50" stroke-width="2" d="M470 316.22c0-21.1-16.48-38.2-36.82-38.2-4.97 0-9.72 1.04-14.05 2.9-14.32-16.43-35.02-26.76-58.06-26.76-14.29 0-27.68 4-39.2 10.93a31.4 31.4 0 0 0-20.63-7.75c-17.8 0-32.22 14.96-32.22 33.42 0 4.51.86 8.82 2.43 12.75-26.82.36-48.46 23-48.46 50.9 0 28.13 21.98 50.93 49.1 50.93a47.95 47.95 0 0 0 33.06-13.28c14.2 15.06 34 24.42 55.92 24.42 29.19 0 54.62-16.59 68.07-41.16 2.2.87 4.6 1.38 7.11 1.38 11.02 0 19.94-9.27 19.94-20.7 0-3.05-.65-5.94-1.8-8.56A38.57 38.57 0 0 0 470 316.22zM358.46 265.2a4.05 4.05 0 0 1-3.98-4.12 4.05 4.05 0 0 1 3.98-4.12c2.2 0 3.97 1.84 3.97 4.12a4.05 4.05 0 0 1-3.97 4.12z" clip-path="url(&quot;#b&quot;)" transform="translate(-213 -249)"/></svg>