<svg xmlns="http://www.w3.org/2000/svg" width="329" height="221" viewBox="0 0 329 221"><defs><clipPath id="a"><path fill="#fff" d="M1666.29 405.6a82.9 82.9 0 0 1 47.41 14.68c10.92-15.81 29.77-26.26 51.22-26.26 24.74 0 46.04 13.91 55.67 33.93 8.74-5 18.99-7.88 29.95-7.88 32.09 0 58.11 24.63 58.11 55.02 0 26.97-20.5 49.39-47.55 54.1-2.67 44.9-41.97 80.54-90.07 80.54-30.67 0-57.75-14.5-74.05-36.65a31.41 31.41 0 0 1-20.75 7.7c-15.71 0-28.65-11.22-30.38-25.66-34.43-8.56-59.84-38.23-59.84-73.52 0-41.97 35.94-76 80.28-76zm97.79-1.54a3.6 3.6 0 0 0 3.69-3.5 3.6 3.6 0 0 0-3.69-3.48 3.59 3.59 0 0 0-3.68 3.49 3.59 3.59 0 0 0 3.68 3.49z"/></clipPath><clipPath id="b"><path fill="#fff" d="M1669.79 409.3a80.66 80.66 0 0 1 45.68 13.95c10.52-15.03 28.68-24.96 49.34-24.96 23.84 0 44.36 13.23 53.64 32.25a58.64 58.64 0 0 1 28.86-7.49c30.91 0 55.98 23.42 55.98 52.3 0 25.63-19.75 46.94-45.82 51.41-2.56 42.69-40.43 76.56-86.77 76.56-29.55 0-55.64-13.78-71.34-34.83a30.53 30.53 0 0 1-20 7.31c-15.14 0-27.6-10.66-29.27-24.39-33.17-8.13-57.64-36.33-57.64-69.87 0-39.9 34.62-72.24 77.34-72.24zm94.21-1.47c1.97 0 3.56-1.48 3.56-3.31 0-1.84-1.59-3.32-3.56-3.32-1.96 0-3.55 1.48-3.55 3.32 0 1.83 1.59 3.31 3.55 3.31z"/></clipPath></defs><path fill="#cbb17c" d="M85.65 15.87a82.9 82.9 0 0 1 47.41 14.68c10.92-15.81 29.77-26.26 51.21-26.26 24.75 0 46.05 13.91 55.68 33.93 8.74-5 18.99-7.88 29.95-7.88 32.09 0 58.11 24.64 58.11 55.02 0 26.97-20.5 49.39-47.55 54.1-2.67 44.9-41.97 80.54-90.07 80.54-30.67 0-57.75-14.5-74.05-36.65a31.4 31.4 0 0 1-20.75 7.7c-15.71 0-28.65-11.22-30.38-25.66-34.43-8.56-59.84-38.23-59.84-73.52 0-41.97 35.94-76 80.28-76zm97.79-1.54a3.6 3.6 0 0 0 3.69-3.49 3.6 3.6 0 0 0-3.69-3.49 3.58 3.58 0 0 0-3.68 3.49 3.58 3.58 0 0 0 3.68 3.49z"/><path fill="#fff" d="M80.29 11.6a82.9 82.9 0 0 1 47.41 14.68C138.62 10.47 157.47 0 178.92 0c24.74 0 46.04 13.92 55.67 33.94 8.74-5 18.99-7.88 29.95-7.88 32.09 0 58.11 24.63 58.11 55.02 0 26.97-20.5 49.39-47.55 54.1-2.67 44.9-41.97 80.54-90.07 80.54-30.67 0-57.75-14.5-74.05-36.65a31.41 31.41 0 0 1-20.75 7.7c-15.71 0-28.65-11.22-30.38-25.66C25.42 152.56.01 122.89.01 87.6c0-41.97 35.94-76 80.28-76zm97.79-1.54a3.6 3.6 0 0 0 3.69-3.5 3.6 3.6 0 0 0-3.69-3.48 3.59 3.59 0 0 0-3.68 3.49 3.59 3.59 0 0 0 3.68 3.49z"/><path fill="none" stroke="#d0b57e" stroke-dasharray="4 2" stroke-miterlimit="50" stroke-width="2" d="M1666.29 405.6a82.9 82.9 0 0 1 47.41 14.68c10.92-15.81 29.77-26.26 51.22-26.26 24.74 0 46.04 13.91 55.67 33.93 8.74-5 18.99-7.88 29.95-7.88 32.09 0 58.11 24.63 58.11 55.02 0 26.97-20.5 49.39-47.55 54.1-2.67 44.9-41.97 80.54-90.07 80.54-30.67 0-57.75-14.5-74.05-36.65a31.41 31.41 0 0 1-20.75 7.7c-15.71 0-28.65-11.22-30.38-25.66-34.43-8.56-59.84-38.23-59.84-73.52 0-41.97 35.94-76 80.28-76zm97.79-1.54a3.6 3.6 0 0 0 3.69-3.5 3.6 3.6 0 0 0-3.69-3.48 3.59 3.59 0 0 0-3.68 3.49 3.59 3.59 0 0 0 3.68 3.49z" clip-path="url(&quot;#a&quot;)" transform="translate(-1586 -394)"/><path fill="none" stroke="#d0b57e" stroke-dasharray="4 2" stroke-miterlimit="50" stroke-width="2" d="M1669.79 409.3a80.66 80.66 0 0 1 45.68 13.95c10.52-15.03 28.68-24.96 49.34-24.96 23.84 0 44.36 13.23 53.64 32.25a58.64 58.64 0 0 1 28.86-7.49c30.91 0 55.98 23.42 55.98 52.3 0 25.63-19.75 46.94-45.82 51.41-2.56 42.69-40.43 76.56-86.77 76.56-29.55 0-55.64-13.78-71.34-34.83a30.53 30.53 0 0 1-20 7.31c-15.14 0-27.6-10.66-29.27-24.39-33.17-8.13-57.64-36.33-57.64-69.87 0-39.9 34.62-72.24 77.34-72.24zm94.21-1.47c1.97 0 3.56-1.48 3.56-3.31 0-1.84-1.59-3.32-3.56-3.32-1.96 0-3.55 1.48-3.55 3.32 0 1.83 1.59 3.31 3.55 3.31z" clip-path="url(&quot;#b&quot;)" transform="translate(-1586 -394)"/></svg>